<svg width="20" height="19" viewBox="0 0 20 19" fill="none" xmlns="http://www.w3.org/2000/svg">
<path d="M4.19727 2.50089C4.19699 3.03129 3.97562 3.53987 3.58185 3.91473C3.18809 4.2896 2.65418 4.50004 2.09759 4.49978C1.54099 4.49951 1.00731 4.28856 0.613934 3.91332C0.220561 3.53808 -0.000278034 3.02929 2.62709e-07 2.49889C0.000278559 1.96849 0.221651 1.45991 0.615418 1.08505C1.00919 0.710183 1.54309 0.499735 2.09969 0.5C2.65628 0.500265 3.18996 0.711222 3.58334 1.08646C3.97671 1.4617 4.19755 1.97049 4.19727 2.50089ZM4.26023 5.9807H0.0629593V18.5H4.26023V5.9807ZM10.8919 5.9807H6.71564V18.5H10.8499V11.9304C10.8499 8.27057 15.8552 7.93059 15.8552 11.9304V18.5H20V10.5704C20 4.40078 12.5918 4.63077 10.8499 7.6606L10.8919 5.9807Z" fill="black"/>
</svg>
