<svg width="43" height="42" viewBox="0 0 43 42" fill="none" xmlns="http://www.w3.org/2000/svg">
<path d="M17.1849 42.0075C16.0034 42.0075 14.9924 41.5965 14.1517 40.7745C13.3111 39.9526 12.8901 38.9633 12.8887 37.8067H21.4811C21.4811 38.9619 21.0608 39.9512 20.2201 40.7745C19.3795 41.5979 18.3678 42.0089 17.1849 42.0075ZM2.14812 35.7063C1.53948 35.7063 1.02967 35.5047 0.618663 35.1014C0.207658 34.6982 0.00143948 34.1997 7.40726e-06 33.606C-0.00142466 33.0123 0.204794 32.5138 0.618663 32.1105C1.03253 31.7072 1.54235 31.5056 2.14812 31.5056H4.29622V16.803C4.29622 13.8975 5.19127 11.3161 6.98136 9.05891C8.77145 6.80171 11.0986 5.32235 13.9627 4.62082V3.15056C13.9627 2.27541 14.2763 1.53188 14.9036 0.919968C15.5308 0.308059 16.2913 0.00140502 17.1849 4.77358e-06C18.0785 -0.00139547 18.8396 0.305259 19.4683 0.919968C20.097 1.53468 20.4099 2.27821 20.407 3.15056V4.62082C20.7651 4.69084 21.1052 4.76995 21.4274 4.85817C21.7496 4.94638 22.0539 5.07731 22.3403 5.25094C22.8416 5.53099 23.2175 5.92516 23.4681 6.43345C23.7187 6.94174 23.7187 7.45773 23.4681 7.98142C23.2175 8.50511 22.833 8.88178 22.3146 9.11142C21.7961 9.34106 21.2677 9.34946 20.7292 9.13663C19.9416 8.82157 19.2972 8.61993 18.796 8.53172C18.2947 8.4435 17.7577 8.40009 17.1849 8.40149C14.822 8.40149 12.7991 9.22414 11.1165 10.8694C9.43378 12.5147 8.59244 14.4926 8.59244 16.803V31.5056H25.7773V27.3048C25.7773 26.6047 26.0014 26.0796 26.4497 25.7296C26.8979 25.3795 27.3898 25.2045 27.9254 25.2045C28.461 25.2045 28.9536 25.3795 29.4033 25.7296C29.853 26.0796 30.0764 26.6047 30.0735 27.3048V31.5056H32.2216C32.8303 31.5056 33.3408 31.7072 33.7532 32.1105C34.1657 32.5138 34.3712 33.0123 34.3697 33.606C34.3683 34.1997 34.1621 34.6989 33.7511 35.1035C33.3401 35.5082 32.8303 35.7091 32.2216 35.7063H2.14812Z" fill="#0071E3"/>
<path fill-rule="evenodd" clip-rule="evenodd" d="M32.9572 7.36398C29.3682 7.36398 26.4587 10.2735 26.4587 13.8625C26.4587 17.4515 29.3682 20.361 32.9572 20.361C36.5462 20.361 39.4557 17.4515 39.4557 13.8625C39.4557 10.2735 36.5462 7.36398 32.9572 7.36398ZM22.9141 13.8625C22.9141 8.31581 27.4105 3.81934 32.9572 3.81934C38.5039 3.81934 43.0004 8.31581 43.0004 13.8625C43.0004 19.4092 38.5039 23.9056 32.9572 23.9056C27.4105 23.9056 22.9141 19.4092 22.9141 13.8625Z" fill="#0071E3"/>
<path d="M31.5393 17.1856C31.0528 17.1856 30.6584 16.7912 30.6584 16.3047C30.6584 16.0611 30.7592 15.8284 30.937 15.6619L32.9794 13.7481C33.3415 13.4148 33.6216 13.1417 33.8197 12.9287C34.0212 12.7122 34.1596 12.5284 34.2347 12.3772C34.3133 12.2226 34.3526 12.0697 34.3526 11.9185V11.8979C34.3526 11.7124 34.3133 11.5509 34.2347 11.4135C34.1562 11.276 34.0417 11.1695 33.8914 11.0939C33.7411 11.0184 33.5635 10.9806 33.3586 10.9806C33.1434 10.9806 32.9538 11.0252 32.7898 11.1146C32.6293 11.2039 32.5029 11.3276 32.4107 11.4856C32.3248 11.6297 32.2789 11.7946 32.273 11.9804C32.2721 12.0078 32.273 12.0354 32.2723 12.0628C32.2563 12.7389 30.5628 12.7338 30.5508 12.0577V12.0268C30.5508 11.532 30.6703 11.0991 30.9094 10.728C31.152 10.357 31.4884 10.0684 31.9188 9.86222C32.3526 9.65264 32.8564 9.54785 33.4303 9.54785C33.9802 9.54785 34.4602 9.64062 34.8701 9.82615C35.2834 10.0082 35.6045 10.2642 35.8333 10.594C36.0656 10.9239 36.1817 11.3087 36.1817 11.7485V11.7742C36.1817 12.0525 36.1237 12.3291 36.0075 12.604C35.8914 12.8788 35.7001 13.1726 35.4337 13.4852C35.1672 13.7945 34.8069 14.1466 34.3526 14.5417L32.9985 15.7366C32.9398 15.7883 32.8548 15.7157 32.8968 15.6497C32.9389 15.5835 33.041 15.6302 33.0185 15.7053L32.8966 16.1118C32.8548 16.2511 32.6494 16.221 32.6494 16.0756V15.8807C32.645 15.7887 32.7184 15.7116 32.8105 15.7116H35.5421C35.9491 15.7116 36.2791 16.0416 36.2791 16.4486C36.2791 16.8556 35.9491 17.1856 35.5421 17.1856H31.5393Z" fill="#0071E3"/>
</svg>
