<svg width="48" height="42" viewBox="0 0 48 42" fill="none" xmlns="http://www.w3.org/2000/svg">
<path d="M17.1818 42C16.0006 42 14.9897 41.5891 14.1492 40.7673C13.3088 39.9455 12.8878 38.9564 12.8864 37.8H21.4773C21.4773 38.955 21.057 39.9441 20.2166 40.7673C19.3761 41.5905 18.3645 42.0014 17.1818 42ZM2.14773 35.7C1.53921 35.7 1.02948 35.4984 0.618553 35.0952C0.207621 34.692 0.00143922 34.1936 7.40594e-06 33.6C-0.00142441 33.0064 0.204758 32.508 0.618553 32.1048C1.03235 31.7016 1.54207 31.5 2.14773 31.5H4.29546V16.8C4.29546 13.895 5.19035 11.3141 6.98012 9.0573C8.76989 6.8005 11.0966 5.3214 13.9602 4.62V3.15C13.9602 2.275 14.2738 1.5316 14.9009 0.919805C15.5281 0.308005 16.2884 0.00140477 17.1818 4.77273e-06C18.0753 -0.00139523 18.8363 0.305205 19.4649 0.919805C20.0934 1.5344 20.4063 2.2778 20.4034 3.15V4.62C20.7614 4.69 21.1014 4.7691 21.4236 4.8573C21.7457 4.9455 22.05 5.0764 22.3364 5.25C22.8375 5.53 23.2134 5.9241 23.4639 6.4323C23.7145 6.9405 23.7145 7.4564 23.4639 7.98C23.2134 8.5036 22.8289 8.8802 22.3106 9.1098C21.7923 9.3394 21.2639 9.3478 20.7256 9.135C19.9381 8.82 19.2937 8.6184 18.7926 8.5302C18.2915 8.442 17.7545 8.3986 17.1818 8.4C14.8193 8.4 12.7969 9.2225 11.1145 10.8675C9.43211 12.5125 8.59091 14.49 8.59091 16.8V31.5H25.7727V27.3C25.7727 26.6 25.9968 26.075 26.445 25.725C26.8931 25.375 27.385 25.2 27.9205 25.2C28.4559 25.2 28.9485 25.375 29.3981 25.725C29.8477 26.075 30.071 26.6 30.0682 27.3V31.5H32.2159C32.8244 31.5 33.3349 31.7016 33.7472 32.1048C34.1596 32.508 34.3651 33.0064 34.3636 33.6C34.3622 34.1936 34.156 34.6927 33.7451 35.0973C33.3342 35.5019 32.8244 35.7028 32.2159 35.7H2.14773Z" fill="#0071E3"/>
<path fill-rule="evenodd" clip-rule="evenodd" d="M47.1587 21.4675C47.8741 22.1279 47.9187 23.2432 47.2583 23.9586L38.9663 32.9416C38.6409 33.2941 38.1859 33.4988 37.7062 33.5084C37.2266 33.518 36.7637 33.3316 36.4245 32.9924L32.9695 29.5374C32.281 28.849 32.281 27.7328 32.9695 27.0443C33.6579 26.3559 34.7741 26.3559 35.4625 27.0443L37.6201 29.202L44.6676 21.5672C45.328 20.8518 46.4433 20.8071 47.1587 21.4675Z" fill="#0071E3"/>
<path fill-rule="evenodd" clip-rule="evenodd" d="M32.9515 7.36237C29.3631 7.36237 26.4542 10.2713 26.4542 13.8597C26.4542 17.4481 29.3631 20.3571 32.9515 20.3571C36.5399 20.3571 39.4489 17.4481 39.4489 13.8597C39.4489 10.2713 36.5399 7.36237 32.9515 7.36237ZM22.9102 13.8597C22.9102 8.31403 27.4058 3.81836 32.9515 3.81836C38.4972 3.81836 42.9929 8.31403 42.9929 13.8597C42.9929 19.4054 38.4972 23.9011 32.9515 23.9011C27.4058 23.9011 22.9102 19.4054 22.9102 13.8597Z" fill="#0071E3"/>
<path d="M31.5352 17.1823C31.0488 17.1823 30.6545 16.7879 30.6545 16.3015C30.6545 16.058 30.7553 15.8254 30.933 15.6589L32.9751 13.7454C33.3371 13.4122 33.6171 13.1391 33.8152 12.9261C34.0167 12.7097 34.155 12.5259 34.2302 12.3748C34.3087 12.2202 34.348 12.0673 34.348 11.9162V11.8955C34.348 11.7101 34.3087 11.5486 34.2302 11.4112C34.1516 11.2738 34.0372 11.1673 33.8869 11.0917C33.7367 11.0161 33.5591 10.9784 33.3542 10.9784C33.139 10.9784 32.9495 11.023 32.7855 11.1123C32.625 11.2016 32.4987 11.3253 32.4064 11.4833C32.3205 11.6273 32.2746 11.7922 32.2688 11.978C32.2679 12.0055 32.2688 12.033 32.2681 12.0604C32.2521 12.7364 30.5589 12.7313 30.5469 12.0553V12.0244C30.5469 11.5297 30.6664 11.0969 30.9055 10.7259C31.1479 10.3549 31.4843 10.0663 31.9147 9.86022C32.3484 9.65067 32.8521 9.5459 33.4259 9.5459C33.9757 9.5459 34.4556 9.63865 34.8654 9.82415C35.2786 10.0062 35.5996 10.2621 35.8285 10.5919C36.0607 10.9217 36.1768 11.3064 36.1768 11.7461V11.7719C36.1768 12.0501 36.1188 12.3267 36.0026 12.6015C35.8865 12.8763 35.6953 13.17 35.4289 13.4826C35.1625 13.7918 34.8022 14.1439 34.348 14.5389L32.9941 15.7335C32.9355 15.7852 32.8505 15.7126 32.8925 15.6467C32.9345 15.5805 33.0367 15.6271 33.0141 15.7023L32.8923 16.1087C32.8505 16.248 32.6452 16.2179 32.6452 16.0725V15.8776C32.6407 15.7856 32.7141 15.7086 32.8062 15.7086H35.5373C35.9443 15.7086 36.2741 16.0385 36.2741 16.4454C36.2741 16.8524 35.9443 17.1823 35.5373 17.1823H31.5352Z" fill="#0071E3"/>
</svg>
