<svg width="40" height="42" viewBox="0 0 40 42" fill="none" xmlns="http://www.w3.org/2000/svg">
<path d="M17.1429 41.9049C15.9643 41.9049 14.9558 41.4949 14.1172 40.675C13.2786 39.8551 12.8586 38.8682 12.8572 37.7144H21.4286C21.4286 38.8668 21.0094 39.8537 20.1708 40.675C19.3322 41.4963 18.3229 41.9063 17.1429 41.9049ZM2.14287 35.6192C1.53573 35.6192 1.02715 35.418 0.617152 35.0157C0.207151 34.6135 0.00143596 34.1162 7.38918e-06 33.5239C-0.00142119 32.9317 0.204294 32.4344 0.617152 32.0321C1.03001 31.6298 1.53858 31.4287 2.14287 31.4287H4.28573V16.762C4.28573 13.8635 5.17859 11.2885 6.96431 9.0368C8.75003 6.78511 11.0715 5.30936 13.9286 4.60954V3.14287C13.9286 2.26985 14.2415 1.52814 14.8672 0.917722C15.4929 0.307307 16.2515 0.00140159 17.1429 4.76192e-06C18.0343 -0.00139207 18.7936 0.304514 19.4208 0.917722C20.0479 1.53093 20.3601 2.27265 20.3572 3.14287V4.60954C20.7144 4.67939 21.0536 4.75831 21.3751 4.84631C21.6965 4.93431 22.0001 5.06491 22.2858 5.23812C22.7858 5.51748 23.1608 5.91069 23.4108 6.41774C23.6608 6.92479 23.6608 7.43952 23.4108 7.96194C23.1608 8.48435 22.7772 8.8601 22.2601 9.08918C21.7429 9.31826 21.2158 9.32664 20.6786 9.11432C19.8929 8.80003 19.2501 8.59889 18.7501 8.51089C18.2501 8.42289 17.7143 8.37959 17.1429 8.38099C14.7858 8.38099 12.7679 9.20162 11.0893 10.8429C9.41075 12.4842 8.57146 14.4572 8.57146 16.762V31.4287H25.7144V27.2382C25.7144 26.5398 25.9379 26.016 26.3851 25.6668C26.8322 25.3175 27.323 25.1429 27.8572 25.1429C28.3915 25.1429 28.883 25.3175 29.3315 25.6668C29.7801 26.016 30.003 26.5398 30.0001 27.2382V31.4287H32.143C32.7501 31.4287 33.2594 31.6298 33.6708 32.0321C34.0823 32.4344 34.2873 32.9317 34.2858 33.5239C34.2844 34.1162 34.0787 34.6142 33.6687 35.0178C33.2587 35.4215 32.7501 35.622 32.143 35.6192H2.14287Z" fill="#0071E3"/>
<path fill-rule="evenodd" clip-rule="evenodd" d="M30.9339 9.37189C27.6938 9.37189 25.0672 11.9985 25.0672 15.2386C25.0672 18.4787 27.6938 21.1053 30.9339 21.1053C34.174 21.1053 36.8006 18.4787 36.8006 15.2386C36.8006 11.9985 34.174 9.37189 30.9339 9.37189ZM21.8672 15.2386C21.8672 10.2312 25.9265 6.17188 30.9339 6.17188C35.9413 6.17188 40.0006 10.2312 40.0006 15.2386C40.0006 20.246 35.9413 24.3053 30.9339 24.3053C25.9265 24.3053 21.8672 20.246 21.8672 15.2386Z" fill="#0071E3"/>
<path fill-rule="evenodd" clip-rule="evenodd" d="M30.1057 10.8535C30.6948 10.8535 31.1724 11.3311 31.1724 11.9202V15.0017H34.2539C34.843 15.0017 35.3206 15.4792 35.3206 16.0683C35.3206 16.6575 34.843 17.135 34.2539 17.135H30.1057C29.5166 17.135 29.0391 16.6575 29.0391 16.0683V11.9202C29.0391 11.3311 29.5166 10.8535 30.1057 10.8535Z" fill="#0071E3"/>
</svg>
