<svg width="90" height="44" viewBox="0 0 90 44" fill="none" xmlns="http://www.w3.org/2000/svg">
<path d="M39.4453 40.538V43.038H2.62988V40.538H39.4453ZM39.5751 40.4081V37.7783C39.575 36.9479 39.1788 36.0356 38.08 35.0214C36.9639 33.9914 35.298 33.0333 33.2597 32.2168C29.1791 30.5821 24.2352 29.7597 21.0371 29.7597C17.8389 29.7598 12.8958 30.5821 8.81542 32.2168C6.77714 33.0333 5.11121 33.9913 3.99511 35.0214C2.89633 36.0356 2.5001 36.9479 2.5 37.7783V40.4081C2.5 40.436 2.50895 40.4669 2.54004 40.498C2.57111 40.5291 2.602 40.538 2.62988 40.538V43.038L2.36132 43.0244C1.12778 42.8979 0.139758 41.9094 0.0136719 40.6757L0 40.4081V37.7783C0.00041785 30.7836 14.0158 27.2599 21.0371 27.2597L21.7158 27.2705C28.9212 27.4838 42.0747 31.0021 42.0751 37.7783V40.4081L42.0615 40.6757C41.9264 41.9977 40.8013 43.038 39.4453 43.038V40.538C39.4731 40.538 39.504 40.5291 39.5351 40.498C39.5662 40.4669 39.5751 40.436 39.5751 40.4081ZM29.0566 11.4814C29.0565 7.05063 25.4679 3.46289 21.0371 3.46289C16.6065 3.46313 13.0187 7.05078 13.0185 11.4814C13.0185 15.9122 16.6064 19.4997 21.0371 19.5V22L20.4961 21.9863C15.1158 21.7138 10.8048 17.4037 10.5322 12.0234L10.5185 11.4814C10.5187 5.67007 15.2257 0.963138 21.0371 0.962891L21.5791 0.976562C27.1387 1.25817 31.5565 5.85154 31.5566 11.4814L31.5429 12.0234C31.2612 17.583 26.667 22 21.0371 22V19.5C25.468 19.5 29.0566 15.9123 29.0566 11.4814Z" fill="#0071E3"/>
<rect x="48.6547" y="2.31485" width="39.3703" height="9.3703" rx="4.68515" stroke="#0071E3" stroke-width="2.6297"/>
<rect x="48.6547" y="16.3148" width="21.3703" height="10.3703" rx="5.18515" stroke="#0071E3" stroke-width="2.6297"/>
<rect x="48.6547" y="31.3148" width="28.3703" height="10.3703" rx="5.18515" stroke="#0071E3" stroke-width="2.6297"/>
</svg>
