<svg width="42" height="42" viewBox="0 0 42 42" fill="none" xmlns="http://www.w3.org/2000/svg">
<path d="M39.1289 16.4883H34.5352V3.69141C34.5352 1.65596 32.8792 0 30.8438 0H11.1562C9.12081 0 7.46484 1.65596 7.46484 3.69141V10.7461H2.87109C1.28543 10.7461 0 12.0315 0 13.6172V19.3594C0 20.945 1.28543 22.2305 2.87109 22.2305H7.46484V38.3086C7.46484 40.344 9.12081 42 11.1562 42H30.8438C32.8792 42 34.5352 40.344 34.5352 38.3086V27.9727H39.1289C40.7146 27.9727 42 26.6872 42 25.1016V19.3594C42 17.7737 40.7146 16.4883 39.1289 16.4883ZM23.5256 2.46094L22.9103 4.92188H19.0896L18.4743 2.46094H23.5256ZM2.87109 19.7695C2.64461 19.7695 2.46094 19.5859 2.46094 19.3594V13.6172C2.46094 13.3907 2.64461 13.207 2.87109 13.207H16.4062C16.6327 13.207 16.8164 13.3907 16.8164 13.6172V19.3594C16.8164 19.5859 16.6327 19.7695 16.4062 19.7695H15.1758C14.4962 19.7695 13.9453 20.3205 13.9453 21V21.3107L12.7646 20.1299C12.5339 19.8991 12.2209 19.7695 11.8945 19.7695H2.87109ZM32.0742 38.3086C32.0742 38.9871 31.5222 39.5391 30.8438 39.5391H11.1562C10.4778 39.5391 9.92578 38.9871 9.92578 38.3086V37.0781H32.0742V38.3086ZM32.0742 34.6172H9.92578V22.2305H11.3849L14.3058 25.1513C15.0809 25.9265 16.4062 25.3774 16.4062 24.2812V22.2305C17.9894 22.2305 19.2773 20.9425 19.2773 19.3594V13.6172C19.2773 12.0315 17.9919 10.7461 16.4062 10.7461H9.92578V3.69141C9.92578 3.01293 10.4778 2.46094 11.1562 2.46094H15.9377L16.9351 6.45077C17.0721 6.9985 17.5643 7.38281 18.1289 7.38281H23.8711C24.4357 7.38281 24.9279 6.9985 25.0648 6.45077L26.0623 2.46094H30.8438C31.5222 2.46094 32.0742 3.01293 32.0742 3.69141V16.4883H25.5938C24.0081 16.4883 22.7227 17.7737 22.7227 19.3594V25.1016C22.7227 26.6847 24.0106 27.9727 25.5938 27.9727V30.0234C25.5938 31.1197 26.9191 31.6687 27.6943 30.8935L30.6151 27.9727H32.0742V34.6172ZM39.5391 25.1016C39.5391 25.3281 39.3554 25.5117 39.1289 25.5117H30.1055C29.7791 25.5117 29.4661 25.6413 29.2354 25.8722L28.0547 27.0528V26.7422C28.0547 26.0626 27.5038 25.5117 26.8242 25.5117H25.5938C25.3673 25.5117 25.1836 25.3281 25.1836 25.1016V19.3594C25.1836 19.1329 25.3673 18.9492 25.5938 18.9492H39.1289C39.3554 18.9492 39.5391 19.1329 39.5391 19.3594V25.1016Z" fill="#0071E3"/>
</svg>
