<svg width="38" height="42" viewBox="0 0 38 42" fill="none" xmlns="http://www.w3.org/2000/svg">
<path d="M16.6565 41.6413C15.5114 41.6413 14.5314 41.2339 13.7166 40.4191C12.9019 39.6043 12.4938 38.6237 12.4924 37.4771H20.8206C20.8206 38.6223 20.4132 39.6029 19.5985 40.4191C18.7837 41.2353 17.803 41.6426 16.6565 41.6413ZM2.08207 35.3951C1.49215 35.3951 0.99801 35.1952 0.599642 34.7954C0.201273 34.3957 0.00139522 33.9015 7.17952e-06 33.313C-0.00138086 32.7245 0.198497 32.2303 0.599642 31.8306C1.00079 31.4308 1.49493 31.2309 2.08207 31.2309H4.16413V16.6565C4.16413 13.7763 5.03166 11.2175 6.76671 8.97994C8.50176 6.74242 10.7573 5.27595 13.5334 4.58054V3.1231C13.5334 2.25557 13.8374 1.51852 14.4454 0.911948C15.0533 0.305374 15.7904 0.00139277 16.6565 4.73196e-06C17.5226 -0.00138331 18.2604 0.302598 18.8697 0.911948C19.4791 1.5213 19.7824 2.25835 19.7796 3.1231V4.58054C20.1266 4.64994 20.4563 4.72837 20.7686 4.81582C21.0809 4.90326 21.3759 5.03304 21.6535 5.20516C22.1393 5.48277 22.5036 5.8735 22.7465 6.37736C22.9895 6.88122 22.9895 7.39272 22.7465 7.91184C22.5036 8.43097 22.1309 8.80435 21.6285 9.03199C21.126 9.25963 20.6138 9.26796 20.0919 9.05698C19.3285 8.74467 18.7039 8.54479 18.2181 8.45734C17.7322 8.3699 17.2117 8.32687 16.6565 8.32826C14.3662 8.32826 12.4056 9.14373 10.7747 10.7747C9.14373 12.4056 8.32826 14.3662 8.32826 16.6565V31.2309H24.9848V27.0668C24.9848 26.3728 25.202 25.8523 25.6364 25.5053C26.0709 25.1583 26.5477 24.9848 27.0668 24.9848C27.586 24.9848 28.0634 25.1583 28.4993 25.5053C28.9351 25.8523 29.1517 26.3728 29.1489 27.0668V31.2309H31.2309C31.8209 31.2309 32.3157 31.4308 32.7155 31.8306C33.1152 32.2303 33.3144 32.7245 33.313 33.313C33.3116 33.9015 33.1117 34.3964 32.7134 34.7975C32.315 35.1987 31.8209 35.3978 31.2309 35.3951H2.08207Z" fill="#0071E3"/>
<path fill-rule="evenodd" clip-rule="evenodd" d="M32.0067 9.60941C29.655 8.66872 26.8241 9.22131 25.2066 11.0029L25.2064 11.0032C24.4031 11.8875 23.8993 13.0027 23.7667 14.19C23.6341 15.3772 23.8795 16.5761 24.4679 17.6158C25.0563 18.6556 25.9577 19.4832 27.0438 19.9808C28.1299 20.4784 29.3453 20.6207 30.517 20.3873L30.5174 20.3873C32.8353 19.9263 34.6319 17.8005 35.114 15.39C35.2717 14.6017 36.0385 14.0904 36.8269 14.2481C37.6152 14.4057 38.1264 15.1726 37.9688 15.9609C37.3097 19.2561 34.8043 22.5029 31.0856 23.2426C29.3131 23.5956 27.4743 23.3803 25.8312 22.6275C24.188 21.8747 22.8243 20.6227 21.9341 19.0497C21.044 17.4767 20.6728 15.663 20.8734 13.8668C21.074 12.0707 21.8361 10.3837 23.0512 9.04592M23.0514 9.04565C25.5741 6.26733 29.7339 5.56472 33.0879 6.90633C33.8344 7.2049 34.1974 8.05205 33.8988 8.79849C33.6003 9.54492 32.7531 9.90799 32.0067 9.60941" fill="#0071E3"/>
<path fill-rule="evenodd" clip-rule="evenodd" d="M37.5297 8.90069C38.1204 9.44598 38.1572 10.3669 37.6119 10.9577L30.7649 18.3752C30.4962 18.6663 30.1205 18.8354 29.7244 18.8433C29.3283 18.8512 28.9461 18.6973 28.666 18.4172L25.8131 15.5643C25.2446 14.9958 25.2446 14.0742 25.8131 13.5057C26.3815 12.9372 27.3032 12.9372 27.8717 13.5057L29.6533 15.2873L35.4727 8.98297C36.018 8.39223 36.9389 8.3554 37.5297 8.90069Z" fill="#0071E3"/>
</svg>
