<svg width="52" height="42" viewBox="0 0 52 42" fill="none" xmlns="http://www.w3.org/2000/svg">
<path fill-rule="evenodd" clip-rule="evenodd" d="M43.569 21.8449C43.5376 21.8449 43.5074 21.8574 43.4851 21.8796C43.4628 21.9019 43.4503 21.9321 43.4503 21.9636V22.0823H43.6878V21.9636C43.6878 21.9321 43.6753 21.9019 43.653 21.8796C43.6307 21.8574 43.6005 21.8449 43.569 21.8449ZM42.1419 20.5364C42.5204 20.158 43.0338 19.9453 43.569 19.9453C44.1043 19.9453 44.6177 20.158 44.9962 20.5364C45.3747 20.9149 45.5873 21.4283 45.5873 21.9636V23.9818H41.5508V21.9636C41.5508 21.4283 41.7634 20.9149 42.1419 20.5364Z" fill="#0071E3"/>
<path fill-rule="evenodd" clip-rule="evenodd" d="M39.1203 22.8566C40.3003 21.6766 41.9008 21.0137 43.5696 21.0137C45.2384 21.0137 46.8388 21.6766 48.0189 22.8566C49.1989 24.0366 49.8618 25.6371 49.8618 27.3059V34.6666H37.2773V27.3059C37.2773 25.6371 37.9403 24.0366 39.1203 22.8566ZM43.5696 23.9817C42.6879 23.9817 41.8424 24.3319 41.219 24.9553C40.5956 25.5788 40.2454 26.4243 40.2454 27.3059V31.6986H46.8938V27.3059C46.8938 26.4243 46.5436 25.5788 45.9201 24.9553C45.2967 24.3319 44.4512 23.9817 43.5696 23.9817Z" fill="#0071E3"/>
<path fill-rule="evenodd" clip-rule="evenodd" d="M35.5524 32.111C35.8823 31.781 36.3002 31.6992 36.6246 31.6992H50.5151C50.8395 31.6992 51.2574 31.781 51.5873 32.111C51.9173 32.4409 51.9991 32.8588 51.9991 33.1832C51.9991 33.5077 51.9173 33.9255 51.5873 34.2555C51.2574 34.5855 50.8395 34.6673 50.5151 34.6673H45.5881V34.786C45.5881 35.3213 45.3755 35.8346 44.997 36.2131C44.6185 36.5916 44.1051 36.8042 43.5698 36.8042C43.0346 36.8042 42.5212 36.5916 42.1427 36.2131C41.7642 35.8346 41.5516 35.3213 41.5516 34.786V34.6673H36.6246C36.3002 34.6673 35.8823 34.5855 35.5524 34.2555C35.2224 33.9255 35.1406 33.5077 35.1406 33.1832C35.1406 32.8588 35.2224 32.4409 35.5524 32.111Z" fill="#0071E3"/>
<path fill-rule="evenodd" clip-rule="evenodd" d="M0 9.49772C0 4.25227 4.25227 0 9.49772 0H36.0913C41.3368 0 45.589 4.25227 45.589 9.49772V17.0959C45.589 18.145 44.7386 18.9954 43.6895 18.9954C42.6404 18.9954 41.79 18.145 41.79 17.0959V9.49772C41.79 6.35045 39.2386 3.79909 36.0913 3.79909H9.49772C6.35045 3.79909 3.79909 6.35045 3.79909 9.49772V24.6941C3.79909 27.8413 6.35045 30.3927 9.49772 30.3927H32.2922C33.3413 30.3927 34.1918 31.2431 34.1918 32.2922C34.1918 33.3413 33.3413 34.1918 32.2922 34.1918H9.49772C4.25227 34.1918 0 29.9395 0 24.6941V9.49772Z" fill="#0071E3"/>
<path fill-rule="evenodd" clip-rule="evenodd" d="M17.0949 39.8902V32.292H28.4922V39.8902H17.0949Z" fill="#0071E3"/>
<path fill-rule="evenodd" clip-rule="evenodd" d="M10.4492 40.8404C10.4492 40.3159 10.8744 39.8906 11.399 39.8906H34.1935C34.7181 39.8906 35.1433 40.3159 35.1433 40.8404C35.1433 41.3649 34.7181 41.7902 34.1935 41.7902H11.399C10.8744 41.7902 10.4492 41.3649 10.4492 40.8404Z" fill="#0071E3"/>
<path fill-rule="evenodd" clip-rule="evenodd" d="M8.54688 8.5484C8.54688 8.02386 8.9721 7.59863 9.49665 7.59863H36.0903C36.6148 7.59863 37.04 8.02386 37.04 8.5484C37.04 9.07295 36.6148 9.49818 36.0903 9.49818H9.49665C8.9721 9.49818 8.54688 9.07295 8.54688 8.5484Z" fill="#0071E3"/>
<path fill-rule="evenodd" clip-rule="evenodd" d="M8.54688 14.2466C8.54688 13.7221 8.9721 13.2969 9.49665 13.2969H36.0903C36.6148 13.2969 37.04 13.7221 37.04 14.2466C37.04 14.7712 36.6148 15.1964 36.0903 15.1964H9.49665C8.9721 15.1964 8.54688 14.7712 8.54688 14.2466Z" fill="#0071E3"/>
<path fill-rule="evenodd" clip-rule="evenodd" d="M8.54688 19.9449C8.54688 19.4203 8.9721 18.9951 9.49665 18.9951H36.0903C36.6148 18.9951 37.04 19.4203 37.04 19.9449C37.04 20.4694 36.6148 20.8947 36.0903 20.8947H9.49665C8.9721 20.8947 8.54688 20.4694 8.54688 19.9449Z" fill="#0071E3"/>
<path fill-rule="evenodd" clip-rule="evenodd" d="M8.54688 25.6441C8.54688 25.1196 8.9721 24.6943 9.49665 24.6943H28.4921C29.0166 24.6943 29.4419 25.1196 29.4419 25.6441C29.4419 26.1687 29.0166 26.5939 28.4921 26.5939H9.49665C8.9721 26.5939 8.54688 26.1687 8.54688 25.6441Z" fill="#0071E3"/>
</svg>
