<svg width="49" height="42" viewBox="0 0 49 42" fill="none" xmlns="http://www.w3.org/2000/svg">
<path d="M45.1484 36.9029C45.1484 38.6609 43.7174 40.0919 41.9595 40.0919C40.6862 40.0919 39.581 39.3398 39.0709 38.2507C38.9422 37.9758 38.6902 37.7786 38.3925 37.7196C38.0947 37.6606 37.7866 37.7467 37.5627 37.9517C36.5745 38.8565 35.283 39.3585 33.895 39.3585H33.7697C32.3313 39.3585 30.9949 38.8207 29.9944 37.8522L29.9944 37.8521C29.9738 37.8321 29.9509 37.8081 29.913 37.768C29.5559 37.3902 28.962 37.3679 28.5775 37.7178C27.4564 38.738 25.9699 39.3585 24.3403 39.3585C22.9772 39.3585 21.7148 38.9223 20.6813 38.1822C20.2882 37.9007 19.7466 37.9578 19.4208 38.3151C18.8349 38.9578 17.9952 39.3585 17.0661 39.3585H17.0657L16.985 39.3573C16.1534 39.335 15.3881 39.0045 14.8053 38.4187L14.8048 38.4182C14.2216 37.8328 13.8956 37.0659 13.878 36.2418L13.8772 36.1619V36.1615L13.8908 30.5219C13.8912 30.3474 13.8438 30.1764 13.7541 30.0274L13.7356 29.9979L10.1114 24.4484C9.76013 23.9098 9.59362 23.3038 9.59443 22.7021C9.59512 22.1887 9.18952 21.7669 8.67658 21.7474C6.97627 21.6828 5.61089 20.2776 5.61088 18.5618V9.21737C5.61088 8.72943 5.24273 8.32014 4.75752 8.26863C3.15854 8.09888 1.90811 6.7394 1.9081 5.09713C1.9081 3.33914 3.33912 1.9081 5.09699 1.9081H12.5327C14.2897 1.9081 15.7216 3.33928 15.7216 5.09713C15.7216 5.56546 15.6196 6.01017 15.4383 6.40958C15.2961 6.72281 15.3335 7.08837 15.5362 7.36629C15.8028 7.73179 15.9927 8.15453 16.084 8.61117L16.0913 8.64443C16.1725 8.98637 16.4357 9.25712 16.7774 9.34678C17.6146 9.56646 18.3448 9.984 18.942 10.5833C18.9921 10.6344 19.0446 10.6908 19.1015 10.7535L19.1179 10.7711C19.4661 11.1361 20.0406 11.1673 20.4267 10.8383C21.4747 9.94517 22.8277 9.40597 24.306 9.40597C24.5817 9.40597 24.8563 9.42482 25.1271 9.46292L25.1632 9.46725C25.3438 9.48567 25.5261 9.45227 25.6887 9.37054L25.7293 9.35041C26.1506 9.14597 26.6184 9.0331 27.1036 9.0331C27.6982 9.0331 28.253 9.19678 28.7297 9.4813L28.7575 9.4973C29.0467 9.65702 29.399 9.65605 29.6879 9.49282L29.7313 9.46872C30.182 9.22335 30.6973 9.08376 31.2467 9.08376C31.555 9.08376 31.858 9.12845 32.149 9.21401L32.1761 9.22156C32.3124 9.25729 32.455 9.26241 32.5937 9.23644C32.9196 9.17543 33.2503 9.14392 33.5823 9.14392C34.2152 9.14392 34.8182 9.2486 35.3719 9.44587L35.3969 9.45439C35.6558 9.53868 35.939 9.5083 36.1747 9.37012C36.4179 9.22749 36.5856 8.98457 36.6327 8.70655C36.8879 7.20096 38.2028 6.05119 39.7761 6.05118C41.2331 6.05118 42.469 7.03553 42.8464 8.3768L42.8571 8.4123C42.9748 8.77592 43.2992 9.03564 43.6823 9.06887C44.5378 9.14305 45.3242 9.55506 45.8743 10.2282H45.8744L45.9242 10.2906C46.4297 10.9406 46.6611 11.7421 46.5784 12.5655L46.5704 12.6367C46.4803 13.3703 46.1475 14.033 45.6201 14.5402C45.4362 14.7171 45.3308 14.9604 45.3275 15.2156C45.3243 15.4709 45.4235 15.7168 45.6029 15.8984L46.0203 16.3209L46.0208 16.3214L46.0762 16.3788C46.6403 16.9772 46.9457 17.7531 46.9403 18.5805V18.5813C46.9354 19.4342 46.6003 20.2299 45.9931 20.83L45.9924 20.8306C45.8444 20.9771 45.6845 21.1068 45.5135 21.2213C45.2024 21.4297 45.0419 21.8008 45.1032 22.1702C45.1326 22.3471 45.1484 22.5258 45.1484 22.7049V24.3934C45.1484 24.9203 45.5755 25.3474 46.1024 25.3474C46.6293 25.3474 47.0565 24.9203 47.0565 24.3934V22.7049C47.0565 22.6186 47.0542 22.533 47.0498 22.4482C47.1474 22.3653 47.2425 22.2781 47.335 22.1866H47.3349C48.3015 21.2311 48.8404 19.9517 48.8484 18.5929V18.5293C48.8413 17.287 48.3898 16.1098 47.5707 15.1861C48.063 14.4907 48.3741 13.6793 48.4709 12.8134L48.4769 12.7567V12.7565L48.4829 12.693C48.6003 11.3612 48.1985 10.0566 47.3517 9.02066L47.3518 9.02059C46.6104 8.11347 45.5952 7.50095 44.4733 7.26147C43.7002 5.43176 41.8881 4.14301 39.7761 4.14301C37.6207 4.14302 35.7776 5.48623 35.0326 7.37796C34.5613 7.28366 34.0759 7.23576 33.5823 7.23576C33.2049 7.23576 32.831 7.26576 32.4632 7.32317C32.0688 7.22635 31.661 7.17566 31.2467 7.17566C30.532 7.17566 29.8501 7.32432 29.2315 7.59193C28.5837 7.29283 27.8626 7.125 27.1036 7.125C26.4005 7.125 25.7226 7.27218 25.1046 7.53847C24.8387 7.51128 24.572 7.4978 24.306 7.4978C22.6672 7.49781 21.1446 8.00119 19.883 8.85742C19.268 8.33601 18.5691 7.93716 17.8064 7.6683C17.6955 7.32647 17.5495 7.00048 17.3727 6.69469C17.5391 6.19173 17.6297 5.65398 17.6297 5.09713C17.6297 2.28518 15.3433 3.8147e-06 12.5327 0H5.09699C2.28526 7.62939e-06 0 2.28532 0 5.09713C1.35447e-05 7.42563 1.56697 9.39259 3.70271 10.0006V18.5618C3.70272 21.0161 5.44453 23.068 7.75635 23.5505C7.86871 24.2232 8.11773 24.8846 8.51355 25.4913L8.51376 25.4917L11.982 30.8026L11.9691 36.1569V36.157C11.9654 37.5171 12.493 38.8012 13.4529 39.7649C14.4131 40.7298 15.6945 41.2629 17.0604 41.2666H17.0661C18.2613 41.2666 19.3623 40.8516 20.2314 40.1608C21.4401 40.8627 22.8445 41.2666 24.3403 41.2666C26.1514 41.2666 27.8286 40.6769 29.1873 39.6805C30.4774 40.7099 32.0825 41.2666 33.7697 41.2666H33.895C35.364 41.2666 36.7687 40.844 37.9584 40.0565C38.891 41.2381 40.3365 42 41.9595 42C44.7712 42 47.0565 39.7147 47.0565 36.9029C47.0565 36.1666 46.8986 35.4654 46.6155 34.8318C46.8538 34.2991 47.0034 33.7179 47.0447 33.1075L47.0494 33.0301L47.0504 33.0055C47.0644 32.49 46.6646 32.0544 46.1466 32.0272C45.6287 32.0001 45.1855 32.3913 45.1454 32.9055L45.1438 32.93L45.141 32.9784C45.1072 33.477 44.9583 33.9428 44.7205 34.3517C44.5481 34.648 44.5479 35.0141 44.7201 35.3106C44.9925 35.7796 45.1484 36.3224 45.1484 36.9029Z" fill="#0071E3"/>
<path d="M47.0566 28.6866C47.0566 29.2134 46.6294 29.6406 46.1025 29.6406C45.5757 29.6406 45.1484 29.2134 45.1484 28.6866C45.1484 28.1596 45.5757 27.7325 46.1025 27.7325C46.6294 27.7325 47.0566 28.1596 47.0566 28.6866Z" fill="#0071E3"/>
<path d="M13.5811 22.1836C13.2931 21.7424 12.7018 21.6183 12.2607 21.9064C11.8195 22.1945 11.6954 22.7856 11.9834 23.2268L13.5811 22.1836ZM17.0839 30.2461C17.4064 30.2459 17.7069 30.0828 17.8829 29.8126L22.1484 23.2598L22.1616 23.239C22.4319 22.7998 22.304 22.2227 21.8693 21.9397C21.4346 21.6568 20.8551 21.7734 20.5629 22.1983L20.5492 22.2188L17.082 27.5452L13.5811 22.1836L11.9834 23.2268L16.2844 29.8137L16.3013 29.8386C16.4795 30.0937 16.7715 30.2463 17.0839 30.2461Z" fill="#0071E3"/>
<path d="M17.065 37.123C17.5837 37.1243 18.0067 36.7115 18.021 36.196L18.0214 36.1713L18.0382 29.2933L18.0379 29.2687C18.0261 28.7532 17.6052 28.3382 17.0865 28.3369C16.5596 28.3356 16.1314 28.7617 16.1301 29.2886L16.1133 36.1667L16.1135 36.1913C16.1253 36.7069 16.5463 37.1218 17.065 37.123Z" fill="#0071E3"/>
<path d="M35.1124 29.8509V34.0968C35.1124 34.7114 34.6269 35.215 33.8952 35.215H33.7698C33.0382 35.2149 32.5526 34.7114 32.5526 34.0968V29.8509C32.5526 29.324 32.1255 28.8968 31.5986 28.8968C31.0717 28.8968 30.6445 29.324 30.6445 29.8509V34.0968C30.6445 35.8803 32.1032 37.123 33.7698 37.123H33.8952C35.5619 37.123 37.0206 35.8803 37.0206 34.0968V29.8509C37.0206 29.324 36.5934 28.8968 36.0665 28.8968C35.5396 28.8968 35.1124 29.324 35.1124 29.8509Z" fill="#0071E3"/>
<path d="M26.4999 33.0539C26.4999 34.2473 25.5322 35.215 24.3387 35.215C23.1452 35.2149 22.1776 34.2473 22.1776 33.0539C22.1776 31.8603 23.1452 30.8927 24.3387 30.8927C25.5322 30.8927 26.4999 31.8603 26.4999 33.0539ZM28.408 33.0539C28.408 30.8065 26.5861 28.9845 24.3387 28.9845C22.0913 28.9846 20.2695 30.8065 20.2695 33.0539C20.2696 35.3011 22.0913 37.123 24.3387 37.123C26.5861 37.123 28.408 35.3012 28.408 33.0539Z" fill="#0071E3"/>
<path d="M12.5306 6.05078L12.5552 6.0505C13.0708 6.03744 13.4847 5.61542 13.4847 5.09673C13.4847 4.57804 13.0708 4.15602 12.5552 4.14296L12.5306 4.14268H5.09467C4.56775 4.14268 4.14062 4.56981 4.14062 5.09673C4.14062 5.62365 4.56775 6.05078 5.09467 6.05078H12.5306Z" fill="#0071E3"/>
<path d="M7.84375 5.52683V18.5616C7.84375 19.0885 8.27088 19.5156 8.7978 19.5156C9.32472 19.5156 9.75185 19.0885 9.75185 18.5616V5.52683C9.75183 4.99992 9.32471 4.57278 8.7978 4.57278C8.27089 4.57278 7.84377 4.99992 7.84375 5.52683Z" fill="#0071E3"/>
<path d="M30.293 12.272V18.5616C30.293 19.0885 30.7201 19.5156 31.247 19.5156C31.7739 19.5156 32.2011 19.0885 32.2011 18.5616V12.272C32.2011 11.7451 31.7739 11.318 31.247 11.318C30.7201 11.318 30.293 11.7451 30.293 12.272Z" fill="#0071E3"/>
<path d="M34.6759 18.5323C34.6759 19.0592 35.1031 19.4863 35.63 19.4863C36.1569 19.4863 36.5841 19.0592 36.5841 18.5323V15.4245C36.6138 14.268 36.4237 13.263 35.9018 12.5227C35.3384 11.7233 34.4948 11.3791 33.5821 11.379C32.6217 11.379 31.7617 11.8079 31.166 12.5788C30.5843 13.3315 30.293 14.3539 30.293 15.5265C30.293 16.0534 30.7201 16.4806 31.247 16.4806C31.7739 16.4806 32.2011 16.0534 32.2011 15.5265C32.2011 14.6521 32.4191 14.0777 32.6758 13.7455C32.9185 13.4315 33.2261 13.2871 33.5821 13.2871C33.9859 13.2872 34.1959 13.4146 34.3421 13.622C34.5213 13.8762 34.6923 14.3816 34.6783 15.3005L34.6763 15.3908C34.6761 15.3996 34.6759 15.4084 34.6759 15.4172V18.5323Z" fill="#0071E3"/>
<path d="M43.0918 19.2494C43.4635 19.607 44.0545 19.6048 44.4235 19.2402C44.7983 18.8699 44.8019 18.2657 44.4315 17.8909L41.5611 14.9862L44.01 12.9847L44.0289 12.9689C44.4198 12.6326 44.4733 12.0438 44.145 11.6422C43.8168 11.2406 43.2293 11.1758 42.8218 11.4919L42.8025 11.5072L39.5417 14.1722C39.3337 14.3422 39.207 14.592 39.1928 14.8602C39.1785 15.1285 39.278 15.3904 39.4668 15.5815L43.0743 19.2322L43.0918 19.2494Z" fill="#0071E3"/>
<path d="M38.8203 9.23944V18.5342C38.8203 19.0612 39.2474 19.4883 39.7744 19.4883C40.3013 19.4883 40.7284 19.0612 40.7284 18.5342V9.23944C40.7284 8.71254 40.3013 8.28539 39.7744 8.28539C39.2475 8.28539 38.8203 8.71254 38.8203 9.23944Z" fill="#0071E3"/>
<path d="M17.3696 19.5156C17.8965 19.5137 18.3221 19.085 18.3201 18.5581L18.3083 15.3583C18.3136 14.1693 18.1329 13.1632 17.6012 12.4431C17.0159 11.6505 16.1611 11.3985 15.309 11.3985C13.2687 11.3985 12.0039 13.237 12.0039 15.3618C12.0039 15.8887 12.431 16.3159 12.958 16.3159C13.4849 16.3159 13.912 15.8887 13.912 15.3618C13.912 13.8745 14.6955 13.3067 15.309 13.3067C15.7838 13.3067 15.9575 13.4294 16.0661 13.5765C16.222 13.7876 16.3946 14.2591 16.4002 15.2584V15.3653L16.412 18.5651L16.4124 18.5897C16.4274 19.1052 16.8509 19.5175 17.3696 19.5156Z" fill="#0071E3"/>
<path d="M12.0039 9.23981V18.5616C12.0039 19.0885 12.431 19.5156 12.958 19.5156C13.4849 19.5156 13.912 19.0885 13.912 18.5616V9.23981C13.912 8.7129 13.4849 8.28576 12.958 8.28576C12.431 8.28576 12.0039 8.7129 12.0039 9.23981Z" fill="#0071E3"/>
<path d="M26.1501 15.3928C26.1501 16.411 25.3247 17.2364 24.3065 17.2364C23.2882 17.2364 22.4628 16.411 22.4628 15.3928C22.4628 14.3745 23.2882 13.5491 24.3065 13.5491C25.3247 13.5491 26.1501 14.3746 26.1501 15.3928ZM28.0582 15.3928C28.0582 13.3207 26.3785 11.641 24.3065 11.641C22.2343 11.641 20.5547 13.3207 20.5547 15.3928C20.5547 17.4648 22.2343 19.1445 24.3065 19.1445C26.3785 19.1445 28.0582 17.4648 28.0582 15.3928Z" fill="#0071E3"/>
<path d="M26.1484 12.2222V18.5616C26.1484 19.0885 26.5756 19.5156 27.1025 19.5156C27.6294 19.5156 28.0565 19.0885 28.0565 18.5616V12.2222C28.0565 11.6953 27.6294 11.2682 27.1025 11.2682C26.5756 11.2682 26.1485 11.6953 26.1484 12.2222Z" fill="#0071E3"/>
<path d="M42.9934 36.9037C42.9934 37.4758 42.5297 37.9395 41.9576 37.9395C41.3856 37.9395 40.9219 37.4758 40.9219 36.9037C40.9219 36.3317 41.3856 35.8681 41.9576 35.8681C42.5297 35.8681 42.9934 36.3317 42.9934 36.9037Z" fill="#0071E3"/>
<path d="M41.0039 22.7052V32.7608C41.0039 33.2877 41.431 33.7148 41.958 33.7148C42.4767 33.7148 42.8987 33.3009 42.9117 32.7854L42.912 32.7608V22.7052L42.9117 22.6806C42.8987 22.1651 42.4766 21.7512 41.958 21.7512C41.4393 21.7512 41.0172 22.1651 41.0042 22.6806L41.0039 22.7052Z" fill="#0071E3"/>
</svg>
