<svg width="48" height="42" viewBox="0 0 48 42" fill="none" xmlns="http://www.w3.org/2000/svg">
<path fill-rule="evenodd" clip-rule="evenodd" d="M38.2275 25.0116C38.156 25.0116 38.0874 25.04 38.0369 25.0906C37.9863 25.1411 37.9579 25.2097 37.9579 25.2812V25.5509H38.4972V25.2812C38.4972 25.2097 38.4688 25.1411 38.4182 25.0906C38.3676 25.04 38.2991 25.0116 38.2275 25.0116ZM36.7021 23.7559C37.1067 23.3513 37.6554 23.124 38.2275 23.124C38.7997 23.124 39.3484 23.3513 39.7529 23.7559C40.1575 24.1604 40.3848 24.7091 40.3848 25.2812V27.4385H36.0703V25.2812C36.0703 24.7091 36.2976 24.1604 36.7021 23.7559Z" fill="#0071E3"/>
<path fill-rule="evenodd" clip-rule="evenodd" d="M33.2683 26.3904C34.5831 25.0756 36.3664 24.3369 38.2258 24.3369C40.0853 24.3369 41.8685 25.0756 43.1833 26.3904C44.4982 27.7052 45.2368 29.4885 45.2368 31.3479V39.5723H31.2148V31.3479C31.2148 29.4885 31.9535 27.7052 33.2683 26.3904ZM38.2258 27.4379C37.1888 27.4379 36.1943 27.8499 35.4611 28.5831C34.7278 29.3164 34.3159 30.3109 34.3159 31.3479V36.4713H42.1358V31.3479C42.1358 30.3109 41.7239 29.3164 40.9906 28.5831C40.2573 27.8499 39.2628 27.4379 38.2258 27.4379Z" fill="#0071E3"/>
<path fill-rule="evenodd" clip-rule="evenodd" d="M29.2172 36.8998C29.5577 36.5592 29.9918 36.4717 30.3396 36.4717H46.1143C46.462 36.4717 46.8961 36.5592 47.2367 36.8998C47.5772 37.2403 47.6648 37.6745 47.6648 38.0222C47.6648 38.3699 47.5772 38.804 47.2367 39.1446C46.8961 39.4851 46.462 39.5727 46.1143 39.5727H40.3841V39.8423C40.3841 40.4145 40.1569 40.9632 39.7523 41.3677C39.3478 41.7723 38.7991 41.9996 38.2269 41.9996C37.6548 41.9996 37.1061 41.7723 36.7015 41.3677C36.297 40.9632 36.0697 40.4145 36.0697 39.8423V39.5727H30.3396C29.9918 39.5727 29.5577 39.4851 29.2172 39.1446C28.8766 38.804 28.7891 38.3699 28.7891 38.0222C28.7891 37.6745 28.8766 37.2403 29.2172 36.8998Z" fill="#0071E3"/>
<path fill-rule="evenodd" clip-rule="evenodd" d="M11.8895 8.44233e-05L7.80866 8.41983e-05C6.56796 0.000824839 5.36166 0.41284 4.38006 1.17166C3.39846 1.93047 2.69609 2.99328 2.38282 4.19378L0.191178 12.5978C-0.311747 14.5261 0.213089 16.2042 1.34937 17.3982C1.5823 17.6429 1.83697 17.8637 2.10835 18.0608V34.9726C2.10835 36.46 2.69902 37.8866 3.75051 38.9387C4.802 39.9907 6.22825 40.5821 7.71568 40.5829H26.8979C27.6797 40.5829 28.3135 39.9491 28.3135 39.1672C28.3135 38.3853 27.6797 37.7515 26.8979 37.7515H7.71709C6.98037 37.7512 6.27394 37.4582 5.75312 36.9371C5.23229 36.416 4.93971 35.7094 4.93971 34.9726V19.2237C5.1293 19.2564 5.31932 19.2816 5.50881 19.2995C7.03298 19.4432 8.699 19.1259 10.0229 18.167C10.3254 17.9478 10.6038 17.6995 10.854 17.4232C11.0261 17.6192 11.2114 17.8023 11.4087 17.972C12.5851 18.984 14.1061 19.4557 15.5747 19.4557C17.0432 19.4557 18.5643 18.984 19.7406 17.972C19.9364 17.8036 20.1204 17.6221 20.2914 17.4278C20.4623 17.6221 20.6463 17.8036 20.8421 17.972C22.0184 18.984 23.5395 19.4557 25.008 19.4557C26.4765 19.4557 27.9976 18.984 29.174 17.972C29.3712 17.8023 29.5566 17.6192 29.7286 17.4233C29.9788 17.6997 30.2571 17.948 30.5597 18.1672C31.8835 19.1263 33.5495 19.4439 35.0737 19.3003C35.264 19.2824 35.4547 19.257 35.6451 19.2241V20.2915C35.6451 21.0733 36.2789 21.7072 37.0608 21.7072C37.8426 21.7072 38.4764 21.0733 38.4764 20.2915V18.0602C38.7471 17.8634 39.001 17.6432 39.2334 17.399C40.3697 16.2048 40.8944 14.5265 40.3915 12.5979L38.1999 4.19399C37.8867 2.99348 37.1842 1.93047 36.2026 1.17166C35.221 0.412839 34.0156 0.000825289 32.7749 8.44233e-05H28.6932C28.6828 -2.79723e-05 28.6725 -2.83098e-05 28.6622 8.44233e-05H11.9205C11.9102 -2.83098e-05 11.8998 -2.79723e-05 11.8895 8.44233e-05ZM18.8757 2.83144H13.2046L12.2741 13.5325C12.2881 14.6216 12.7019 15.3496 13.2552 15.8256C13.8476 16.3352 14.6849 16.6244 15.5747 16.6244C16.4645 16.6244 17.3018 16.3352 17.8941 15.8256C18.4571 15.3413 18.8757 14.5962 18.8757 13.4753V2.83144ZM21.707 13.4753C21.707 14.5962 22.1256 15.3413 22.6885 15.8256C23.2809 16.3352 24.1182 16.6244 25.008 16.6244C25.8978 16.6244 26.7351 16.3352 27.3275 15.8256C27.8808 15.3496 28.2946 14.6216 28.3086 13.5325L27.3781 2.83144H21.707V13.4753ZM30.2202 2.83144L31.135 13.3526C31.1386 13.3934 31.1403 13.4343 31.1403 13.4753C31.1403 14.7091 31.6162 15.4363 32.2208 15.8744C32.8768 16.3496 33.8189 16.5746 34.8082 16.4814C35.8014 16.3879 36.6653 15.9905 37.1822 15.4472C37.6471 14.9587 37.906 14.2875 37.6518 13.3124M37.6518 13.3124L35.4603 4.90868C35.3051 4.3141 34.9571 3.78754 34.471 3.41173C33.9849 3.03595 33.3879 2.83189 32.7735 2.83144H30.2202M9.44235 13.4753C9.44235 13.4343 9.44412 13.3934 9.44767 13.3526L10.3625 2.83144H7.80917C7.19477 2.83189 6.59784 3.03595 6.11172 3.41173C5.62558 3.78754 5.27769 4.3139 5.12249 4.90847L2.93089 13.3124C2.67674 14.2867 2.93546 14.9577 3.4004 15.4463C3.91743 15.9896 4.78138 16.387 5.7746 16.4806C6.76396 16.5739 7.7061 16.3491 8.36198 15.874C8.96646 15.4361 9.44235 14.7091 9.44235 13.4753Z" fill="#0071E3"/>
</svg>
