<svg width="199" height="177" viewBox="0 0 199 177" fill="none" xmlns="http://www.w3.org/2000/svg">
<g filter="url(#filter0_d_4991_2004)">
<rect x="6" y="6" width="187" height="165" rx="25" fill="white"/>
<path d="M138.998 98.3491C140.804 98.3491 141.768 96.2201 140.578 94.8612L117.047 67.9904C115.451 66.1689 113.148 65.1228 110.73 65.1228C110.728 65.1228 110.728 65.1228 110.725 65.1228C108.304 65.1254 105.999 66.1715 104.405 67.9983L76.4972 99.9499L63.5581 85.1753C61.9617 83.3538 59.659 82.3076 57.2408 82.3076C57.2382 82.3076 57.2382 82.3076 57.2356 82.3076C54.8121 82.3103 52.5095 83.3564 50.9157 85.1832L36.9158 101.212V50.5111C36.9158 44.4131 41.852 39.4716 47.9435 39.4716H135.114C141.206 39.4716 146.142 44.4131 146.142 50.5111V96.2464C146.142 97.4082 147.082 98.3491 148.242 98.3491C149.403 98.3491 150.343 97.4082 150.343 96.2464V50.5111C150.343 42.0922 143.524 35.2661 135.114 35.2661H47.9435C39.5336 35.2661 32.7148 42.0922 32.7148 50.5111V109.389C32.7148 117.808 39.5336 124.634 47.9435 124.634H86.2777C87.4382 124.634 88.3782 123.693 88.3782 122.531V110.966C88.3782 103.998 94.0206 98.3491 100.981 98.3491H138.998Z" fill="black"/>
<path d="M123.76 125.685H127.567L125.663 119.335L123.76 125.685Z" fill="black"/>
<path d="M158.746 102.555H100.982C96.3479 102.555 92.5801 106.329 92.5801 110.966V134.096C92.5801 138.733 96.3479 142.507 100.982 142.507H158.746C163.378 142.507 167.148 138.733 167.148 134.096V110.966C167.148 106.329 163.378 102.555 158.746 102.555ZM132.568 135.058C132.366 135.119 132.164 135.148 131.964 135.148C131.061 135.148 130.226 134.559 129.953 133.649L128.827 129.891H122.502L121.375 133.649C121.042 134.761 119.871 135.392 118.76 135.058C117.65 134.725 117.019 133.552 117.353 132.44L123.654 111.413C123.922 110.524 124.739 109.914 125.666 109.914C126.592 109.914 127.412 110.524 127.677 111.413L133.978 132.44C134.309 133.552 133.679 134.725 132.568 135.058ZM142.467 133.045C142.467 134.207 141.527 135.148 140.367 135.148C139.206 135.148 138.266 134.207 138.266 133.045V112.017C138.266 110.855 139.206 109.914 140.367 109.914C141.527 109.914 142.467 110.855 142.467 112.017V133.045Z" fill="black"/>
</g>
<defs>
<filter id="filter0_d_4991_2004" x="0" y="0" width="199" height="177" filterUnits="userSpaceOnUse" color-interpolation-filters="sRGB">
<feFlood flood-opacity="0" result="BackgroundImageFix"/>
<feColorMatrix in="SourceAlpha" type="matrix" values="0 0 0 0 0 0 0 0 0 0 0 0 0 0 0 0 0 0 127 0" result="hardAlpha"/>
<feOffset/>
<feGaussianBlur stdDeviation="3"/>
<feComposite in2="hardAlpha" operator="out"/>
<feColorMatrix type="matrix" values="0 0 0 0 0 0 0 0 0 0 0 0 0 0 0 0 0 0 0.25 0"/>
<feBlend mode="normal" in2="BackgroundImageFix" result="effect1_dropShadow_4991_2004"/>
<feBlend mode="normal" in="SourceGraphic" in2="effect1_dropShadow_4991_2004" result="shape"/>
</filter>
</defs>
</svg>
