<svg width="83" height="75" viewBox="0 0 83 75" fill="none" xmlns="http://www.w3.org/2000/svg">
<path d="M19.7822 19.1637V19.7447H18.3223V19.1637C18.3223 18.7629 18.6496 18.4356 19.0541 18.4356C19.4549 18.4337 19.7822 18.7629 19.7822 19.1637Z" fill="#0071E3"/>
<path d="M20.8006 12.5918C16.4722 12.5918 12.9492 16.113 12.9492 20.4432C12.9492 24.7716 16.4704 28.2946 20.8006 28.2946C25.1308 28.2946 28.652 24.7734 28.652 20.4432C28.652 16.113 25.129 12.5918 20.8006 12.5918ZM22.0546 20.8771V20.8808V20.8845V23.5837C22.0546 24.2126 21.5453 24.7201 20.9183 24.7201C20.2913 24.7201 19.782 24.2126 19.782 23.5837V22.0153H18.322V23.5837C18.322 24.2126 17.8145 24.7201 17.1857 24.7201C16.5587 24.7201 16.0493 24.2126 16.0493 23.5837V20.8845C16.0493 20.8826 16.0493 20.8826 16.0493 20.8808C16.0493 20.879 16.0493 20.879 16.0493 20.8771V19.1634C16.0493 17.5086 17.3953 16.1626 19.052 16.1626C20.7068 16.1626 22.0528 17.5086 22.0528 19.1634V20.8771H22.0546ZM25.5519 23.5856C25.5519 24.2144 25.0444 24.7219 24.4156 24.7219C23.7885 24.7219 23.2792 24.2144 23.2792 23.5856V17.299C23.2792 16.6719 23.7885 16.1626 24.4156 16.1626C25.0444 16.1626 25.5519 16.6719 25.5519 17.299V23.5856Z" fill="#0071E3"/>
<path d="M20.8009 9.23633C14.6228 9.23633 9.5957 14.2634 9.5957 20.4416C9.5957 26.6197 14.6228 31.6468 20.8009 31.6468C26.9809 31.6468 32.008 26.6197 32.008 20.4416C32.0099 14.2634 26.9828 9.23633 20.8009 9.23633ZM20.8009 30.5638C15.2204 30.5638 10.6787 26.024 10.6787 20.4416C10.6787 14.8592 15.2204 10.3193 20.8009 10.3193C26.3833 10.3193 30.9232 14.8592 30.9232 20.4416C30.9232 26.024 26.3833 30.5638 20.8009 30.5638Z" fill="#0071E3"/>
<path d="M38.0838 20.6876C37.6591 20.5313 37.3686 20.136 37.3428 19.6836C37.2399 17.7989 36.8225 15.9657 36.0998 14.2336C35.9252 13.8144 36.0171 13.3345 36.3315 13.009L38.937 10.3043L34.8661 5.20178L31.6409 7.14716C31.2548 7.38067 30.7638 7.36045 30.3943 7.09935C28.8626 6.00714 27.171 5.19258 25.3672 4.6759C24.9332 4.55087 24.6133 4.17944 24.5544 3.73079L24.0635 0H17.5342L17.0451 3.73079C16.9862 4.17944 16.6663 4.55087 16.2305 4.6759C14.4285 5.19258 12.7369 6.00714 11.2034 7.09935C10.8338 7.36045 10.3447 7.37884 9.95674 7.14716L6.73896 5.20178L2.668 10.3061L5.27349 13.0109C5.58791 13.3363 5.67801 13.8181 5.50517 14.2355C4.78438 15.9676 4.36515 17.8008 4.26218 19.6855C4.23828 20.1378 3.94592 20.5313 3.52117 20.6894L0 21.9912L1.4526 28.3569L5.18523 28.0039C5.63572 27.9616 6.06966 28.1896 6.28663 28.5868C7.19312 30.2325 8.36991 31.7053 9.77838 32.963C10.1149 33.2645 10.2417 33.7371 10.1002 34.1655L8.92705 37.7271L14.811 40.5606L16.8612 37.4256C17.1094 37.0468 17.5562 36.8519 18.003 36.9273C18.9408 37.0854 19.8841 37.1682 20.8034 37.1682C21.7228 37.1682 22.6661 37.0872 23.6057 36.9273C23.6682 36.9162 23.7325 36.9126 23.795 36.9126C24.1757 36.9126 24.5342 37.102 24.7457 37.4256L24.9737 37.7713L26.7995 40.5606L32.6816 37.7271L31.5085 34.1655C31.3669 33.7371 31.4938 33.2645 31.8321 32.963C33.2406 31.7053 34.4156 30.2325 35.3239 28.5868C35.5409 28.1896 35.973 27.9598 36.4253 28.0039L40.1561 28.3569L41.6087 21.9912L38.0838 20.6876ZM20.8016 33.9191C13.3694 33.9191 7.32367 27.8734 7.32367 20.4412C7.32367 13.009 13.3694 6.96328 20.8016 6.96328C28.2337 6.96328 34.2813 13.009 34.2813 20.4412C34.2813 27.8734 28.2337 33.9191 20.8016 33.9191Z" fill="#0071E3"/>
<path d="M82.7435 17.3502V73.5346C82.7435 74.3436 82.087 75 81.2798 75H21.817C21.008 75 20.3516 74.3436 20.3516 73.5346V39.4334C21.1974 39.4536 22.0432 39.4169 22.8927 39.3194V71.3244C22.8927 71.3483 22.8945 71.3741 22.8964 71.3961V71.398C22.9129 71.6683 23.0269 71.9128 23.2016 72.1004C23.2715 72.1739 23.3505 72.2383 23.4388 72.2916C23.4406 72.2934 23.4406 72.2934 23.4425 72.2953C23.5271 72.3467 23.6227 72.3872 23.7201 72.4166H23.7238C23.7698 72.4295 23.8139 72.4387 23.8617 72.446C23.8672 72.446 23.8746 72.4479 23.8801 72.4479C23.9297 72.4534 23.9794 72.4589 24.0272 72.4589H79.066C79.6948 72.4589 80.2023 71.9496 80.2023 71.3226V19.5622C80.2023 18.9352 79.6948 18.4259 79.066 18.4259H39.5148C39.4155 17.5654 39.2611 16.7177 39.046 15.8848H81.2817C82.087 15.8848 82.7435 16.543 82.7435 17.3502Z" fill="#0071E3"/>
<path d="M47.6332 62.586L42.2476 70.1873H26.2285L39.6218 51.2852L47.6332 62.586Z" fill="#0071E3"/>
<path d="M57.3439 31.6125C57.3439 33.9054 55.4795 35.7698 53.1866 35.7698C50.8918 35.7698 49.0273 33.9054 49.0273 31.6125C49.0273 29.3196 50.8918 27.4551 53.1866 27.4551C55.4795 27.4532 57.3439 29.3196 57.3439 31.6125Z" fill="#0071E3"/>
<path d="M77.928 54.4099V70.1881H45.0312L67.0685 39.0859L77.928 54.4099Z" fill="#0071E3"/>
<path d="M43.9099 20.6992C44.0534 20.9419 44.1085 21.2343 44.0423 21.5266L42.1448 29.8359C42.0179 30.393 41.4957 30.7663 40.9312 30.7148L36.932 30.3379C36.088 31.7353 35.0693 33.0114 33.8889 34.1496L35.1484 37.9649C35.3267 38.5092 35.0767 39.0976 34.5618 39.3458L26.8833 43.0435C26.3684 43.2917 25.7506 43.1189 25.438 42.6427L25.1641 42.2216V67.7579L38.6935 48.6664C38.9068 48.3648 39.2524 48.1864 39.622 48.1864C39.9898 48.1864 40.3354 48.3648 40.5506 48.6664L49.0253 60.6255L66.1439 36.4682C66.3554 36.1666 66.7029 35.9883 67.0706 35.9883C67.4402 35.9883 67.7841 36.1666 67.9992 36.4682L77.9302 50.483V20.6992H43.9099ZM53.1864 38.0422C49.6394 38.0422 46.7545 35.159 46.7545 31.6121C46.7545 28.0652 49.6394 25.1821 53.1864 25.1821C56.7314 25.1821 59.6164 28.0652 59.6164 31.6121C59.6164 35.159 56.7314 38.0422 53.1864 38.0422Z" fill="#0071E3"/>
</svg>
