<svg width="24" height="29" viewBox="0 0 24 29" fill="none" xmlns="http://www.w3.org/2000/svg">
<path d="M19.9966 27.0524C18.4459 28.53 16.7527 28.2967 15.1229 27.5968C13.3981 26.8813 11.8157 26.8502 9.99598 27.5968C7.71736 28.5611 6.51476 28.2811 5.15392 27.0524C-2.56807 19.2289 -1.42876 7.31488 7.3376 6.87938C9.4738 6.98825 10.9612 8.03034 12.2113 8.12367C14.0785 7.75038 15.8666 6.67718 17.8604 6.81717C20.2498 7.00381 22.0537 7.93702 23.2405 9.61681C18.3035 12.5253 19.4744 18.9179 24 20.7065C23.098 23.0396 21.9271 25.357 19.9808 27.0679L19.9966 27.0524ZM12.0531 6.78606C11.8157 3.31761 14.6798 0.455746 17.9712 0.175781C18.43 4.18861 14.2684 7.1749 12.0531 6.78606Z" fill="black"/>
</svg>
