<svg width="57" height="75" viewBox="0 0 57 75" fill="none" xmlns="http://www.w3.org/2000/svg">
<path d="M54.935 6.32783C53.6971 5.08125 52.0507 4.39453 50.2991 4.39453H47.3916V7.32422C47.3916 10.5551 44.7788 13.1836 41.5671 13.1836H15.3571C12.1454 13.1836 9.53256 10.5551 9.53256 7.32422V4.39453H6.61549C3.00643 4.39453 0.0670602 7.34824 0.0629785 10.979L4.57528e-06 68.4009C-0.00203625 70.1629 0.678725 71.82 1.91649 73.0667C3.15454 74.3134 4.8009 75 6.55251 75H50.236C53.845 75 56.7845 72.0463 56.7885 68.4155L56.8516 10.9937C56.8536 9.23159 56.1729 7.57456 54.935 6.32783ZM29.1684 26.3672H44.6864C45.8926 26.3672 46.8705 27.351 46.8705 28.5645C46.8705 29.7779 45.8926 30.7617 44.6864 30.7617H29.1684C27.9621 30.7617 26.9842 29.7779 26.9842 28.5645C26.9842 27.351 27.9621 26.3672 29.1684 26.3672ZM29.1684 41.0156H44.6864C45.8926 41.0156 46.8705 41.9994 46.8705 43.2129C46.8705 44.4264 45.8926 45.4102 44.6864 45.4102H29.1684C27.9621 45.4102 26.9842 44.4264 26.9842 43.2129C26.9842 41.9994 27.9621 41.0156 29.1684 41.0156ZM29.1684 55.6641H44.7488C45.955 55.6641 46.9329 56.6479 46.9329 57.8613C46.9329 59.0748 45.955 60.0586 44.7488 60.0586H29.1684C27.9621 60.0586 26.9842 59.0748 26.9842 57.8613C26.9842 56.6479 27.9621 55.6641 29.1684 55.6641ZM10.5585 26.4539C11.4116 25.5958 12.7944 25.5958 13.6474 26.4539L14.8351 27.6488L19.8721 22.5816C20.7252 21.7236 22.108 21.7233 22.9609 22.5816C23.8138 23.4396 23.8138 24.8309 22.9609 25.689L16.3794 32.3098C15.9698 32.7218 15.4142 32.9534 14.8349 32.9534C14.2556 32.9534 13.7001 32.722 13.2904 32.3098L10.5584 29.5611C9.70544 28.7032 9.70544 27.3119 10.5585 26.4539ZM10.5585 42.221C11.4116 41.3629 12.7944 41.3629 13.6474 42.221L14.8351 43.4158L19.8721 38.3486C20.725 37.4906 22.108 37.4906 22.9609 38.3486C23.8138 39.2065 23.8138 40.5979 22.9609 41.456L16.3794 48.0769C15.9699 48.489 15.4142 48.7206 14.8349 48.7206C14.2556 48.7206 13.7001 48.4891 13.2904 48.0769L10.5584 45.3283C9.70544 44.4703 9.70544 43.0792 10.5585 42.221ZM10.5585 56.8695C11.4116 56.0114 12.7944 56.0114 13.6474 56.8695L14.8351 58.0642L19.8721 52.997C20.725 52.1391 22.108 52.1391 22.9609 52.997C23.8138 53.855 23.8138 55.2463 22.9609 56.1044L16.3794 62.7253C15.9699 63.1374 15.4142 63.369 14.8349 63.369C14.2556 63.369 13.7001 63.1375 13.2904 62.7253L10.5584 59.9767C9.70544 59.1188 9.70544 57.7276 10.5585 56.8695Z" fill="#0071E3"/>
<path d="M13.9004 7.32422C13.9004 8.13325 14.5523 8.78906 15.3565 8.78906H41.5666C42.3708 8.78906 43.0227 8.13325 43.0227 7.32422V1.46484C43.0227 0.655811 42.3708 0 41.5666 0H15.3565C14.5523 0 13.9004 0.655811 13.9004 1.46484V7.32422Z" fill="#0071E3"/>
</svg>
