<svg width="70" height="59" viewBox="0 0 70 59" fill="none" xmlns="http://www.w3.org/2000/svg">
<path d="M46.3477 50.7746V49.8422C46.3477 49.5314 46.3937 49.1762 46.4397 48.8654C46.4857 48.6878 46.5318 48.4658 46.5778 48.2882C46.6238 48.155 46.6238 48.0662 46.6699 47.933C46.8079 47.489 47.2222 46.601 48.0507 45.7574C48.3729 45.4466 48.8332 45.047 49.3855 44.7362C49.4316 44.6918 49.4776 44.6474 49.4776 44.5586L49.7077 44.381C49.7998 44.2922 49.8918 44.2478 49.9379 44.159L49.9839 44.0702L50.3982 43.4486V43.4042C50.4442 43.3154 50.4442 43.2266 50.3521 43.1378C50.0299 42.827 49.7538 42.4274 49.4316 41.939C49.1554 41.5394 48.9253 41.0954 48.7411 40.6514C48.6951 40.607 48.6491 40.5626 48.603 40.5182C48.0967 40.385 47.6825 39.9855 47.5444 39.4971C47.4063 39.0531 47.4984 38.5203 47.8206 38.1207C47.8666 38.0763 47.8666 37.9875 47.8666 37.9431V37.7211C47.8206 37.2771 47.7285 36.5667 48.0047 35.8119C48.0507 35.7231 48.0507 35.6343 48.0967 35.5899V35.5455L48.4189 35.2791C48.511 35.2347 48.511 35.1459 48.511 35.0571C48.4189 34.7019 48.3269 34.0803 48.9713 33.6363C49.2014 33.4143 50.3061 32.4375 52.2393 32.4375C52.4234 32.4375 52.6075 32.4375 52.7916 32.4819H52.8377C53.436 32.4819 54.5867 32.6151 55.5994 33.4143C56.566 34.1691 56.8882 35.1903 57.0263 35.5455C57.3024 36.4335 57.2564 37.1883 57.1643 37.7655C57.1643 37.8543 57.1643 37.9431 57.1183 38.0319C57.1183 38.0763 57.1183 38.1651 57.1643 38.2095C57.4405 38.5647 57.5326 39.0531 57.3945 39.5859C57.2564 40.163 56.8421 40.607 56.3358 40.7402C56.2438 40.7402 56.1977 40.7846 56.1977 40.8734C56.0136 41.3174 55.7835 41.717 55.5533 42.1166C55.2772 42.5606 55.001 42.9602 54.7248 43.2266C54.6328 43.3154 54.6328 43.4486 54.7248 43.493C54.8169 43.5818 54.9089 43.715 55.001 43.8038C55.0931 43.937 55.1851 44.0702 55.2772 44.2034L55.3692 44.3366L55.7375 44.6918L55.7835 44.7362C56.2898 45.047 56.7961 45.4022 57.2104 45.8462C58.0389 46.6898 58.4071 47.5778 58.5912 48.0218C58.9134 48.9542 58.9134 50.6414 58.9134 50.6414V50.8634H46.3477V50.7746Z" fill="#727272"/>
<path d="M52.2407 32.6159C52.4248 32.6159 52.6089 32.6159 52.793 32.6603H52.839C53.3914 32.6603 54.4961 32.7935 55.4627 33.5483C56.3832 34.2587 56.7054 35.2355 56.7975 35.5907C57.0736 36.4342 56.9816 37.1446 56.9356 37.7218C56.9356 37.8106 56.9356 37.8994 56.8895 37.9882C56.8895 38.1214 56.8895 38.2102 56.9816 38.3434C57.2117 38.6098 57.2578 39.0538 57.1657 39.4978C57.0276 39.9862 56.6594 40.3858 56.2912 40.4746C56.1531 40.519 56.015 40.6078 55.969 40.741C55.7848 41.1406 55.5547 41.5846 55.3246 41.9398C55.0484 42.3838 54.7722 42.739 54.4961 43.0054C54.358 43.183 54.3119 43.405 54.4961 43.5826C54.5881 43.6714 54.6341 43.7602 54.7262 43.8934C54.8183 44.0266 54.9103 44.1598 55.0484 44.293L55.1405 44.4262L55.1865 44.4706L55.5547 44.7814C55.6007 44.8258 55.6007 44.8258 55.6468 44.8258C56.1531 45.1366 56.6134 45.4918 57.0276 45.8914C57.8101 46.735 58.1783 47.5786 58.3624 47.9782C58.6386 48.8218 58.6846 50.3314 58.6846 50.509H46.5792C46.5792 50.3314 46.5792 49.7986 46.5792 49.7986C46.5792 49.4878 46.6252 49.177 46.6712 48.8662C46.7173 48.6886 46.7633 48.511 46.8093 48.289C46.8093 48.289 46.8093 48.289 46.8093 48.2446C46.8553 48.1558 46.8553 48.0226 46.9014 47.9338C47.0394 47.4898 47.4077 46.6462 48.2362 45.847C48.5124 45.5362 49.0187 45.181 49.525 44.8702C49.617 44.8258 49.6631 44.737 49.7091 44.6482L49.8932 44.515L50.1694 44.2486L50.2154 44.2042L50.2614 44.1598L50.6757 43.5382L50.7217 43.4938C50.7217 43.4938 50.7217 43.4494 50.7678 43.4494C50.8138 43.2718 50.7677 43.0942 50.6757 43.0054C50.3535 42.6946 50.0773 42.3394 49.7551 41.851C49.525 41.4514 49.2488 41.0518 49.0647 40.6078C49.0187 40.4746 48.8806 40.3858 48.7885 40.3414C48.3282 40.2082 48.006 39.8974 47.868 39.4978C47.7299 39.0982 47.868 38.6542 48.1441 38.3434C48.2362 38.2546 48.2822 38.1214 48.2362 37.9882L48.1902 37.7218C48.1441 37.2778 48.0521 36.6118 48.3282 35.9015C48.3743 35.8127 48.3743 35.7683 48.4203 35.7239L48.6965 35.5019C48.8346 35.3687 48.8806 35.1911 48.8346 35.0135C48.7425 34.6583 48.6965 34.2143 49.2488 33.8147L49.2948 33.7703C49.3869 33.5483 50.4456 32.6159 52.2407 32.6159ZM52.2407 32.1719C50.2614 32.1719 49.0647 33.1931 48.8806 33.4151C48.1441 33.9035 48.1441 34.6139 48.3282 35.1023L47.96 35.4131L47.914 35.5019C47.914 35.5463 47.868 35.6351 47.8219 35.7239C47.5458 36.523 47.5918 37.2334 47.6838 37.7218L47.7299 37.9882C47.3616 38.4322 47.2236 39.0094 47.4077 39.5422C47.5918 40.1194 48.0521 40.5634 48.6504 40.6966C48.8806 41.1406 49.1107 41.5846 49.3869 41.9842C49.7091 42.4726 50.0313 42.8722 50.3535 43.2274V43.2718L49.9392 43.8934L49.8932 43.9378C49.8012 44.0266 49.7551 44.071 49.6631 44.1598L49.2948 44.4706L49.3409 44.515C48.8806 44.8258 48.3282 45.2254 47.96 45.5806C47.1315 46.4686 46.7172 47.3566 46.5331 47.845C46.4871 47.9782 46.4411 48.067 46.4411 48.2002C46.3951 48.4222 46.349 48.5998 46.303 48.8218C46.257 49.1326 46.2109 49.4878 46.2109 49.843V50.5534V50.9974H59.1449V50.5534C59.1449 50.5534 59.1449 48.8218 58.8227 47.845C58.6386 47.401 58.2704 46.4686 57.3958 45.5806C56.9816 45.1366 56.4753 44.737 55.9229 44.4262L55.5547 44.1154L55.4627 43.9822C55.3706 43.849 55.2785 43.7158 55.1865 43.5826C55.0944 43.4494 55.0024 43.3162 54.9103 43.2274C55.1865 42.9166 55.4626 42.5614 55.7848 42.073C56.015 41.6734 56.2451 41.2294 56.4753 40.8298C57.0276 40.6966 57.5339 40.2082 57.718 39.5422C57.8561 38.965 57.7641 38.3878 57.4879 37.9882C57.4879 37.8994 57.5339 37.8106 57.5339 37.7218C57.58 37.1446 57.672 36.3898 57.3498 35.4131C57.2117 35.0135 56.8895 33.9923 55.8769 33.1931C54.8183 32.3495 53.6215 32.2163 52.9771 32.2163C52.9771 32.2163 52.9771 32.2163 52.9311 32.2163C52.6089 32.2163 52.4248 32.1719 52.2407 32.1719Z" fill="#727272"/>
<path d="M35.4844 26.0863V26.0419C35.4844 25.7311 35.5304 25.4647 35.5764 25.1983C35.6225 25.0207 35.6685 24.8431 35.7145 24.6655C35.7605 24.5767 35.7605 24.4879 35.8066 24.3991C35.8986 24.0883 36.2208 23.2891 37.0033 22.5343C37.3715 22.1347 37.9699 21.7795 38.3381 21.5575C38.5223 21.6907 38.7524 21.8239 38.9825 21.9571C39.0286 21.9571 39.0286 22.0015 39.0286 22.0015L39.1666 22.0459C39.2587 22.0903 39.3047 22.0903 39.3968 22.1347C39.811 22.2679 40.2253 22.4011 40.6856 22.4011H40.9157H40.9618H41.0078C41.5141 22.4011 41.9744 22.2235 42.3426 22.0459C42.7569 21.8683 43.1711 21.6463 43.4933 21.4688L43.5393 21.5132C44.0457 21.7795 44.4599 22.1347 44.8281 22.5343C45.5186 23.2891 45.8868 24.0439 46.0249 24.3991C46.163 24.7987 46.255 25.5091 46.3011 26.1307H35.4844V26.0863Z" fill="#0071E3"/>
<path d="M40.8264 21.1166C40.6883 21.1166 40.5503 21.1166 40.4122 21.0722C40.3661 21.0722 40.3201 21.0722 40.2741 21.0278C40.182 21.0278 40.09 20.9835 39.9979 20.9391L39.9059 20.8947C39.8138 20.8503 39.6757 20.806 39.5837 20.7616L39.3535 20.5841L39.5376 20.3178C39.9979 20.4953 40.4122 20.5397 40.7804 20.5397H40.9185C41.1026 20.5397 41.3327 20.4953 41.5629 20.4509C41.747 20.4066 41.9311 20.3622 42.1152 20.3178C42.1612 20.3178 42.1612 20.3178 42.2073 20.2734L42.3914 20.4509L41.9311 20.7172C41.8391 20.7616 41.747 20.806 41.701 20.8503C41.3327 21.0278 41.0566 21.0722 40.8264 21.1166Z" fill="#0071E3"/>
<path d="M39.9959 20.7228C40.2721 20.7672 40.5022 20.8116 40.7784 20.8116H40.9165C41.0545 20.8116 41.1926 20.8116 41.3307 20.7672C41.1006 20.856 40.9165 20.856 40.8244 20.856C40.7323 20.856 40.5943 20.856 40.4562 20.8116C40.4101 20.8116 40.3641 20.8116 40.3181 20.7672C40.226 20.7672 40.134 20.7228 40.0419 20.6785C40.0419 20.7672 39.9959 20.7228 39.9959 20.7228ZM42.2513 20.1016C42.2053 20.1459 42.1132 20.1459 42.0672 20.1903C41.8831 20.2347 41.6989 20.2791 41.5609 20.3234C41.3767 20.3678 41.1466 20.4122 40.9165 20.4122C40.8704 20.4122 40.8244 20.4122 40.7784 20.4122C40.4101 20.4122 39.9959 20.3234 39.5816 20.1903C39.5356 20.1903 39.4896 20.1459 39.4435 20.1459L39.0293 20.7228L39.4435 21.0335C39.5816 21.0778 39.6737 21.1222 39.8118 21.1666C39.8578 21.1666 39.9038 21.211 39.9499 21.211C40.0419 21.2553 40.134 21.2553 40.2721 21.2997C40.3181 21.2997 40.3641 21.3441 40.4562 21.3441C40.5943 21.3441 40.7323 21.3885 40.8704 21.3885H40.9165C41.1466 21.3885 41.4688 21.2997 41.837 21.1666L42.1132 21.0335L42.8497 20.6341L42.2513 20.1016Z" fill="#0071E3"/>
<path d="M40.8243 19.2463C40.4101 19.2463 40.0418 19.1575 39.9498 19.1131C39.9037 19.1131 39.8577 19.0687 39.7657 19.0687L39.4895 18.9355C39.1673 18.6691 38.7991 18.2695 38.4308 17.6479C38.1547 17.2039 37.9245 16.7599 37.6944 16.2715L37.6023 16.0495C37.5563 15.9607 37.5103 15.9163 37.4182 15.9163L37.1881 15.8719C36.9119 15.8275 36.6818 15.6499 36.6357 15.4279C36.5437 15.2059 36.6357 14.9395 36.8198 14.7619L37.004 14.5843C37.05 14.5399 37.096 14.4511 37.096 14.3623L36.9579 13.652C36.9119 13.2524 36.8659 12.7196 37.05 12.1424V12.098L37.7404 11.5208C37.8325 11.432 37.8325 11.3432 37.7864 11.2544L37.6023 10.9436C37.5563 10.8548 37.3722 10.544 37.7404 10.322L37.8325 10.2332C37.8785 10.1888 38.753 9.30078 40.4561 9.30078C40.5942 9.30078 40.7783 9.30078 40.9624 9.34518H41.0084H41.1465C41.5147 9.34518 42.4353 9.43398 43.2638 10.1C44.0463 10.7216 44.2764 11.4764 44.4145 11.8316C44.6447 12.5864 44.5986 13.1636 44.5066 13.6964C44.5066 13.8296 44.4606 13.9628 44.4606 14.096L44.4145 14.3179C44.4145 14.4067 44.4145 14.4955 44.5066 14.5399L44.6907 14.7175C44.7367 14.7619 44.8748 14.9839 44.7828 15.3835C44.6447 15.8275 44.4145 16.0051 44.3685 16.0051L44.0463 15.9607C43.9542 15.9607 43.8622 16.0051 43.8162 16.0939L43.6781 16.3603C43.494 16.8487 43.2178 17.2927 42.9876 17.7367C42.6194 18.3139 42.2972 18.7579 41.975 18.9799L41.5147 19.1575C41.4227 19.2019 41.3767 19.2019 41.2846 19.2019C41.1465 19.2463 40.9624 19.2463 40.8243 19.2463Z" fill="#0071E3"/>
<path d="M40.4553 30.5318C33.7352 30.5318 28.2578 25.2483 28.2578 18.7659C28.2578 12.2836 33.7352 7 40.4553 7C47.1755 7 52.6529 12.2836 52.6529 18.7659C52.6529 25.2483 47.1755 30.5318 40.4553 30.5318ZM34.1034 26.7579V27.2019C34.1034 27.3351 34.1955 27.4239 34.3336 27.4239H47.2675C47.4056 27.4239 47.4977 27.3351 47.4977 27.2019V26.7579C47.4977 26.6691 47.4977 24.9819 47.1295 23.9607C46.9454 23.4723 46.5311 22.5399 45.6566 21.6075C45.2423 21.1635 44.736 20.7639 44.1836 20.4087L43.8614 20.0979L43.7694 20.0091C43.6773 19.8759 43.5853 19.7427 43.4932 19.6539C43.4472 19.5651 43.4012 19.5207 43.3551 19.4319C43.6313 19.1211 43.8614 18.8103 44.1376 18.3663C44.3678 17.9667 44.5979 17.5671 44.782 17.1675C45.3804 16.9899 45.8867 16.4571 46.0708 15.7467C46.2549 15.1251 46.1629 14.5035 45.8407 14.104C45.8407 14.0596 45.8407 13.9708 45.8407 13.9264C45.8867 13.3492 45.9788 12.55 45.6566 11.5288C45.5185 11.1292 45.1502 10.0636 44.0916 9.17559C42.9869 8.28759 41.7441 8.15439 41.0997 8.15439H41.0077C40.8236 8.15439 40.6395 8.10999 40.4553 8.10999C38.3841 8.10999 37.1413 9.17559 36.9112 9.39758C36.1287 9.97478 36.1287 10.7296 36.2668 11.1736L36.0366 11.3956C35.9906 11.44 35.9906 11.44 35.9906 11.4844L35.8985 11.6176C35.8525 11.662 35.8525 11.7508 35.8065 11.8396C35.4843 12.6832 35.5763 13.438 35.6224 13.9708L35.6684 14.1484C35.3002 14.6367 35.1621 15.2583 35.3462 15.8355C35.5303 16.4571 35.9906 16.9011 36.635 17.1231C36.8191 17.5671 37.0953 17.9667 37.3254 18.3663C37.6016 18.8103 37.9238 19.2099 38.2 19.5207L37.8778 20.0091C37.7857 20.0979 37.7397 20.1423 37.6476 20.2311L37.2794 20.5419C37.2334 20.5863 37.2334 20.6307 37.1873 20.6307C36.681 20.9859 36.2207 21.3411 35.9446 21.6075C35.07 22.5399 34.6558 23.4723 34.4717 23.9163C34.4256 24.0495 34.3796 24.1827 34.3796 24.3159C34.3336 24.5379 34.2875 24.7155 34.2415 24.9375C34.1955 25.2927 34.1494 25.6479 34.1494 25.9587C34.1034 26.0031 34.1034 26.5803 34.1034 26.7579Z" fill="#0071E3"/>
<path d="M50.9355 24.1836L51.1711 23.8014L64.1473 31.2417L63.9118 31.624L50.9355 24.1836Z" fill="#0071E3"/>
<path d="M51.0799 23.4872L50.6234 24.2485L63.9989 31.9024L64.4554 31.1411L51.0799 23.4872Z" fill="#0071E3"/>
<path d="M63.2149 32.5005C63.1259 32.5235 62.9805 32.5153 62.9123 32.4412L56.5628 28.8068C56.3937 28.7129 56.3225 28.4558 56.4204 28.2927L56.8893 27.5742L63.9153 31.5842L63.4464 32.3027C63.4256 32.3999 63.3484 32.4659 63.2149 32.5005Z" fill="#0071E3"/>
<path d="M56.9746 27.8758L63.606 31.6668L63.2795 32.2106C63.2469 32.2649 63.2024 32.2765 63.2024 32.2765C63.1578 32.288 63.1133 32.2995 63.057 32.2682L56.7075 28.6338C56.6511 28.6025 56.6155 28.474 56.6481 28.4196L56.9746 27.8758ZM56.7966 27.2332L56.2417 28.1577C56.0784 28.4296 56.1852 28.8151 56.4671 28.9717L62.8166 32.6061C62.9857 32.7 63.1311 32.7082 63.3091 32.662C63.4427 32.6274 63.6088 32.5384 63.6623 32.3868L64.2172 31.4624L56.7966 27.2332Z" fill="#0071E3"/>
<path d="M63.3412 32.9367C63.1187 32.9944 62.8724 32.9664 62.6914 32.8296L56.342 29.1953C55.9473 28.9761 55.805 28.462 56.0335 28.0814L56.7309 26.9823L64.5461 31.4305L63.8487 32.5296C63.7626 32.7356 63.5638 32.879 63.3412 32.9367ZM56.9207 27.6677C56.8762 27.6793 56.7872 27.7023 56.799 27.7452L56.4726 28.289C56.3747 28.4521 56.4459 28.7092 56.615 28.8031L62.9199 32.449C63.0327 32.5116 63.1336 32.5314 63.2226 32.5083C63.3116 32.4852 63.4333 32.4077 63.4659 32.3534L63.7923 31.8096C63.825 31.7552 63.8131 31.7124 63.8339 31.6151C63.822 31.5723 63.7983 31.4866 63.7419 31.4553L57.1106 27.6644C57.0097 27.6446 56.9652 27.6562 56.9207 27.6677Z" fill="#0071E3"/>
<path d="M56.8023 27.2372L57.197 27.4563C57.0842 27.3937 56.9833 27.3739 56.8498 27.4085C56.7163 27.4431 56.6391 27.509 56.5738 27.6178L56.2682 28.0644L56.8023 27.2372ZM56.2147 28.216C56.0515 28.4879 56.1464 28.8306 56.3838 28.9987C56.1346 28.7878 56.096 28.4763 56.2147 28.216ZM63.8402 31.29L64.2348 31.5091L63.7778 32.2704L64.0063 31.8898C64.0716 31.781 64.0923 31.6838 64.0568 31.5553C64.0212 31.4268 63.9529 31.3526 63.8402 31.29ZM56.6362 26.6374L55.8528 27.9425C55.559 28.4319 55.7369 29.0745 56.2443 29.3562L62.5938 32.9906C62.8193 33.1158 63.1219 33.1751 63.4335 33.0944C63.7006 33.0251 63.9439 32.8702 64.0626 32.6099L64.846 31.3048L56.6362 26.6374ZM63.1636 32.2919C63.119 32.3035 63.0745 32.315 63.0627 32.2722L56.7132 28.6378C56.6568 28.6065 56.6212 28.4779 56.6539 28.4236L56.9803 27.8798L63.6117 31.6707L63.2852 32.2145C63.2407 32.226 63.2081 32.2804 63.1636 32.2919Z" fill="#0071E3"/>
<path d="M56.4843 27.3173L57.1814 26.2182C57.2793 26.055 57.4781 25.9117 57.7006 25.854C57.9231 25.7964 58.1693 25.8244 58.3503 25.9612L64.6998 29.5971C65.0944 29.8163 65.2369 30.3305 65.0085 30.7111L64.3114 31.8102L56.4843 27.3173ZM57.8193 26.2825C57.7303 26.3056 57.6532 26.3715 57.576 26.4374L57.2497 26.9812C57.2171 27.0355 57.229 27.0784 57.2082 27.1756C57.2201 27.2185 57.2438 27.3042 57.3002 27.3355L63.9315 31.1279C63.9879 31.1593 64.0324 31.1477 64.1333 31.1675C64.1778 31.156 64.2549 31.0901 64.2549 31.0901L64.5812 30.5463C64.6791 30.3831 64.6079 30.1261 64.4388 30.0321L58.0893 26.3962C58.0092 26.2792 57.9083 26.2594 57.8193 26.2825Z" fill="#0071E3"/>
<path d="M57.7562 26.0688C57.8897 26.0342 58.0796 26.0309 58.2042 26.1364C58.0351 26.0424 57.8897 26.0342 57.7562 26.0688ZM57.0324 26.8993C56.9671 27.008 56.9464 27.1053 56.982 27.2338C57.0176 27.3623 57.0858 27.4365 57.1986 27.4991L60.0974 29.1819L56.804 27.2799L57.0324 26.8993ZM63.83 31.2916C63.9427 31.3543 64.0436 31.374 64.1771 31.3394C64.3106 31.3049 64.3877 31.2389 64.453 31.1302L64.2246 31.5108L63.83 31.2916ZM57.6375 25.6403C57.3705 25.7095 57.1272 25.8644 57.0086 26.1247L56.2254 27.4298L64.4472 32.142L65.2303 30.8369C65.524 30.3475 65.3459 29.7048 64.8385 29.4229L58.489 25.787C58.1953 25.5876 57.9045 25.5711 57.6375 25.6403ZM64.0584 30.911L57.427 27.1185L57.7533 26.5747C57.7859 26.5203 57.8304 26.5088 57.8304 26.5088C57.8749 26.4972 57.9194 26.4857 57.9758 26.517L64.3253 30.1529C64.3817 30.1843 64.4173 30.3128 64.3847 30.3672L64.0584 30.911Z" fill="#0071E3"/>
<path d="M23.9785 50.776V49.8436C23.9785 49.5328 24.0245 49.1776 24.0706 48.8668C24.1166 48.6892 24.1626 48.4672 24.2087 48.2896C24.2547 48.1564 24.2547 48.0676 24.3007 47.9344C24.4388 47.4904 24.8531 46.6024 25.6816 45.7588C26.0038 45.448 26.4641 45.0484 27.0164 44.7376C27.0624 44.6932 27.1084 44.6488 27.1084 44.5601L27.3386 44.3825C27.4306 44.2937 27.5227 44.2493 27.5687 44.1605C27.5687 44.1605 27.6148 44.1161 27.6148 44.0717L28.029 43.4501V43.4057C28.075 43.3169 28.075 43.1837 27.983 43.1393C27.6608 42.8285 27.3846 42.4289 27.0624 41.9405C26.7862 41.5409 26.5561 41.0969 26.372 40.6529C26.326 40.6085 26.2799 40.5641 26.2339 40.5197C25.7276 40.3865 25.3133 39.9869 25.1753 39.4985C25.0372 39.0101 25.1292 38.5217 25.4514 38.1221C25.4975 38.0777 25.4975 37.9889 25.4975 37.9445L25.4514 37.6781C25.4054 37.2341 25.3133 36.5237 25.5895 35.7689C25.6355 35.6801 25.6355 35.5913 25.6816 35.5469V35.5025L26.0038 35.2361C26.0958 35.1917 26.0958 35.1029 26.0958 35.0141C26.0038 34.6589 25.9117 34.0373 26.5561 33.5933C26.7863 33.3713 27.8909 32.3945 29.8241 32.3945C30.0082 32.3945 30.1924 32.3945 30.3765 32.4389H30.4225C31.0209 32.4389 32.1716 32.5721 33.1842 33.3713C34.1508 34.1261 34.473 35.1473 34.6111 35.5025C34.8873 36.3905 34.8412 37.1453 34.7492 37.7225C34.7492 37.8113 34.7492 37.9001 34.7031 37.9889C34.7031 38.0333 34.7031 38.1221 34.7492 38.1665C35.0253 38.5217 35.1174 39.0101 34.9793 39.5429C34.8412 40.1201 34.427 40.5641 33.9207 40.6973C33.8286 40.6973 33.7826 40.7417 33.7826 40.8305C33.5985 41.2745 33.3683 41.6741 33.1382 42.0737C32.862 42.5177 32.5858 42.9173 32.3097 43.1837C32.2176 43.2725 32.2176 43.4057 32.3097 43.4945C32.4017 43.5833 32.4477 43.6721 32.5398 43.8053C32.6319 43.9385 32.7699 44.0717 32.862 44.2049L32.9541 44.3381L33.3223 44.6932L33.3683 44.7376C33.8746 45.0484 34.3809 45.4036 34.7952 45.8476C35.6237 46.6912 35.9919 47.5792 36.176 48.0232C36.4982 48.9556 36.4983 50.6428 36.4983 50.6428V50.8648H23.9785V50.776Z" fill="#727272"/>
<path d="M29.8696 32.6159C30.0537 32.6159 30.2378 32.6159 30.4219 32.6603H30.514C31.0663 32.6603 32.171 32.7935 33.1376 33.5483C34.0582 34.2587 34.3804 35.2355 34.4724 35.5907C34.7486 36.4342 34.6565 37.1446 34.6105 37.7218C34.6105 37.8106 34.6105 37.8994 34.5645 37.9882C34.5645 38.1214 34.5645 38.2102 34.6565 38.3434C34.8867 38.6098 34.9327 39.0538 34.8406 39.4978C34.7026 39.9862 34.3343 40.3858 33.9661 40.4746C33.828 40.519 33.6899 40.6078 33.6439 40.741C33.4598 41.185 33.2296 41.5846 32.9995 41.9398C32.7233 42.3838 32.4472 42.739 32.171 43.0054C32.0329 43.183 32.0329 43.405 32.171 43.5826C32.263 43.6714 32.3091 43.7602 32.4011 43.8934C32.4932 44.0266 32.5852 44.1598 32.7233 44.293L32.8154 44.4262L32.8614 44.4706L33.2296 44.7814C33.2757 44.8258 33.2757 44.8258 33.3217 44.8258C33.828 45.1366 34.2883 45.4918 34.7026 45.8914C35.485 46.735 35.8533 47.5786 36.0374 47.9782C36.3135 48.8218 36.3596 50.3314 36.3596 50.509H24.2081C24.2081 50.3314 24.2081 49.7986 24.2081 49.7986C24.2081 49.4878 24.2541 49.177 24.3001 48.8662C24.3462 48.6886 24.3922 48.511 24.4382 48.289C24.4382 48.289 24.4382 48.289 24.4382 48.2446C24.4842 48.1558 24.4842 48.0226 24.5303 47.9338C24.6684 47.4898 25.0366 46.6462 25.8651 45.847C26.1413 45.5362 26.6476 45.181 27.1539 44.8702C27.2459 44.8258 27.292 44.737 27.338 44.6482L27.5221 44.515C27.6142 44.4262 27.7062 44.3374 27.7983 44.2486L27.8443 44.2042L27.8903 44.1598L28.3046 43.5382L28.3506 43.4938C28.3506 43.4938 28.3506 43.4494 28.3967 43.4494C28.4427 43.2718 28.3967 43.0942 28.3046 43.0054C27.9824 42.6946 27.7062 42.3394 27.384 41.851C27.1079 41.4514 26.8777 41.0518 26.6936 40.6078C26.6476 40.4746 26.5095 40.3858 26.4174 40.3414C25.9572 40.2082 25.635 39.8974 25.4969 39.4978C25.3588 39.0982 25.4969 38.6542 25.773 38.3434C25.8651 38.2546 25.9111 38.1214 25.8651 37.9882L25.773 37.6774C25.727 37.2334 25.635 36.5674 25.9111 35.857C25.9572 35.7682 25.9572 35.7239 26.0032 35.6795L26.2794 35.4575C26.4174 35.3243 26.4635 35.1467 26.4174 34.9691C26.2794 34.6583 26.2333 34.1699 26.7857 33.7703L26.8317 33.7259C27.0158 33.5483 28.0745 32.6159 29.8696 32.6159ZM29.8696 32.1719C27.8903 32.1719 26.6936 33.1931 26.5095 33.4151C25.773 33.9479 25.773 34.6139 25.9572 35.1023L25.5889 35.4131L25.5429 35.5019C25.5429 35.5463 25.4969 35.6351 25.4508 35.7239C25.1747 36.523 25.2207 37.2334 25.3128 37.7218C25.3128 37.7218 25.3588 37.8994 25.3588 37.9882C24.9906 38.4322 24.8525 39.0094 25.0366 39.5422C25.2207 40.1194 25.681 40.5634 26.2794 40.6966C26.5095 41.1406 26.7396 41.5846 27.0158 41.9842C27.338 42.4726 27.6602 42.8722 27.9824 43.2274V43.2718L27.5681 43.8934L27.5221 43.9378C27.4301 44.0266 27.384 44.071 27.292 44.1598L26.9237 44.4706L26.9698 44.515C26.5095 44.8258 25.9572 45.2254 25.5889 45.5806C24.7604 46.4686 24.3462 47.3566 24.162 47.845C24.116 47.9782 24.07 48.067 24.07 48.2002C24.024 48.4222 23.9779 48.5998 23.9319 48.8218C23.8859 49.1326 23.8398 49.4878 23.8398 49.843V50.5534V50.9974H36.7738V50.5534C36.7738 50.5534 36.7738 48.8218 36.4516 47.845C36.2675 47.401 35.8993 46.4686 35.0248 45.5806C34.6105 45.1366 34.1042 44.737 33.5518 44.4262L33.1376 44.1154L33.0455 43.9822C32.9535 43.849 32.8614 43.7158 32.7694 43.5826C32.6773 43.4494 32.5852 43.3162 32.4932 43.2274C32.7694 42.9166 33.0455 42.5614 33.3677 42.073C33.5979 41.6734 33.828 41.2294 34.0582 40.8298C34.6105 40.6966 35.1168 40.2082 35.3009 39.5422C35.439 38.965 35.3469 38.3878 35.0708 37.9882C35.0708 37.8994 35.1168 37.8106 35.1168 37.7218C35.1628 37.1446 35.2549 36.3898 34.9327 35.4131C34.7946 35.0135 34.4724 33.9923 33.4598 33.1931C32.4011 32.3495 31.2044 32.2163 30.56 32.2163C30.56 32.2163 30.56 32.2163 30.514 32.2163C30.2378 32.2163 30.0537 32.1719 29.8696 32.1719Z" fill="#727272"/>
<path d="M4.1875 50.776V49.8436C4.1875 49.5328 4.23353 49.1776 4.27956 48.8668C4.32559 48.6892 4.37161 48.4672 4.41764 48.2896C4.46367 48.1564 4.46367 48.0676 4.5097 47.9344C4.64778 47.4904 5.06204 46.6024 5.89055 45.7588C6.21275 45.448 6.67304 45.0928 7.22538 44.7376C7.2714 44.6932 7.31743 44.6488 7.31743 44.5601L7.54758 44.3825C7.63963 44.2937 7.73169 44.2493 7.77772 44.1605C7.77772 44.1605 7.82375 44.1161 7.82375 44.0717L8.238 43.4501V43.4057C8.28403 43.3169 8.28403 43.1837 8.19197 43.1393C7.86977 42.8285 7.5936 42.4289 7.2714 41.9405C6.99523 41.5409 6.76509 41.0969 6.58098 40.6529C6.53495 40.6085 6.48892 40.5641 6.44289 40.5197C5.93658 40.3865 5.52232 39.9869 5.38424 39.4985C5.24615 39.0101 5.33821 38.5217 5.66041 38.1221C5.70644 38.0777 5.70644 37.9889 5.70644 37.9445L5.66041 37.6781C5.61438 37.2341 5.52232 36.5237 5.7985 35.7689C5.84452 35.6801 5.84452 35.5913 5.89055 35.5469V35.5025L6.21275 35.2361C6.30481 35.1917 6.30481 35.1029 6.30481 35.0141C6.21275 34.6589 6.12069 34.0373 6.76509 33.5933C6.99523 33.3713 8.09992 32.3945 9.98708 32.3945C10.1712 32.3945 10.3553 32.3945 10.5394 32.4389H10.5855C11.1838 32.4389 12.3345 32.5721 13.3472 33.3713C14.3138 34.1261 14.636 35.1473 14.774 35.5025C15.0502 36.3905 15.0042 37.1453 14.9121 37.7225C14.9121 37.8113 14.9121 37.9001 14.8661 37.9889C14.8661 38.0333 14.8661 38.1221 14.9121 38.1665C15.1883 38.5217 15.2804 39.0101 15.1423 39.5429C15.0042 40.1201 14.5899 40.5641 14.0836 40.6973C13.9916 40.6973 13.9455 40.7417 13.8995 40.8305C13.7154 41.2745 13.4852 41.6741 13.2551 42.0737C12.9789 42.5177 12.7028 42.9173 12.4266 43.1837C12.3345 43.2725 12.3345 43.4057 12.4266 43.4945C12.5186 43.5833 12.6107 43.7165 12.7028 43.8053C12.7948 43.9385 12.8869 44.0717 12.9789 44.2049L13.071 44.3381L13.4392 44.6932L13.4852 44.7376C13.9916 45.0484 14.4979 45.4036 14.9121 45.8476C15.7406 46.6912 16.1089 47.5792 16.293 48.0232C16.6152 48.9556 16.6152 50.6428 16.6152 50.6428V50.8648H4.1875V50.776Z" fill="#727272"/>
<path d="M10.0297 32.6159C10.2138 32.6159 10.398 32.6159 10.5821 32.6603H10.6741C11.2265 32.6603 12.3311 32.7935 13.2977 33.5483C14.2183 34.2587 14.5405 35.2355 14.6326 35.5907C14.9087 36.4342 14.8167 37.1446 14.7707 37.7218C14.7707 37.8106 14.7707 37.8994 14.7246 37.9882C14.7246 38.1214 14.7246 38.2102 14.8167 38.3434C15.0468 38.6098 15.0928 39.0538 15.0008 39.4978C14.8627 39.9862 14.4945 40.3858 14.1263 40.4746C13.9882 40.519 13.8501 40.6078 13.8041 40.741C13.6199 41.185 13.3898 41.5846 13.1597 41.9398C12.8835 42.3838 12.6073 42.739 12.3311 43.0054C12.1931 43.183 12.1931 43.405 12.3311 43.5826C12.4232 43.6714 12.4692 43.7602 12.5613 43.8934C12.6533 44.0266 12.7454 44.1598 12.8835 44.293L12.9755 44.4262L13.0216 44.4706L13.3898 44.7814C13.4358 44.8258 13.4358 44.8258 13.4819 44.8258C13.9882 45.1366 14.4485 45.4918 14.8627 45.8914C15.6452 46.735 16.0134 47.5786 16.1975 47.9782C16.4737 48.8218 16.5197 50.3314 16.5197 50.509H4.41426C4.41426 50.3314 4.41426 49.7986 4.41426 49.7986C4.41426 49.4878 4.46028 49.177 4.50631 48.8662C4.55234 48.6886 4.59837 48.511 4.6444 48.289C4.6444 48.289 4.6444 48.289 4.6444 48.2446C4.69043 48.1558 4.69043 48.0226 4.73645 47.9338C4.87454 47.4898 5.24277 46.6462 6.07128 45.847C6.34745 45.5362 6.85376 45.181 7.36007 44.8702C7.45213 44.8258 7.49816 44.737 7.54419 44.6482L7.7283 44.515C7.82036 44.4262 7.91242 44.3374 8.00447 44.2486L8.0505 44.2042L8.09653 44.1598L8.51079 43.5382L8.55681 43.4938C8.55681 43.4938 8.55681 43.4494 8.60284 43.4494C8.64887 43.2718 8.60284 43.0942 8.51079 43.0054C8.18859 42.6946 7.91242 42.3394 7.59022 41.851C7.31405 41.4514 7.0839 41.0518 6.89979 40.6078C6.85376 40.4746 6.71568 40.3858 6.62362 40.3414C6.16334 40.2082 5.84114 39.8974 5.70305 39.4978C5.56497 39.0982 5.70305 38.6542 5.97922 38.3434C5.93319 38.2102 5.97922 38.077 5.97922 37.9438L5.93319 37.6774C5.88717 37.2334 5.79511 36.5674 6.07128 35.857C6.11731 35.7682 6.11731 35.7239 6.16334 35.6795L6.43951 35.4575C6.57759 35.3243 6.62362 35.1467 6.57759 34.9691C6.43951 34.6583 6.39348 34.1699 6.94582 33.7703L6.99185 33.7259C7.17596 33.5483 8.23461 32.6159 10.0297 32.6159ZM10.0297 32.1719C8.0505 32.1719 6.85376 33.1931 6.66965 33.4151C5.93319 33.9035 5.93319 34.6139 6.11731 35.1023L5.74908 35.4131L5.70305 35.5019C5.70305 35.5463 5.65702 35.6351 5.61099 35.7239C5.33482 36.523 5.38085 37.2334 5.47291 37.7218C5.47291 37.7218 5.51894 37.8994 5.51894 37.9882C5.15071 38.4322 5.01263 39.0094 5.19674 39.5422C5.38085 40.1194 5.84114 40.5634 6.43951 40.6966C6.66965 41.1406 6.89979 41.5846 7.17596 41.9842C7.49816 42.4726 7.82036 42.8722 8.14256 43.2274V43.2718L7.7283 43.8934L7.68227 43.9378C7.59022 44.0266 7.54419 44.071 7.45213 44.1598L7.0839 44.4706L7.12993 44.515C6.66965 44.8258 6.11731 45.2254 5.74908 45.5806C4.92057 46.4686 4.50631 47.3566 4.3222 47.845C4.27617 47.9782 4.23014 48.067 4.23014 48.2002C4.18411 48.4222 4.13809 48.5998 4.09206 48.8218C4.04603 49.1326 4 49.4878 4 49.843V50.5534V50.9974H16.934V50.5534C16.934 50.5534 16.934 48.8218 16.6118 47.845C16.4277 47.401 16.0594 46.4686 15.1849 45.5806C14.7707 45.1366 14.2643 44.737 13.712 44.4262L13.3438 44.1154L13.2057 43.9822C13.1136 43.849 13.0216 43.7158 12.9295 43.5826C12.8375 43.4494 12.7454 43.3162 12.6533 43.2274C12.9295 42.9166 13.2057 42.5614 13.5279 42.073C13.758 41.6734 13.9882 41.2294 14.2183 40.8298C14.7707 40.6966 15.277 40.2082 15.4611 39.5422C15.5992 38.965 15.5071 38.3878 15.2309 37.9882C15.2309 37.8994 15.277 37.8106 15.277 37.7218C15.323 37.1446 15.415 36.3898 15.0928 35.4131C14.9548 35.0135 14.6326 33.9923 13.6199 33.1931C12.5613 32.3495 11.3645 32.2163 10.7201 32.2163C10.7201 32.2163 10.7202 32.2163 10.6741 32.2163C10.444 32.2163 10.2138 32.1719 10.0297 32.1719Z" fill="#727272"/>
<path d="M10.7676 26.9284V25.996C10.7676 25.6852 10.8136 25.33 10.8596 25.0192C10.9057 24.8416 10.9517 24.6196 10.9977 24.442C11.0437 24.3088 11.0437 24.22 11.0898 24.0868C11.2279 23.6428 11.6421 22.7548 12.4706 21.9112C12.7928 21.6004 13.2531 21.2008 13.8055 20.89C13.8515 20.8456 13.8975 20.8012 13.8975 20.7124L14.1277 20.5348C14.2197 20.446 14.3118 20.4016 14.3578 20.3128C14.3578 20.3128 14.4038 20.2684 14.4038 20.224L14.8181 19.6024V19.558C14.8641 19.4692 14.8641 19.336 14.7721 19.2916C14.4499 18.9808 14.1737 18.5812 13.8515 18.0928C13.5753 17.6932 13.3452 17.2492 13.1611 16.8052C13.115 16.7608 13.069 16.7164 13.023 16.672C12.5167 16.5388 12.1024 16.1392 11.9643 15.6508C11.8262 15.1624 11.9183 14.674 12.2405 14.2744C12.2865 14.23 12.2865 14.1412 12.2865 14.0968L12.2405 13.8304C12.1945 13.3864 12.1024 12.676 12.3786 11.9213C12.4246 11.8325 12.4246 11.7437 12.4706 11.6993V11.6549L12.7928 11.3885C12.8849 11.3441 12.8849 11.2553 12.8849 11.1665C12.7928 10.8113 12.7008 10.1897 13.3452 9.74567C13.5753 9.52367 14.68 8.54688 16.5672 8.54688C16.7513 8.54688 16.9354 8.54687 17.1195 8.59127H17.1655C17.7639 8.59127 18.9146 8.72447 19.9272 9.52367C20.8938 10.2785 21.216 11.2997 21.3541 11.6549C21.6303 12.5428 21.5843 13.2976 21.4922 13.8748C21.4922 13.9636 21.4922 14.0524 21.4462 14.1412C21.4462 14.1856 21.4462 14.2744 21.4922 14.3188C21.7684 14.674 21.8604 15.1624 21.7223 15.6952C21.5843 16.2724 21.17 16.7164 20.6637 16.8496C20.5716 16.8496 20.5256 16.894 20.4796 16.9828C20.2955 17.4268 20.0653 17.8264 19.8352 18.226C19.559 18.67 19.2828 19.0696 19.0067 19.336C18.9146 19.4248 18.9146 19.558 19.0067 19.6468C19.0987 19.7356 19.1908 19.8688 19.2828 19.9576C19.3749 20.0908 19.467 20.224 19.559 20.3572L19.6511 20.4904L20.0193 20.8456L20.0653 20.89C20.5716 21.2008 21.0779 21.556 21.4922 22C22.3207 22.8436 22.6889 23.7316 22.8731 24.1756C23.1953 25.108 23.1953 26.7952 23.1953 26.7952V27.0172H10.7676V26.9284Z" fill="#727272"/>
<path d="M16.6608 8.81509C16.845 8.81509 17.0291 8.81509 17.2132 8.85949H17.2592C17.8116 8.85949 18.9162 8.99269 19.8828 9.74748C20.8034 10.4579 21.1256 11.4347 21.2177 11.7899C21.4938 12.6335 21.4018 13.3439 21.3557 13.9211C21.3557 14.0099 21.3557 14.0987 21.3097 14.1875C21.3097 14.3207 21.3097 14.4095 21.4018 14.5427C21.6319 14.8091 21.6779 15.253 21.5859 15.697C21.4478 16.1854 21.0796 16.585 20.7113 16.6738C20.5733 16.7182 20.4352 16.807 20.3891 16.9402C20.205 17.3842 19.9749 17.7838 19.7447 18.139C19.4686 18.583 19.1924 18.9382 18.9162 19.2046C18.7782 19.3822 18.7782 19.6042 18.9162 19.7818C19.0083 19.8706 19.0543 19.9594 19.1464 20.0926C19.2384 20.2258 19.3305 20.359 19.4686 20.4922L19.5606 20.6254L19.6067 20.6698L19.9749 20.9806C20.0209 21.025 20.0209 21.025 20.0669 21.025C20.5733 21.3358 21.0335 21.691 21.4478 22.0906C22.2303 22.9342 22.5985 23.7778 22.7826 24.1774C23.0588 25.021 23.1048 26.5306 23.1048 26.7082H10.9993C10.9993 26.5306 10.9993 25.9978 10.9993 25.9978C10.9993 25.687 11.0454 25.3762 11.0914 25.0654C11.1374 24.8878 11.1835 24.7102 11.2295 24.4882C11.2295 24.4882 11.2295 24.4882 11.2295 24.4438C11.2755 24.355 11.2755 24.2218 11.3215 24.133C11.4596 23.689 11.8279 22.8454 12.6564 22.0462C12.9325 21.7354 13.4389 21.3802 13.9452 21.0694C14.0372 21.025 14.0833 20.9362 14.1293 20.8474L14.3134 20.7142L14.5896 20.4478L14.6356 20.4034L14.6816 20.359L15.0959 19.7374L15.1419 19.693C15.1419 19.693 15.1419 19.6486 15.1879 19.6486C15.234 19.471 15.1879 19.2934 15.0959 19.2046C14.7737 18.8938 14.4975 18.5386 14.1753 18.0502C13.8991 17.6506 13.669 17.251 13.4849 16.807C13.4389 16.6738 13.3008 16.585 13.2087 16.5406C12.7484 16.4074 12.4262 16.0966 12.2881 15.697C12.1501 15.2974 12.2881 14.8535 12.5643 14.5427C12.6564 14.4539 12.7024 14.3207 12.6564 14.1875L12.6103 13.9211C12.5643 13.4771 12.4723 12.8111 12.7484 12.1007C12.7945 12.0119 12.7945 11.9675 12.8405 11.9231L13.1167 11.7011C13.2547 11.5679 13.3008 11.3903 13.2547 11.2127C13.1627 10.8575 13.1167 10.4135 13.669 10.0139L13.715 9.96948C13.8071 9.74748 14.8197 8.81509 16.6608 8.81509ZM16.6608 8.37109C14.6816 8.37109 13.4849 9.39229 13.3008 9.61429C12.5643 10.1027 12.5643 10.8131 12.7484 11.3015L12.3802 11.6123L12.3342 11.7011C12.3342 11.7455 12.2881 11.8343 12.2421 11.9231C11.9659 12.7223 12.012 13.4327 12.104 13.9211C12.104 13.9211 12.1501 14.0987 12.1501 14.1875C11.7818 14.6315 11.6437 15.2086 11.8279 15.7414C12.012 16.3186 12.4723 16.7626 13.0706 16.8958C13.3008 17.3398 13.5309 17.7838 13.8071 18.1834C14.1293 18.6718 14.4515 19.0714 14.7737 19.4266V19.471L14.2674 20.137L14.2213 20.1814C14.1293 20.2702 14.0833 20.3146 13.9912 20.4034L13.623 20.7142L13.669 20.7586C13.2087 21.0694 12.6564 21.469 12.2881 21.8242C11.4596 22.7122 11.0454 23.6002 10.8613 24.0886C10.8152 24.2218 10.7692 24.3106 10.7692 24.4438C10.7232 24.6658 10.6771 24.8434 10.6311 25.0654C10.5851 25.3762 10.5391 25.7314 10.5391 26.0866V26.797V27.241H23.4731V26.797C23.4731 26.797 23.4731 25.0654 23.1509 24.0886C22.9667 23.6446 22.5985 22.7122 21.724 21.8242C21.3097 21.3802 20.8034 20.9806 20.2511 20.6698L19.8828 20.359L19.7908 20.2258C19.6987 20.0926 19.6067 19.9594 19.5146 19.8262C19.4226 19.693 19.3305 19.5598 19.2384 19.471C19.5146 19.1602 19.7908 18.805 20.113 18.3166C20.3431 17.917 20.5733 17.473 20.8034 17.0734C21.3557 16.9402 21.8621 16.4518 22.0462 15.7858C22.1843 15.2086 22.0922 14.6315 21.816 14.2319C21.816 14.1431 21.8621 14.0543 21.8621 13.9655C21.9081 13.3883 22.0001 12.6335 21.6779 11.6567C21.5399 11.2571 21.2177 10.2359 20.205 9.43669C19.1464 8.59309 17.9496 8.45989 17.3052 8.45989C17.3052 8.45989 17.3052 8.45989 17.2592 8.45989C17.0291 8.41549 16.845 8.37109 16.6608 8.37109Z" fill="#727272"/>
</svg>
