<svg width="75" height="75" viewBox="0 0 75 75" fill="none" xmlns="http://www.w3.org/2000/svg">
<path fill-rule="evenodd" clip-rule="evenodd" d="M42.003 5.93345C42.5184 7.38364 43.462 8.52621 44.5781 8.47084C44.6156 8.46923 44.6533 8.46908 44.6915 8.47084C45.8076 8.52636 46.7513 7.38291 47.2667 5.93345C47.5002 5.27698 47.6359 4.58976 47.6695 3.89382C47.7069 3.24778 47.6286 2.60025 47.4382 1.98177C47.0697 0.851801 46.188 0.00410153 44.6351 0C43.0821 0.00410153 42.2003 0.851801 41.8319 1.98177C41.6414 2.60025 41.5631 3.24778 41.6005 3.89382C41.6341 4.58976 41.7698 5.27698 42.0033 5.93345H42.003ZM41.7686 9.8469C41.3132 10.2131 40.8747 10.5344 40.453 10.8109C39.7979 11.25 39.0946 11.6125 38.3569 11.8914C38.2221 11.934 38.0987 12.0067 37.996 12.1039C37.8934 12.2011 37.814 12.3203 37.764 12.4525C37.5047 13.0632 37.3344 13.708 37.2583 14.3671C37.1794 15.0617 37.1814 15.7631 37.2643 16.4573C38.4754 16.6929 39.6737 16.8684 40.8591 16.9837C42.119 17.1065 43.3774 17.1669 44.6344 17.1651C45.8895 17.167 47.148 17.1066 48.4098 16.9837C49.5938 16.8685 50.7921 16.693 52.0046 16.4573C52.0874 15.7631 52.0894 15.0617 52.0106 14.3671C51.9345 13.708 51.7641 13.0632 51.5047 12.4525C51.4548 12.3203 51.3755 12.2011 51.2729 12.1039C51.1702 12.0067 51.0469 11.934 50.9121 11.8914C50.1746 11.6123 49.4715 11.2497 48.8166 10.8105C48.3948 10.5339 47.9562 10.2126 47.501 9.84646C46.6959 10.5158 45.6819 10.8822 44.6349 10.8822C43.5878 10.8822 42.5738 10.5158 41.7687 9.84646L41.7686 9.8469ZM6.70038 8.8725C7.48199 11.0697 8.95772 12.8009 10.7455 12.7121C10.7828 12.7104 10.8206 12.7104 10.8589 12.7121C12.6463 12.8009 14.1223 11.0697 14.9039 8.8725C15.2437 7.91621 15.4412 6.9152 15.4899 5.90152C15.5446 4.94751 15.4283 3.9914 15.1464 3.07835C14.5734 1.32289 13.2062 0.00644527 10.8021 0C8.39822 0.00629878 7.03104 1.32274 6.45865 3.0782C6.1766 3.99123 6.0602 4.94735 6.11495 5.90137C6.16371 6.91505 6.36116 7.91606 6.70097 8.87235L6.70038 8.8725ZM6.83224 13.5371C6.16138 14.0963 5.46028 14.6182 4.7321 15.1004C3.85232 15.691 2.90769 16.1788 1.91672 16.5542C1.67048 16.6398 1.44444 16.775 1.25261 16.9515C1.0662 17.1332 0.919097 17.3512 0.820426 17.5921C0.442487 18.482 0.194173 19.4214 0.0830686 20.3818C-0.0373413 21.449 -0.0268125 22.5269 0.114421 23.5916C0.118106 23.6348 0.135215 23.6758 0.163353 23.7088C0.194107 23.7392 0.233603 23.7592 0.276308 23.766C2.03202 24.114 3.77698 24.3723 5.51121 24.5411C7.27541 24.713 9.03913 24.7976 10.8024 24.7951C12.5633 24.7976 14.3271 24.713 16.0937 24.5411C17.8257 24.3723 19.5707 24.114 21.3286 23.766C21.3718 23.7608 21.4118 23.7403 21.4413 23.7083C21.4708 23.6763 21.488 23.6348 21.4897 23.5913C21.631 22.5266 21.6415 21.4487 21.5211 20.3815C21.4098 19.4211 21.1612 18.4816 20.7828 17.5918C20.6875 17.3489 20.5399 17.1301 20.3504 16.9507C20.161 16.7713 19.9344 16.6359 19.6867 16.5539C18.6957 16.1785 17.7511 15.6907 16.8713 15.1001C16.1433 14.6179 15.4424 14.0962 14.7716 13.5371C13.6728 14.5689 12.3262 15.1829 10.8021 15.1238C9.27842 15.1824 7.93205 14.5689 6.83268 13.5371H6.83224ZM57.2444 33.4588C58.1821 36.0967 59.9719 38.1743 62.1557 38.0659C62.1932 38.0643 62.231 38.0641 62.2691 38.0659C64.4529 38.1743 66.2423 36.0967 67.1805 33.4588C67.5828 32.3258 67.8163 31.1398 67.8736 29.9389C67.9385 28.8033 67.7996 27.6654 67.4634 26.5788C66.7709 24.4548 65.1177 22.8618 62.212 22.854C59.3062 22.8618 57.6532 24.4547 56.9605 26.5788C56.6245 27.6654 56.4855 28.8033 56.5503 29.9389C56.6076 31.1398 56.8412 32.3258 57.2436 33.4588H57.2444ZM57.596 38.5612C56.7779 39.2502 55.921 39.8919 55.0294 40.4829C54.0171 41.1627 52.9303 41.7242 51.7901 42.1566C51.4759 42.2617 51.1884 42.4342 50.9478 42.6619C50.7072 42.8896 50.5192 43.167 50.397 43.4749C49.5064 45.5512 49.2269 47.9158 49.5585 50.5687C49.566 50.6614 49.6045 50.7488 49.6678 50.8169C49.7311 50.885 49.8155 50.9298 49.9073 50.9441C51.9561 51.3501 53.996 51.6519 56.0271 51.8495C58.0884 52.0504 60.15 52.1493 62.2118 52.1463C64.2711 52.1492 66.3326 52.0503 68.3965 51.8495C70.425 51.652 72.4649 51.3502 74.5163 50.9441C74.6082 50.9299 74.6926 50.8851 74.756 50.817C74.8193 50.7489 74.8578 50.6614 74.8653 50.5687C75.0318 49.3122 75.044 48.0401 74.9016 46.7806C74.7697 45.6425 74.4751 44.5293 74.0267 43.4749C73.9044 43.167 73.7164 42.8896 73.4758 42.6619C73.2352 42.4342 72.9477 42.2617 72.6336 42.1566C71.4934 41.7242 70.4065 41.1627 69.3942 40.4829C68.5027 39.8919 67.6458 39.2502 66.8277 38.5612C65.5583 39.8035 63.991 40.5488 62.2118 40.4776C60.4327 40.5488 58.8655 39.8038 57.596 38.5612ZM10.8922 48.7227C12.2607 52.5704 14.9108 55.5986 18.1811 55.4363C18.2186 55.4346 18.2564 55.4344 18.2945 55.4363C21.5647 55.5986 24.2148 52.5704 25.5835 48.7227C26.1577 47.1047 26.4908 45.411 26.5723 43.6961C26.6652 42.0624 26.4649 40.4253 25.9808 38.8622C24.9585 35.7264 22.5208 33.3748 18.2378 33.3635C13.9548 33.3748 11.5172 35.7264 10.4947 38.8622C10.0107 40.4253 9.81036 42.0624 9.90326 43.6961C9.98468 45.4111 10.3179 47.1047 10.8922 48.7227ZM11.8553 55.0162C13.5877 56.8417 15.7604 57.9525 18.2378 57.8479C20.7153 57.9525 22.8878 56.8417 24.6204 55.0162C25.8438 56.0659 27.1306 57.0394 28.4734 57.9312C29.8493 58.8561 31.3266 59.6203 32.8765 60.2089C33.3735 60.3777 33.8281 60.6519 34.2093 61.0127C34.5905 61.3735 34.8892 61.8124 35.0849 62.2994C35.7257 63.8052 36.1468 65.3952 36.3355 67.0207C36.5379 68.8078 36.5209 70.6129 36.2849 72.3959C36.2621 72.6232 36.1654 72.8368 36.0098 73.004C35.8542 73.1713 35.6481 73.283 35.423 73.3222C32.5698 73.8878 29.7204 74.309 26.8748 74.5858C23.998 74.866 21.119 75.004 18.2378 74.9999C15.3601 75.0041 12.4811 74.8661 9.60073 74.5858C6.75855 74.309 3.90913 73.8878 1.05249 73.3222C0.828513 73.2806 0.623413 73.1693 0.466471 73.0042C0.312823 72.8356 0.216467 72.6226 0.191189 72.3959C-0.0448419 70.613 -0.061816 68.8079 0.140645 67.0208C0.329158 65.3953 0.750112 63.8053 1.39062 62.2994C1.59097 61.8153 1.88879 61.3777 2.26555 61.0137C2.65003 60.657 3.10385 60.3833 3.59874 60.2096C5.14858 59.621 6.62589 58.8568 8.00178 57.932C9.34453 57.04 10.6313 56.0665 11.8549 55.0169L11.8553 55.0162ZM33.9335 58.0316C34.9992 58.6501 35.7507 59.1719 36.1881 59.5968L48.9329 53.1651C49.0153 53.1976 49.0995 53.2266 49.1855 53.252C48.4425 52.8809 47.7976 52.2339 47.2508 51.3111L33.9335 58.0316ZM22.121 26.051C22.878 25.741 23.4477 25.1268 23.83 24.2086L52.8525 38.9887C51.9818 39.5167 51.0605 39.9563 50.1023 40.3009L22.121 26.051ZM23.7024 18.8133L34.8404 16.5255C34.8461 16.5859 34.8524 16.6465 34.8591 16.7073C34.8796 15.6869 34.8803 14.8044 34.861 14.0599L22.942 16.5087C23.1524 17.2904 23.4063 18.0598 23.7024 18.8133Z" fill="#0071E3"/>
</svg>
