<svg width="75" height="75" viewBox="0 0 75 75" fill="none" xmlns="http://www.w3.org/2000/svg">
<path d="M0 0V24.9023H24.9023V0H0ZM19.043 19.043H5.85938V5.85938H19.043V19.043Z" fill="#0071E3"/>
<path d="M15.3809 9.52148H9.52148V15.3809H15.3809V9.52148Z" fill="#0071E3"/>
<path d="M50.0977 0V24.9023H75V0H50.0977ZM69.1406 19.043H55.957V5.85938H69.1406V19.043Z" fill="#0071E3"/>
<path d="M65.4785 9.52148H59.6191V15.3809H65.4785V9.52148Z" fill="#0071E3"/>
<path d="M0 50.0977V75H24.9023V50.0977H0ZM19.043 69.1406H5.85938V55.957H19.043V69.1406Z" fill="#0071E3"/>
<path d="M15.3809 59.6191H9.52148V65.4785H15.3809V59.6191Z" fill="#0071E3"/>
<path d="M11.7188 28.8574H5.85938V34.7168H11.7188V28.8574Z" fill="#0071E3"/>
<path d="M17.5781 40.5762V34.7168H11.7188V40.5762H17.4316V46.4355H23.291V40.5762H17.5781Z" fill="#0071E3"/>
<path d="M46.875 11.2793H41.0156V17.1387H46.875V11.2793Z" fill="#0071E3"/>
<path d="M35.1562 5.85938H29.2969V17.1387H35.1562V5.85938Z" fill="#0071E3"/>
<path d="M41.0156 0H35.1562V5.85938H41.0156V0Z" fill="#0071E3"/>
<path d="M35.1562 17.1387V22.998H29.2969V28.8574H41.0156V17.1387H35.1562Z" fill="#0071E3"/>
<path d="M41.0156 52.002V46.2891H35.1562V34.7168H29.2969V46.4355H35.1562V52.1484H41.0156V57.8613H52.7344V52.002H41.0156Z" fill="#0071E3"/>
<path d="M46.875 28.8574H41.0156V40.5762H46.875V28.8574Z" fill="#0071E3"/>
<path d="M69.1406 34.5703V28.8574H58.4473V34.7168H52.7344V40.5762H58.5938V46.2891H75V34.5703H69.1406ZM69.1406 40.4297H58.5938V34.7168H69.1406V40.4297Z" fill="#0071E3"/>
<path d="M75 52.002H69.1406V63.7207H75V52.002Z" fill="#0071E3"/>
<path d="M52.7344 40.5762H46.875V46.4355H52.7344V40.5762Z" fill="#0071E3"/>
<path d="M58.5938 57.8613H52.7344V63.7207H58.5938V57.8613Z" fill="#0071E3"/>
<path d="M64.4531 52.002H58.5938V57.8613H64.4531V52.002Z" fill="#0071E3"/>
<path d="M58.5938 63.7207V75H64.4531V69.5801H69.1406V63.7207H58.5938Z" fill="#0071E3"/>
<path d="M35.1562 52.1484H29.2969V63.2812H35.1562V52.1484Z" fill="#0071E3"/>
<path d="M46.875 69.1406V63.2812H35.1562V75H41.0156V69.1406H46.7285V75H52.5879V69.1406H46.875Z" fill="#0071E3"/>
<path d="M29.2969 28.8574H17.5781V34.7168H29.2969V28.8574Z" fill="#0071E3"/>
<path d="M5.85938 34.7168H0V46.4355H5.85938V34.7168Z" fill="#0071E3"/>
</svg>
