<svg width="33" height="32" viewBox="0 0 33 32" fill="none" xmlns="http://www.w3.org/2000/svg">
<path d="M16.7143 5C17.9767 5 19 6.11929 19 7.5C19 8.88071 17.9767 10 16.7143 10H5.28571C4.02335 10 3 8.88071 3 7.5C3 6.11929 4.02335 5 5.28571 5H16.7143Z" fill="#0071E3"/>
<path d="M16.7143 11C17.9767 11 19 12.1193 19 13.5C19 14.8807 17.9767 16 16.7143 16H5.28571C4.02335 16 3 14.8807 3 13.5C3 12.1193 4.02335 11 5.28571 11H16.7143Z" fill="#0071E3"/>
<circle cx="24.5" cy="22.5" r="5.5" fill="#0071E3"/>
<path d="M16.7143 17C17.9767 17 19 18.1193 19 19.5C19 20.8807 17.9767 22 16.7143 22H5.28571C4.02335 22 3 20.8807 3 19.5C3 18.1193 4.02335 17 5.28571 17H16.7143Z" fill="#0071E3"/>
<path d="M16.7143 23C17.9767 23 19 24.1193 19 25.5C19 26.8807 17.9767 28 16.7143 28H5.28571C4.02335 28 3 26.8807 3 25.5C3 24.1193 4.02335 23 5.28571 23H16.7143Z" fill="#0071E3"/>
</svg>
