<svg width="56" height="56" viewBox="0 0 56 56" fill="none" xmlns="http://www.w3.org/2000/svg">
<rect width="56" height="56" rx="8" fill="#0071E3"/>
<path d="M36.6831 35.7178V35.5953C35.6697 35.2874 34.8144 34.6 34.2956 33.6767C33.7768 32.7533 33.6347 31.6653 33.8988 30.6396C33.4681 30.2737 32.4559 29.4231 32.0134 29.0519V39.8505C32.0125 40.1598 31.8892 40.4562 31.6705 40.675C31.4518 40.8937 31.1554 41.017 30.846 41.0179H18.0045V37.5157C18.0046 37.209 17.9442 36.9054 17.8269 36.6221C17.7096 36.3388 17.5376 36.0813 17.3208 35.8645C17.104 35.6477 16.8466 35.4757 16.5633 35.3584C16.2799 35.2411 15.9763 35.1808 15.6697 35.1808H12.1674V18.8371C12.1683 18.5277 12.2916 18.2313 12.5103 18.0126C12.7291 17.7938 13.0255 17.6706 13.3348 17.6697H30.846C31.1554 17.6705 31.4518 17.7938 31.6705 18.0126C31.8893 18.2313 32.0125 18.5277 32.0134 18.8371V24.4757C32.7831 25.1213 35.3476 27.2789 36.1578 27.9604C36.6421 27.7442 37.163 27.6214 37.6929 27.5985L37.8505 27.2308V15.3348C37.8506 15.0282 37.7903 14.7245 37.6729 14.4412C37.5556 14.1579 37.3837 13.9005 37.1668 13.6837C36.95 13.4668 36.6926 13.2949 36.4093 13.1776C36.126 13.0602 35.8223 12.9999 35.5157 13H18.0045C17.6978 12.9999 17.3942 13.0603 17.1109 13.1776C16.8276 13.2949 16.5702 13.4668 16.3533 13.6837C16.1365 13.9005 15.9645 14.1579 15.8472 14.4412C15.7299 14.7245 15.6696 15.0282 15.6697 15.3348V16.5022H13.3348C13.0282 16.5022 12.7245 16.5625 12.4412 16.6798C12.1579 16.7971 11.9005 16.9691 11.6837 17.1859C11.4669 17.4027 11.2949 17.6602 11.1776 17.9435C11.0603 18.2268 10.9999 18.5304 11 18.8371V35.7645C10.9996 35.8414 11.0143 35.9175 11.0434 35.9886C11.0724 36.0597 11.1152 36.1244 11.1693 36.179L17.0063 42.016C17.1167 42.125 17.2657 42.1858 17.4208 42.1853H30.846C31.1527 42.1854 31.4563 42.1251 31.7396 42.0078C32.0229 41.8905 32.2804 41.7185 32.4972 41.5016C32.714 41.2848 32.886 41.0274 33.0033 40.7441C33.1206 40.4608 33.1809 40.1571 33.1808 39.8505V38.6831H35.5157C35.8223 38.6832 36.126 38.6228 36.4093 38.5055C36.6926 38.3882 36.95 38.2162 37.1668 37.9994C37.3837 37.7826 37.5556 37.5252 37.6729 37.2418C37.7902 36.9585 37.8506 36.6549 37.8505 36.3483V35.7645C37.4594 35.7659 37.0701 35.7109 36.6948 35.6011C36.6877 35.6396 36.6838 35.6787 36.6831 35.7178Z" fill="white"/>
<path d="M43.1033 16.5039C42.4841 16.5094 41.8826 16.711 41.3852 17.08C40.8879 17.4489 40.5203 17.966 40.3354 18.557C40.1505 19.148 40.1578 19.7824 40.3563 20.369C40.5547 20.9556 40.934 21.4641 41.4398 21.8215L38.4395 28.8201C38.0218 28.7355 37.5908 28.7426 37.1761 28.8409C36.7615 28.9393 36.3731 29.1266 36.038 29.3898L29.3216 23.7367C29.5831 23.2573 29.7047 22.7141 29.6727 22.169C29.6408 21.6238 29.4564 21.0986 29.1407 20.6531C28.825 20.2075 28.3905 19.8595 27.8868 19.6487C27.3831 19.4378 26.8303 19.3726 26.2913 19.4604C25.7524 19.5482 25.2488 19.7855 24.8381 20.1453C24.4273 20.5051 24.1258 20.973 23.9678 21.4957C23.8098 22.0185 23.8017 22.575 23.9444 23.1021C24.0871 23.6292 24.3748 24.1057 24.775 24.4773L21.3311 30.1043C20.6511 29.8573 19.9036 29.8716 19.2336 30.1446C18.5636 30.4175 18.0188 30.9296 17.7049 31.5814C17.3911 32.2333 17.3305 32.9785 17.535 33.6724C17.7395 34.3664 18.1944 34.9597 18.8116 35.3373C19.4287 35.7148 20.1641 35.8497 20.875 35.7158C21.586 35.5818 22.2219 35.1886 22.6593 34.6124C23.0968 34.0361 23.3046 33.3179 23.2426 32.5971C23.1805 31.8763 22.8529 31.2043 22.3234 30.7113L25.7673 25.0844C26.2344 25.2526 26.7367 25.299 27.2268 25.2195C27.7169 25.1399 28.1786 24.9368 28.5685 24.6294L35.286 30.2825C35.0161 30.7777 34.8954 31.3405 34.9386 31.9028C34.9817 32.4652 35.1868 33.003 35.5291 33.4512C35.8714 33.8995 36.3362 34.239 36.8673 34.4287C37.3985 34.6184 37.9732 34.6502 38.522 34.5202C39.0708 34.3902 39.5702 34.104 39.9598 33.6962C40.3495 33.2885 40.6126 32.7766 40.7175 32.2224C40.8224 31.6683 40.7645 31.0956 40.5508 30.5736C40.3372 30.0517 39.9769 29.6028 39.5135 29.2812L42.5138 22.2826C46.7281 22.9205 47.3549 16.7229 43.1033 16.5039Z" fill="white"/>
</svg>
