<svg width="56" height="56" viewBox="0 0 56 56" fill="none" xmlns="http://www.w3.org/2000/svg">
<rect width="56" height="56" rx="8" fill="#0071E3"/>
<path d="M33.2217 42.8896V40.001C33.2217 39.5 33.0231 39.0193 32.6689 38.665C32.3147 38.3108 31.8339 38.1123 31.333 38.1123H22.666C22.1653 38.1124 21.6852 38.3111 21.3311 38.665C20.9768 39.0193 20.7773 39.5 20.7773 40.001V42.8896C20.7773 43.4419 20.3296 43.8896 19.7773 43.8896C19.2251 43.8896 18.7773 43.4419 18.7773 42.8896V40.001C18.7773 38.9696 19.1868 37.9803 19.916 37.251C20.6453 36.5217 21.6347 36.1124 22.666 36.1123H31.333C32.3644 36.1123 33.3537 36.5217 34.083 37.251C34.8123 37.9803 35.2217 38.9696 35.2217 40.001V42.8896C35.2217 43.4419 34.774 43.8896 34.2217 43.8896C33.6694 43.8896 33.2217 43.4419 33.2217 42.8896ZM20.2217 16.8896V14.001C20.2217 13.4487 20.6694 13.001 21.2217 13.001C21.774 13.001 22.2217 13.4487 22.2217 14.001V16.8896C22.2217 17.4419 21.774 17.8896 21.2217 17.8896C20.6694 17.8896 20.2217 17.4419 20.2217 16.8896ZM31.7773 16.8896V14.001C31.7773 13.4487 32.2251 13.001 32.7773 13.001C33.3296 13.001 33.7773 13.4487 33.7773 14.001V16.8896C33.7773 17.4419 33.3296 17.8896 32.7773 17.8896C32.2251 17.8896 31.7773 17.4419 31.7773 16.8896Z" fill="white"/>
<path d="M30.334 27.0005C30.3338 25.1597 28.8408 23.6675 27 23.6675C25.1593 23.6677 23.6672 25.1598 23.667 27.0005C23.667 28.8413 25.1592 30.3343 27 30.3345C28.8409 30.3345 30.334 28.8414 30.334 27.0005ZM32.334 27.0005C32.334 29.946 29.9455 32.3345 27 32.3345C24.0546 32.3343 21.667 29.9459 21.667 27.0005C21.6672 24.0552 24.0547 21.6677 27 21.6675C29.9454 21.6675 32.3338 24.0551 32.334 27.0005Z" fill="white"/>
<path d="M39 19.7783C38.9999 18.7353 38.1544 17.8898 37.1113 17.8896H16.8887C15.8456 17.8898 15.0001 18.7353 15 19.7783V40.001C15.0001 41.044 15.8456 41.8895 16.8887 41.8896H37.1113C38.1544 41.8895 38.9999 41.044 39 40.001V19.7783ZM41 40.001C40.9999 42.1486 39.2589 43.8895 37.1113 43.8896H16.8887C14.7411 43.8895 13.0001 42.1486 13 40.001V19.7783C13.0001 17.6307 14.7411 15.8898 16.8887 15.8896H37.1113C39.2589 15.8898 40.9999 17.6307 41 19.7783V40.001Z" fill="white"/>
</svg>
