<svg width="56" height="56" viewBox="0 0 56 56" fill="none" xmlns="http://www.w3.org/2000/svg">
<rect width="56" height="56" rx="8" fill="#0071E3"/>
<path d="M39.878 28C39.878 24.6919 39.876 22.3213 39.6418 20.5186C39.4117 18.7473 38.9755 17.6885 38.2217 16.9086C37.4678 16.1288 36.4445 15.6776 34.732 15.4395C32.9891 15.1972 30.6973 15.1951 27.5 15.1951C24.3022 15.1951 22.0106 15.1972 20.268 15.4395C18.5558 15.6776 17.5322 16.1288 16.7783 16.9086C16.0245 17.6884 15.5884 18.7471 15.3582 20.5186C15.1239 22.3216 15.122 24.6924 15.122 28C15.122 31.3081 15.124 33.6787 15.3582 35.4814C15.5883 37.2527 16.0245 38.3115 16.7783 39.0914C17.5322 39.8712 18.5555 40.3224 20.268 40.5605C22.0109 40.8028 24.3027 40.8049 27.5 40.8049C30.6978 40.8049 32.9894 40.8028 34.732 40.5605C36.4442 40.3224 37.4678 39.8712 38.2217 39.0914C38.9755 38.3116 39.4116 37.2529 39.6418 35.4814C39.8761 33.6784 39.878 31.3076 39.878 28ZM19.3659 36.7805V33.8537C19.3659 33.2475 19.8409 32.7561 20.4268 32.7561C21.0128 32.7561 21.4878 33.2475 21.4878 33.8537V36.7805C21.4878 37.3867 21.0128 37.878 20.4268 37.878C19.8409 37.878 19.3659 37.3867 19.3659 36.7805ZM26.439 36.7805V32.3902C26.439 31.7841 26.914 31.2927 27.5 31.2927C28.086 31.2927 28.561 31.7841 28.561 32.3902V36.7805C28.561 37.3867 28.086 37.878 27.5 37.878C26.914 37.878 26.439 37.3867 26.439 36.7805ZM33.5122 36.7805V29.4634C33.5122 28.8572 33.9872 28.3659 34.5732 28.3659C35.1591 28.3659 35.6341 28.8572 35.6341 29.4634V36.7805C35.6341 37.3867 35.1591 37.878 34.5732 37.878C33.9872 37.878 33.5122 37.3867 33.5122 36.7805ZM42 28C42 31.2456 42.0021 33.7912 41.7444 35.7744C41.4826 37.7888 40.9357 39.3877 39.7219 40.6434C38.5081 41.8991 36.9626 42.4648 35.0152 42.7356C33.0983 43.0022 30.6381 43 27.5 43C24.3626 43 21.9019 43.0022 19.9848 42.7356C18.0375 42.4648 16.4919 41.899 15.2781 40.6434C14.0642 39.3877 13.5174 37.7889 13.2556 35.7744C12.9979 33.7913 13 31.2463 13 28C13 24.7544 12.9979 22.2088 13.2556 20.2256C13.5174 18.2112 14.0643 16.6123 15.2781 15.3566C16.4919 14.1009 18.0374 13.5352 19.9848 13.2644C21.9017 12.9978 24.3619 13 27.5 13C30.6374 13 33.0981 12.9978 35.0152 13.2644C36.9625 13.5352 38.5081 14.101 39.7219 15.3566C40.9358 16.6123 41.4826 18.2111 41.7444 20.2256C42.0021 22.2087 42 24.7537 42 28Z" fill="white"/>
<path d="M33.1426 18.0142C33.6099 17.9494 34.0475 18.1168 34.3474 18.2992C34.6417 18.4783 35.03 18.8106 35.2151 19.3334C35.2248 19.3609 35.234 19.3896 35.2418 19.4177L35.9537 21.9871C36.1259 22.609 35.803 23.2651 35.2334 23.4534C34.6633 23.6414 34.0605 23.2895 33.8882 22.6674L33.6622 21.8523C29.5651 28.1979 23.0305 29.0129 19.6884 28.9998L19.0425 28.9876L18.9329 28.9769C18.3913 28.8968 17.982 28.38 18.0006 27.7711C18.0209 27.1219 18.5205 26.614 19.1155 26.6357L19.7193 26.6464C22.7876 26.6561 28.3191 25.8954 31.8087 20.6312L30.7528 20.8181C30.1649 20.9213 29.6118 20.4837 29.5172 19.8421C29.4229 19.2007 29.8224 18.5971 30.4102 18.4938L33.1426 18.0142Z" fill="white"/>
</svg>
