<svg width="56" height="56" viewBox="0 0 56 56" fill="none" xmlns="http://www.w3.org/2000/svg">
<rect width="56" height="56" rx="8" fill="#0071E3"/>
<path d="M17.6244 42C16.8769 42 16.2529 41.755 15.7524 41.2651C15.2519 40.7751 15.0011 40.1637 15 39.4309V19.1166C15 18.3848 15.2508 17.7739 15.7524 17.284C16.254 16.794 16.8785 16.5485 17.626 16.5474H20.5006V13H22.2507V16.5474H33.876V13H35.501V16.5474H38.3756C39.1231 16.5474 39.7477 16.793 40.2492 17.284C40.7508 17.775 41.0011 18.3864 41 19.1182V39.4309C41 40.1626 40.7497 40.774 40.2492 41.2651C39.7487 41.7561 39.1237 42.0011 38.374 42H17.6244ZM17.6244 40.4092H38.3756C38.6248 40.4092 38.8539 40.3074 39.063 40.1038C39.2721 39.9002 39.3761 39.6753 39.375 39.4293V25.4813H16.625V39.4309C16.625 39.6748 16.729 39.8991 16.937 40.1038C17.145 40.3085 17.3741 40.4103 17.6244 40.4092Z" fill="white"/>
<path d="M33.493 27.4472C33.7729 27.1899 34.2076 27.1814 34.4979 27.4394C34.7882 27.6974 34.8309 28.1302 34.6083 28.4384L34.5604 28.4979L26.5604 37.4979C26.4211 37.6547 26.2223 37.7463 26.0126 37.7499C25.8292 37.753 25.6518 37.6889 25.5135 37.5712L25.4569 37.5175L21.4569 33.3173L21.4071 33.2587C21.1741 32.9584 21.2012 32.5246 21.4823 32.2567C21.7634 31.989 22.1985 31.9823 22.4872 32.2294L22.5428 32.2831L25.9803 35.8925L33.4393 27.5019L33.493 27.4472Z" fill="white"/>
</svg>
