<svg width="59" height="59" viewBox="0 0 59 59" fill="none" xmlns="http://www.w3.org/2000/svg">
<g clip-path="url(#clip0_941_3971)">
<path d="M20.7422 48.3976V58.9992H38.1426V48.3976H31.2285V35.638L33.7301 34.3872C34.5843 33.9601 34.9303 32.922 34.5032 32.0679C34.0745 31.2138 33.0364 30.871 32.1839 31.2948L25.2699 34.7518C24.4157 35.1789 24.0697 36.217 24.4968 37.0711C24.9221 37.9194 25.9541 38.2721 26.8161 37.8442L27.7715 37.3665V48.3976H20.7422Z" fill="#0071E3"/>
<path d="M57.2715 0H1.72852C0.782787 0 0 0.775182 0 1.72852V57.2715C0 58.2261 0.773914 59 1.72852 59H17.2852V32.8418C17.2852 31.8864 16.512 31.1133 15.5566 31.1133H13.8281V13.8281H45.1719V31.1133H43.4434C42.4879 31.1133 41.7148 31.8864 41.7148 32.8418V59H57.2715C58.2261 59 59 58.2261 59 57.2715C59 42.9591 59 15.5881 59 1.72852C59 0.969813 58.3307 0 57.2715 0ZM3.45703 5.90127L9.65537 12.0996L3.45703 18.298V5.90127ZM3.45703 26.6435L7.92686 31.1133H3.45703V26.6435ZM8.64258 48.3984C7.68798 48.3984 6.91406 47.6245 6.91406 46.6699C6.91406 45.7151 7.68798 44.9414 8.64258 44.9414C9.59718 44.9414 10.3711 45.7151 10.3711 46.6699C10.3711 47.6245 9.59718 48.3984 8.64258 48.3984ZM8.64258 41.4844C7.68798 41.4844 6.91406 40.7105 6.91406 39.7559C6.91406 38.801 7.68798 38.0273 8.64258 38.0273C9.59718 38.0273 10.3711 38.801 10.3711 39.7559C10.3711 40.7105 9.59718 41.4844 8.64258 41.4844ZM10.3711 28.669L4.17275 22.4707L10.3711 16.2724V28.669ZM11.9828 9.53853L5.90127 3.45703H17.0505L11.9828 9.53853ZM15.791 10.3711L20.7422 4.42938L25.8086 10.3711H15.791ZM24.5488 3.45703H34.451L29.5 9.39886L24.5488 3.45703ZM33.1914 10.3711L38.1426 4.42938L43.209 10.3711H33.1914ZM41.9495 3.45703H53.0987L47.0172 9.53853L41.9495 3.45703ZM48.6289 16.2724L54.8272 22.4707L48.6289 28.669V16.2724ZM50.3574 48.3984C49.4028 48.3984 48.6289 47.6245 48.6289 46.6699C48.6289 45.7151 49.4028 44.9414 50.3574 44.9414C51.312 44.9414 52.0859 45.7151 52.0859 46.6699C52.0859 47.6245 51.312 48.3984 50.3574 48.3984ZM50.3574 41.4844C49.4028 41.4844 48.6289 40.7105 48.6289 39.7559C48.6289 38.801 49.4028 38.0273 50.3574 38.0273C51.312 38.0273 52.0859 38.801 52.0859 39.7559C52.0859 40.7105 51.312 41.4844 50.3574 41.4844ZM55.543 31.1133H51.0731L55.543 26.6435V31.1133ZM55.543 18.298L49.3446 12.0996L55.543 5.90127V18.298Z" fill="#727272"/>
</g>
<defs>
<clipPath id="clip0_941_3971">
<rect width="59" height="59" fill="white"/>
</clipPath>
</defs>
</svg>
