<svg width="56" height="56" viewBox="0 0 56 56" fill="none" xmlns="http://www.w3.org/2000/svg">
<rect width="56" height="56" rx="8" fill="#0071E3"/>
<path d="M21.2266 29.7273H29.5902V31.8182H21.2266V29.7273ZM21.2266 24.5H33.772V26.5909H21.2266V24.5ZM21.2266 34.9545H26.4538V37.0455H21.2266V34.9545Z" fill="white"/>
<path d="M36.9091 16.1364H33.7727V15.0909C33.7727 14.5364 33.5524 14.0045 33.1603 13.6124C32.7682 13.2203 32.2364 13 31.6818 13H23.3182C22.7636 13 22.2318 13.2203 21.8397 13.6124C21.4476 14.0045 21.2273 14.5364 21.2273 15.0909V16.1364H18.0909C17.5364 16.1364 17.0045 16.3567 16.6124 16.7488C16.2203 17.1409 16 17.6727 16 18.2273V40.1818C16 40.7364 16.2203 41.2682 16.6124 41.6603C17.0045 42.0524 17.5364 42.2727 18.0909 42.2727H36.9091C37.4636 42.2727 37.9955 42.0524 38.3876 41.6603C38.7797 41.2682 39 40.7364 39 40.1818V18.2273C39 17.6727 38.7797 17.1409 38.3876 16.7488C37.9955 16.3567 37.4636 16.1364 36.9091 16.1364ZM23.3182 15.0909H31.6818V19.2727H23.3182V15.0909ZM36.9091 40.1818H18.0909V18.2273H21.2273V21.3636H33.7727V18.2273H36.9091V40.1818Z" fill="white"/>
</svg>
