<svg width="59" height="59" viewBox="0 0 59 59" fill="none" xmlns="http://www.w3.org/2000/svg">
<g clip-path="url(#clip0_938_3862)">
<path d="M57.2715 20.8594H55.543V19.1309C55.543 18.1755 54.7699 17.4023 53.8145 17.4023C52.859 17.4023 52.0859 18.1755 52.0859 19.1309V20.8594H50.3574C49.402 20.8594 48.6289 21.6325 48.6289 22.5879C48.6289 23.5433 49.402 24.3164 50.3574 24.3164H52.0859V26.0449C52.0859 27.0003 52.859 27.7734 53.8145 27.7734C54.7699 27.7734 55.543 27.0003 55.543 26.0449V24.3164H57.2715C58.2269 24.3164 59 23.5433 59 22.5879C59 21.6325 58.2269 20.8594 57.2715 20.8594Z" fill="#0071E3"/>
<path d="M50.2422 13.9453C51.1968 13.9453 51.9707 13.1714 51.9707 12.2168C51.9707 11.2622 51.1968 10.4883 50.2422 10.4883C49.2876 10.4883 48.5137 11.2622 48.5137 12.2168C48.5137 13.1714 49.2876 13.9453 50.2422 13.9453Z" fill="#0071E3"/>
<path d="M43.3281 24.3164C44.2828 24.3164 45.0566 23.5425 45.0566 22.5879C45.0566 21.6333 44.2828 20.8594 43.3281 20.8594C42.3735 20.8594 41.5996 21.6333 41.5996 22.5879C41.5996 23.5425 42.3735 24.3164 43.3281 24.3164Z" fill="#0071E3"/>
<path d="M28.2778 42.1079C28.953 41.4327 30.0469 41.4327 30.7221 42.1079L31.2285 42.6144V27.7734H27.7715V42.6144L28.2778 42.1079Z" fill="#727272"/>
<path d="M46.7849 27.7734H34.6854V46.787C34.6854 47.4858 34.2652 48.1171 33.6186 48.3838C33.4042 48.4732 33.1796 48.5155 32.9569 48.5155C32.5079 48.5155 32.0657 48.34 31.7348 48.0091L29.4999 45.7741L27.2649 48.0091C26.7686 48.5054 26.0293 48.6522 25.3811 48.3838C24.7346 48.1171 24.3143 47.4858 24.3143 46.787V27.7734H23.3451L10.4863 35.1976V57.2733C10.4863 58.2287 11.2594 59.0018 12.2148 59.0018H46.7849C47.7403 59.0018 48.5135 58.2287 48.5135 57.2733V29.5019C48.5135 28.5465 47.7403 27.7734 46.7849 27.7734Z" fill="#727272"/>
<path d="M42.7233 10.5948L39.2665 4.60721C39.0369 4.21058 38.6589 3.92019 38.2166 3.80207C37.7761 3.68557 37.3018 3.74641 36.905 3.97423L31.5872 7.04452C31.5915 5.83848 31.3056 4.5307 30.6864 3.45902C29.7631 1.85877 28.2726 0.714385 26.4883 0.236626C24.7075 -0.237676 22.8422 0.00535213 21.2421 0.926991C19.0258 2.20816 17.7007 4.59327 17.7884 7.15226L17.8003 7.51686C17.8003 7.53034 17.8003 7.54221 17.802 7.5557L17.9708 12.6612L13.7087 10.0054C13.707 10.0037 13.7036 10.0021 13.7019 10.0004L13.3913 9.80621C11.2172 8.45417 8.49275 8.40347 6.27312 9.68464C4.67287 10.608 3.52849 12.0984 3.05073 13.8827C2.57297 15.667 2.81784 17.5304 3.74109 19.1307C4.372 20.2214 5.2601 21.0694 6.2813 21.6553L0.864628 24.7163C0.0377111 25.1938 -0.245418 26.2509 0.23188 27.0778L3.80355 33.0658C4.28085 33.8925 5.33788 34.1758 6.1648 33.6985L42.0908 12.956C42.9174 12.4788 43.2006 11.4217 42.7233 10.5948ZM11.4566 18.6672C9.80423 19.6176 7.68704 19.0526 6.73544 17.4023C5.78176 15.7515 6.35056 13.6313 8.0014 12.6793C9.11041 12.0362 10.476 12.0632 11.5614 12.7401L16.4476 15.7856L11.4566 18.6672ZM28.038 7.92583C27.8002 8.81624 27.2284 9.56168 26.4293 10.0225L21.4368 12.905L21.2421 7.03403C21.1999 5.75286 21.8633 4.56112 22.9706 3.92134C23.7673 3.45718 24.6991 3.33734 25.5938 3.57529C26.485 3.81498 27.2311 4.38723 27.692 5.1873C28.1545 5.9876 28.2777 7.03288 28.038 7.92583Z" fill="#0071E3"/>
</g>
<defs>
<clipPath id="clip0_938_3862">
<rect width="59" height="59" fill="white"/>
</clipPath>
</defs>
</svg>
