<svg width="23" height="28" viewBox="0 0 23 28" fill="none" xmlns="http://www.w3.org/2000/svg">
<path d="M1.86598 0.175781L13.7999 12.072L16.8805 9.00073C12.6719 6.45598 7.03603 3.04183 4.50111 1.50553L2.80304 0.479531C2.51907 0.306055 2.19799 0.201974 1.86598 0.175781ZM0.0446861 1.60003C0.0171086 1.73288 0.00214717 1.86803 0 2.00368V25.5112C0 25.6098 0.0189579 25.7029 0.0338533 25.7961L12.1736 13.692L0.0446861 1.60003ZM18.9036 10.2265L15.4262 13.692L18.8426 17.0994L22.0479 15.1608C22.6626 14.7855 23.0093 14.2198 22.9998 13.6015C22.9903 12.994 22.6437 12.454 22.0519 12.1192C21.9192 12.0436 20.6843 11.2984 18.9049 10.2252M13.8012 15.3133L1.90255 27.1758C2.13275 27.1353 2.3643 27.0678 2.58502 26.9328L16.8196 18.3238L13.8012 15.3133Z" fill="black"/>
</svg>
