<svg width="10" height="15" viewBox="0 0 10 15" fill="none" xmlns="http://www.w3.org/2000/svg">
<path d="M9.25627 7.15133V12.6621C7.73589 12.6605 6.50391 11.4275 6.50391 9.9067C6.50391 8.38587 7.73589 7.15294 9.25627 7.15133Z" fill="#0071E3"/>
<path d="M3.33786 10.1192L8.51131 14.386C8.76207 14.5929 8.61583 15 8.29079 15H3.0823L0.125788 12.5616C0.00929119 12.4655 -0.0309466 12.3054 0.0247673 12.1651C0.309393 11.4485 0.465051 10.6677 0.465051 9.84947C0.465051 9.03301 0.309258 8.25319 0.0255302 7.53771C-0.030094 7.39744 0.0101438 7.23738 0.126551 7.14138L8.68859 0.079854C8.91467 -0.106576 9.25573 0.0542402 9.25573 0.347254V4.70375L3.33786 9.58441C3.16978 9.72302 3.16978 9.98055 3.33786 10.1192Z" fill="#0071E3"/>
</svg>
