<svg width="193" height="173" viewBox="0 0 193 173" fill="none" xmlns="http://www.w3.org/2000/svg">
<g filter="url(#filter0_d_4991_2120)">
<rect x="6" y="6" width="181" height="161" rx="25" fill="white"/>
<path d="M56.4927 112.217C59.2732 115.513 64.1973 116.06 67.6351 113.452L67.8005 113.323L67.8863 113.25C68.7516 112.483 68.874 111.162 68.1455 110.247C67.4168 109.331 66.1045 109.157 65.1662 109.833L64.9226 110.018C63.3611 111.14 61.1626 110.893 59.89 109.462L59.7658 109.315C58.5185 107.757 58.727 105.475 60.2084 104.169L60.3558 104.045L60.3596 104.042L69.7984 96.5077L69.9524 96.3913C71.5155 95.2715 73.7098 95.5147 74.9878 96.9518L75.1125 97.0995C76.3588 98.6568 76.1511 100.931 74.6694 102.238L74.4358 102.433C73.5679 103.198 73.4417 104.519 74.1676 105.436C74.8935 106.354 76.205 106.532 77.1454 105.859L77.235 105.792L77.3975 105.659C80.7686 102.836 81.2743 97.8006 78.5178 94.3583L78.5173 94.3578C75.7114 90.8567 70.5764 90.2946 67.0802 93.081L67.0792 93.0824L57.6428 100.615C54.1253 103.41 53.5605 108.559 56.36 112.055L56.4927 112.217Z" fill="black"/>
<path d="M71.2469 130.619C74.004 134.069 79.0303 134.662 82.5191 132.024L82.6845 131.896L82.6855 131.895L92.1219 124.362H92.1224C95.639 121.567 96.2043 116.419 93.4047 112.922L93.4023 112.919C90.6428 109.485 85.6244 108.874 82.1296 111.526L81.9642 111.654L81.8785 111.727C81.0128 112.494 80.8906 113.815 81.6192 114.731C82.3478 115.646 83.6597 115.82 84.5981 115.144L84.6881 115.076L84.8416 114.96C86.4537 113.801 88.7429 114.1 90.0008 115.665C91.2858 117.273 91.0218 119.65 89.4089 120.932L89.4051 120.935L79.9649 128.47V128.471C78.3421 129.762 75.9414 129.492 74.6546 127.881L74.6527 127.879C73.3666 126.273 73.6264 123.898 75.2455 122.607C76.1892 121.854 76.3456 120.477 75.5948 119.531C74.8673 118.615 73.5553 118.439 72.616 119.113L72.5264 119.181L72.3639 119.314C68.998 122.142 68.4893 127.176 71.2469 130.619Z" fill="black"/>
<path d="M78.6939 139.911C81.4496 143.348 86.4671 143.952 89.9642 141.306L90.1296 141.177L90.131 141.176L95.4101 136.958L95.5721 136.825C98.9308 134.006 99.4495 128.971 96.69 125.526L96.6896 125.526C93.9277 122.079 88.909 121.482 85.4183 124.121L85.2529 124.249L85.1671 124.321C84.3004 125.087 84.1757 126.408 84.9027 127.324C85.6297 128.241 86.9415 128.417 87.881 127.743L88.1251 127.559C89.7404 126.402 92.0291 126.701 93.2842 128.267L93.4003 128.419C94.5513 130.018 94.2551 132.286 92.6924 133.531L92.69 133.533L87.4086 137.753C85.7812 139.049 83.386 138.776 82.0973 137.167L82.0954 137.165C80.8469 135.611 81.0552 133.329 82.5357 132.019L82.683 131.896L82.7688 131.824C83.6356 131.058 83.7604 129.737 83.0332 128.82C82.3061 127.904 80.9939 127.728 80.0544 128.402L79.9649 128.469L79.8028 128.602C76.4436 131.423 75.9256 136.465 78.6939 139.911Z" fill="black"/>
<path d="M118.541 122.607C121.986 125.36 127.013 124.844 129.842 121.502L129.975 121.34L129.978 121.337L130.107 121.172C132.763 117.676 132.145 112.655 128.701 109.901L128.699 109.899L121.953 104.517C121.01 103.764 119.636 103.92 118.885 104.866C118.134 105.812 118.29 107.189 119.233 107.942L125.979 113.325C127.594 114.618 127.855 116.992 126.575 118.594L126.45 118.741C125.127 120.225 122.828 120.435 121.262 119.183L121.258 119.18L113.941 113.349C112.997 112.596 111.623 112.754 110.873 113.7C110.122 114.646 110.279 116.023 111.223 116.775L118.541 122.607Z" fill="black"/>
<path d="M113.941 113.349C112.997 112.597 111.623 112.754 110.873 113.7C110.122 114.647 110.279 116.023 111.223 116.776L113.941 113.349ZM111.26 132.024C114.747 134.661 119.771 134.069 122.529 130.622C125.343 127.12 124.76 121.98 121.261 119.182L121.258 119.18L113.941 113.349L111.223 116.776L118.541 122.607C120.156 123.902 120.415 126.275 119.128 127.876L119.124 127.881C117.837 129.493 115.435 129.762 113.812 128.469L113.811 128.47L106.503 122.632C105.56 121.879 104.186 122.035 103.435 122.98C102.683 123.925 102.839 125.303 103.782 126.056L111.092 131.894L111.095 131.896L111.26 132.024Z" fill="black"/>
<path d="M100.162 138.39C103.597 140.988 108.513 140.451 111.3 137.148L111.434 136.986L111.434 136.985L111.563 136.82C114.219 133.324 113.601 128.303 110.157 125.549L110.156 125.548L106.504 122.632L106.414 122.564C105.475 121.89 104.163 122.064 103.435 122.98C102.684 123.926 102.839 125.303 103.783 126.056L107.435 128.972C109.052 130.266 109.312 132.643 108.028 134.245V134.246C106.732 135.862 104.336 136.127 102.715 134.836L102.715 134.836L97.3992 130.595L97.3091 130.527C96.37 129.852 95.0583 130.028 94.3308 130.944C93.5798 131.89 93.7355 133.267 94.6791 134.02L99.996 138.262L99.997 138.262L100.162 138.39Z" fill="black"/>
<path d="M143.299 99.1453C144.927 101.854 148.4 102.775 151.164 101.338L151.297 101.267L151.299 101.266L158.05 97.5317C160.938 95.9368 161.931 92.2659 160.326 89.4243L160.325 89.4214L155.944 81.6936L152.147 83.8563L156.527 91.5841C156.949 92.3351 156.67 93.2964 155.944 93.6974L155.942 93.6979L149.189 97.4333C148.402 97.8665 147.428 97.5729 147.018 96.85L127.553 62.4682L127.55 62.4644C127.139 61.7403 127.384 60.8231 128.062 60.401L128.129 60.3616L128.13 60.3611L134.889 56.6257L134.964 56.5872C135.739 56.2086 136.656 56.504 137.053 57.2057L137.054 57.2085L141.006 64.1806L141.064 64.2771C141.684 65.2537 142.967 65.5809 143.983 65.0024C145.032 64.4052 145.399 63.069 144.803 62.0179L140.852 55.0487L140.853 55.0482C139.232 52.1801 135.609 51.231 132.783 52.791L132.782 52.7914L126.021 56.5274C123.136 58.1206 122.139 61.784 123.755 64.629L143.221 99.0118L143.222 99.0127L143.299 99.1453ZM155.944 81.6936C155.348 80.6427 154.015 80.2747 152.967 80.8718C151.918 81.469 151.551 82.8053 152.147 83.8563L155.944 81.6936Z" fill="black"/>
<path d="M133.386 103.93C134.446 104.424 135.698 103.992 136.237 102.968L136.288 102.868L136.41 102.614C137.686 100.095 140.35 98.0455 143.631 97.0261L143.961 96.9278L144.068 96.8941C145.162 96.5203 145.782 95.3482 145.461 94.2222C145.141 93.0961 143.997 92.4289 142.871 92.6898L142.762 92.7183L142.348 92.8418C138.215 94.1249 134.444 96.8191 132.514 100.637L132.327 101.022L132.282 101.125C131.849 102.199 132.327 103.436 133.386 103.93Z" fill="black"/>
<path d="M125.976 113.323C129.474 116.12 134.616 115.549 137.415 112.058L137.544 111.893C140.208 108.398 139.593 103.367 136.145 100.618L136.145 100.617L127.962 94.0875L127.961 94.0861C123.981 90.9152 119.458 87.3795 115.152 84.2948L115.151 84.2943C111.454 81.6498 108.302 79.1398 104.91 77.6575C101.324 76.0908 97.4992 75.6497 92.3005 76.6938H92.2996C88.9381 77.3704 86.1336 77.1443 84.0962 76.2273C82.1427 75.348 80.7267 73.7676 80.1151 71.2564C79.9482 70.5695 80.0118 70.1631 80.1071 69.9164C80.2012 69.6728 80.4096 69.3689 80.9179 69.0334C81.9665 68.341 83.8875 67.776 86.8954 67.463L87.5115 67.4041L87.5134 67.4036L98.4472 66.427H98.4468C99.5923 66.3249 100.248 66.2518 101.056 66.3135C101.74 66.3657 102.593 66.5236 103.89 66.9443L104.475 67.1414L111.07 69.4438L111.071 69.4442L111.829 69.714C112.526 69.9681 113.06 70.1777 113.593 70.3738C114.256 70.6173 114.936 70.847 115.685 70.9457C117.019 71.1215 118.313 70.8358 120.095 70.3344L120.89 70.1073L120.89 70.1069L127.665 68.1465L127.773 68.1123C128.865 67.7352 129.482 66.5616 129.158 65.4366C128.834 64.3115 127.688 63.6479 126.563 63.9123L126.454 63.9408L119.68 65.9012V65.9007C117.25 66.6029 116.704 66.6649 116.254 66.6056C116.016 66.5742 115.72 66.4928 115.097 66.2636C114.522 66.0525 113.635 65.7035 112.506 65.3098L112.506 65.3093L105.91 63.007H105.91C104.05 62.3582 102.662 62.046 101.387 61.9487C100.139 61.8534 99.0725 61.9762 98.0601 62.0665H98.0596L87.1276 63.0435V63.0431C83.6382 63.3516 80.5933 64.006 78.5158 65.3777C77.426 66.0972 76.5262 67.0641 76.035 68.3346C75.5451 69.6019 75.546 70.9525 75.872 72.2933L75.8725 72.2943L75.963 72.6472C76.9419 76.2586 79.2011 78.8232 82.3068 80.2211C85.429 81.6264 89.2243 81.778 93.1592 80.9859H93.1587C97.6143 80.0911 100.514 80.5126 103.165 81.6709C106.009 82.9136 108.607 84.9913 112.614 87.8573C116.826 90.8749 121.278 94.3538 125.244 97.5132L133.424 104.042L133.426 104.043L133.573 104.167C135.053 105.476 135.262 107.758 134.013 109.312L134.011 109.315C132.721 110.925 130.318 111.195 128.7 109.901C127.758 109.147 126.384 109.302 125.631 110.247C124.879 111.192 125.034 112.569 125.976 113.323Z" fill="black"/>
<path d="M42.6153 101.338C45.3795 102.775 48.8517 101.854 50.4803 99.1456L50.5575 99.0131L50.5585 99.0116L70.0227 64.6322H70.0232C71.6409 61.7871 70.6443 58.1224 67.758 56.5282L67.7585 56.5277L61.0052 52.7918L61.0038 52.7908C58.1803 51.2323 54.5494 52.1777 52.9274 55.0466L33.4613 89.4223L33.4618 89.4227C31.8466 92.2667 32.8418 95.9377 35.7288 97.5315L42.4807 101.266L42.4821 101.267L42.6153 101.338ZM46.7608 96.8499C46.3505 97.573 45.3762 97.867 44.5899 97.4337L44.5904 97.4332L37.8371 93.6978L37.8357 93.6968C37.1315 93.308 36.8491 92.3953 37.2192 91.6581L37.2571 91.5873L37.2595 91.5835L56.7256 57.2074L56.727 57.2055L56.7668 57.139C57.1955 56.4655 58.1301 56.2023 58.8969 56.6256L65.6483 60.3605L65.6502 60.3615L65.717 60.4009C66.3951 60.8231 66.6403 61.7404 66.2288 62.4643L66.2269 62.4681L46.7608 96.8504V96.8499Z" fill="black"/>
<path d="M77.4094 71.3756C78.5681 71.7109 79.7785 71.0413 80.1129 69.8799C80.4474 68.7185 79.7793 67.5053 78.6207 67.17L67.3366 63.9048L67.2276 63.8763C66.103 63.612 64.9572 64.2756 64.6331 65.4006C64.2986 66.562 64.9667 67.7757 66.1254 68.1109L77.4094 71.3756Z" fill="black"/>
<path d="M57.5514 102.972C58.0926 103.995 59.3456 104.423 60.4042 103.928C61.4625 103.432 61.9386 102.195 61.5036 101.122L61.4586 101.018C59.5862 97 55.7036 94.1678 51.4322 92.8418L51.018 92.7183C49.8584 92.3865 48.6498 93.0598 48.3188 94.2221C47.9878 95.3845 48.6595 96.5959 49.8191 96.9278L50.1494 97.0261C53.539 98.0792 56.2723 100.232 57.5017 102.871L57.5514 102.972Z" fill="black"/>
<path d="M94.7051 32.5091V45.3337C94.7051 46.5426 95.6827 47.5226 96.8887 47.5226C98.0947 47.5226 99.0724 46.5426 99.0724 45.3337V32.5091C99.0724 31.3002 98.0947 30.3203 96.8887 30.3203C95.6827 30.3203 94.7051 31.3002 94.7051 32.5091Z" fill="black"/>
<path d="M78.2224 51.8153C78.8672 52.8367 80.2158 53.1408 81.2348 52.4946C82.254 51.8483 82.5577 50.4961 81.913 49.4745L75.1952 38.8315L75.1327 38.7375C74.4663 37.7916 73.1695 37.5257 72.1823 38.1518C71.1632 38.7981 70.8599 40.1504 71.5046 41.1719L78.2224 51.8153Z" fill="black"/>
<path d="M112.552 52.495C113.54 53.1207 114.837 52.8543 115.503 51.9079L115.565 51.8144L122.275 41.1709C122.92 40.1491 122.615 38.7971 121.596 38.1513C120.577 37.5056 119.228 37.8103 118.583 38.832L111.873 49.4754L111.815 49.5723C111.249 50.5812 111.565 51.8694 112.552 52.495Z" fill="black"/>
<path d="M63.8097 121.34C66.6091 124.832 71.7425 125.4 75.2449 122.606L75.2454 122.606L88.8368 111.764H88.8373C92.294 109.007 92.8996 103.983 90.2457 100.49L90.1168 100.325C87.319 96.8315 82.1769 96.2613 78.6796 99.0482L78.6782 99.0486L65.0792 109.899L65.0769 109.901C61.5786 112.699 60.9954 117.838 63.8097 121.34ZM72.5258 119.181C70.8984 120.479 68.5018 120.206 67.2126 118.597L67.2107 118.594C65.9239 116.992 66.1829 114.619 67.7988 113.324L81.3969 102.475H81.3973C83.0168 101.184 85.4211 101.455 86.711 103.065L86.8271 103.218C87.9424 104.767 87.704 106.941 86.266 108.213L86.1182 108.338L72.5258 119.181Z" fill="black"/>
<path d="M146.279 72.9373V72.9444C146.279 74.1532 147.257 75.1332 148.463 75.1332C149.669 75.1332 150.647 74.1532 150.647 72.9444V72.9373C150.647 71.7284 149.669 70.7484 148.463 70.7484C147.257 70.7484 146.279 71.7284 146.279 72.9373Z" fill="black"/>
</g>
<defs>
<filter id="filter0_d_4991_2120" x="0" y="0" width="193" height="173" filterUnits="userSpaceOnUse" color-interpolation-filters="sRGB">
<feFlood flood-opacity="0" result="BackgroundImageFix"/>
<feColorMatrix in="SourceAlpha" type="matrix" values="0 0 0 0 0 0 0 0 0 0 0 0 0 0 0 0 0 0 127 0" result="hardAlpha"/>
<feOffset/>
<feGaussianBlur stdDeviation="3"/>
<feComposite in2="hardAlpha" operator="out"/>
<feColorMatrix type="matrix" values="0 0 0 0 0 0 0 0 0 0 0 0 0 0 0 0 0 0 0.25 0"/>
<feBlend mode="normal" in2="BackgroundImageFix" result="effect1_dropShadow_4991_2120"/>
<feBlend mode="normal" in="SourceGraphic" in2="effect1_dropShadow_4991_2120" result="shape"/>
</filter>
</defs>
</svg>
