<svg width="131" height="131" viewBox="0 0 131 131" fill="none" xmlns="http://www.w3.org/2000/svg">
<g clip-path="url(#clip0_492_3244)">
<path d="M91.7996 111.111C91.8299 111.12 91.8529 111.138 91.8686 111.166L92.3173 111.983C92.3319 112.011 92.3361 112.04 92.3267 112.07C92.3173 112.1 92.2995 112.123 92.2712 112.138L90.0958 113.34C90.0676 113.354 90.0383 113.358 90.0079 113.349C89.9776 113.34 89.9546 113.322 89.94 113.294L89.4913 112.477C89.4756 112.449 89.4724 112.42 89.4819 112.39C89.4902 112.359 89.509 112.336 89.5362 112.321L91.7117 111.12C91.7399 111.105 91.7692 111.101 91.7996 111.111Z" fill="#0071E3"/>
<path d="M85.7234 111.729C85.7517 111.742 85.7726 111.763 85.7841 111.792L88.1478 117.838C88.1604 117.869 88.1593 117.898 88.1468 117.927C88.1342 117.956 88.1133 117.977 88.083 117.988L87.0559 118.39C86.9963 118.413 86.944 118.403 86.899 118.359L85.4682 116.992C85.4369 116.964 85.418 116.97 85.4149 117.013L85.2915 118.99C85.2894 119.052 85.258 119.095 85.1973 119.12L84.1619 119.526C84.1326 119.539 84.1033 119.537 84.0741 119.525C84.0448 119.512 84.0249 119.491 84.0134 119.462L81.6486 113.416C81.6371 113.385 81.6382 113.356 81.6507 113.328C81.6633 113.299 81.6842 113.279 81.7145 113.267L82.7594 112.858C82.7897 112.846 82.8179 112.846 82.8472 112.859C82.8765 112.87 82.8974 112.892 82.9079 112.921L84.4192 116.786C84.4286 116.809 84.4412 116.819 84.4569 116.816C84.4725 116.814 84.4799 116.799 84.4757 116.773L84.6305 115.113C84.6336 115.05 84.643 115.015 84.6608 115.008C84.6723 115.003 84.7037 115.022 84.7549 115.064L85.9922 116.198C86.0111 116.211 86.0267 116.216 86.0382 116.211C86.0508 116.206 86.0518 116.192 86.0424 116.168L84.5248 112.286C84.5133 112.255 84.5133 112.226 84.5259 112.198C84.5384 112.168 84.5594 112.147 84.5897 112.137L85.6345 111.727C85.6638 111.716 85.6931 111.716 85.7224 111.728L85.7234 111.729Z" fill="#0071E3"/>
<path d="M75.9249 114.938L76.2795 115.802C76.2868 115.833 76.3088 115.844 76.3464 115.835L77.5147 115.567C77.5523 115.559 77.568 115.542 77.5617 115.517L77.523 114.571C77.5136 114.5 77.5461 114.457 77.6203 114.44L78.7143 114.189C78.7959 114.17 78.8356 114.203 78.8356 114.289L78.9099 120.935C78.913 121.006 78.8806 121.05 78.8116 121.066L77.5502 121.355C77.4812 121.37 77.4331 121.345 77.4049 121.279L74.5914 115.263L74.5736 115.228C74.56 115.171 74.5883 115.136 74.6573 115.12L75.7785 114.862C75.8528 114.844 75.9019 114.87 75.9239 114.938H75.9249ZM77.5523 116.633L76.748 116.817C76.7229 116.823 76.7146 116.841 76.7219 116.872L77.6674 119.198C77.6778 119.215 77.6893 119.223 77.7019 119.22C77.7144 119.217 77.7218 119.205 77.7239 119.185L77.6109 116.669C77.6109 116.637 77.591 116.625 77.5534 116.633H77.5523Z" fill="#0071E3"/>
<path d="M71.6695 115.604C71.6935 115.624 71.7071 115.65 71.7103 115.682L72.2688 122.152C72.2719 122.183 72.2636 122.213 72.2426 122.237C72.2228 122.261 72.1966 122.274 72.1642 122.278L70.4343 122.426C69.8549 122.477 69.3748 122.348 68.9951 122.041C68.6155 121.733 68.4011 121.298 68.353 120.737L68.0957 117.75C68.0465 117.189 68.1835 116.724 68.5046 116.356C68.8257 115.987 69.2765 115.778 69.8559 115.727L71.5858 115.579C71.6172 115.576 71.6454 115.585 71.6695 115.605V115.604ZM70.405 116.846L69.9762 116.893C69.8047 116.914 69.6708 116.999 69.5746 117.15C69.4783 117.3 69.4376 117.489 69.4501 117.721L69.6927 120.534C69.7137 120.777 69.7848 120.963 69.9051 121.094C70.0253 121.225 70.178 121.283 70.3621 121.267L70.7826 121.23C70.815 121.227 70.8296 121.21 70.8265 121.178L70.4562 116.89C70.4531 116.858 70.4364 116.843 70.404 116.846H70.405Z" fill="#0071E3"/>
<path d="M61.1501 121.374C61.1731 121.352 61.2013 121.343 61.2327 121.344L63.2356 121.434C63.268 121.435 63.2847 121.421 63.2858 121.388L63.3538 119.872C63.3548 119.84 63.3402 119.823 63.3077 119.822L62.1573 119.77C62.1259 119.77 62.0987 119.756 62.0778 119.733C62.0569 119.71 62.0464 119.682 62.0485 119.65L62.0903 118.719C62.0914 118.688 62.105 118.66 62.128 118.639C62.152 118.618 62.1792 118.609 62.2106 118.609L63.36 118.661C63.3925 118.662 63.4092 118.648 63.4102 118.616L63.4782 117.09C63.4793 117.058 63.4646 117.041 63.4322 117.04L61.4304 116.95C61.3979 116.949 61.3718 116.935 61.3498 116.912C61.3289 116.889 61.3195 116.862 61.3205 116.829L61.3624 115.899C61.3634 115.867 61.376 115.84 61.4 115.82C61.423 115.798 61.4513 115.788 61.4827 115.789L64.7689 115.938C64.8013 115.939 64.8274 115.952 64.8494 115.976C64.8703 115.999 64.8808 116.026 64.8787 116.058L64.5869 122.546C64.5858 122.578 64.5733 122.604 64.5492 122.626C64.5262 122.647 64.499 122.657 64.4666 122.656L61.1804 122.507C61.148 122.506 61.1218 122.493 61.0999 122.47C61.0789 122.446 61.0685 122.419 61.0706 122.386L61.1124 121.456C61.1135 121.424 61.126 121.397 61.1501 121.377V121.374Z" fill="#0071E3"/>
<path d="M54.1756 114.663C54.1924 114.69 54.1966 114.718 54.1882 114.75L52.6413 121.057C52.634 121.087 52.6162 121.111 52.589 121.128C52.5618 121.145 52.5325 121.149 52.5022 121.142L51.4124 120.873C51.3821 120.866 51.358 120.848 51.3413 120.821C51.3245 120.794 51.3204 120.765 51.3277 120.734L52.8746 114.428C52.8829 114.397 52.8997 114.373 52.9268 114.357C52.954 114.34 52.9833 114.336 53.0137 114.343L54.1035 114.611C54.1349 114.62 54.1589 114.637 54.1746 114.664L54.1756 114.663Z" fill="#0071E3"/>
<path d="M49.8133 113.477C49.8269 113.506 49.8279 113.535 49.8164 113.566L47.5353 119.644C47.5238 119.675 47.5039 119.696 47.4746 119.709C47.4464 119.722 47.4171 119.723 47.3868 119.711L46.2551 119.286C46.1955 119.263 46.1683 119.219 46.1725 119.153L46.276 115.354C46.276 115.334 46.2698 115.322 46.253 115.319C46.2374 115.317 46.2258 115.325 46.2185 115.342L44.9666 118.678C44.9551 118.708 44.9352 118.73 44.9059 118.743C44.8777 118.755 44.8484 118.757 44.8181 118.746L43.7858 118.357C43.7565 118.346 43.7345 118.326 43.722 118.296C43.7084 118.268 43.7073 118.239 43.7188 118.208L45.9999 112.13C46.0114 112.1 46.0313 112.078 46.0606 112.066C46.0888 112.052 46.1181 112.051 46.1485 112.063L47.2885 112.492C47.3481 112.515 47.3763 112.559 47.3711 112.625L47.2634 116.433C47.2634 116.453 47.2696 116.466 47.2853 116.472C47.3 116.477 47.3104 116.472 47.3178 116.453L48.5676 113.095C48.5791 113.065 48.599 113.044 48.6283 113.031C48.6575 113.018 48.6868 113.017 48.7161 113.028L49.7484 113.417C49.7787 113.429 49.7997 113.447 49.8133 113.477Z" fill="#0071E3"/>
<path d="M38.3905 110.629C38.3968 110.659 38.3916 110.689 38.3748 110.716L37.8707 111.5C37.8529 111.526 37.8289 111.544 37.7985 111.55C37.7682 111.556 37.7389 111.55 37.7117 111.533L35.6231 110.186C35.5959 110.169 35.5802 110.144 35.5729 110.114C35.5666 110.083 35.5718 110.053 35.5886 110.027L36.0927 109.244C36.1105 109.217 36.1345 109.2 36.1649 109.194C36.1962 109.188 36.2245 109.193 36.2517 109.21L38.3393 110.558C38.3665 110.576 38.3832 110.6 38.3895 110.63L38.3905 110.629Z" fill="#0071E3"/>
<path d="M39.1962 20.8016C39.1659 20.7933 39.1429 20.7744 39.1272 20.7461L38.6785 19.9301C38.6639 19.9018 38.6597 19.8725 38.6691 19.8432C38.6785 19.8128 38.6963 19.7897 38.7245 19.774L40.9 18.5736C40.9282 18.5579 40.9575 18.5547 40.9878 18.5631C41.0182 18.5725 41.0412 18.5914 41.0558 18.6186L41.5045 19.4346C41.5202 19.4629 41.5233 19.4923 41.5139 19.5216C41.5055 19.552 41.4867 19.575 41.4585 19.5907L39.283 20.7912C39.2548 20.8069 39.2255 20.81 39.1952 20.8006L39.1962 20.8016Z" fill="#0071E3"/>
<path d="M45.2727 20.1811C45.2445 20.1686 45.2236 20.1476 45.2121 20.1172L42.8483 14.071C42.8368 14.0417 42.8368 14.0124 42.8494 13.9831C42.8619 13.9548 42.8829 13.9328 42.9132 13.9223L43.9403 13.519C43.9999 13.496 44.0511 13.5064 44.0971 13.5504L45.5279 14.9185C45.5593 14.9468 45.5771 14.9394 45.5813 14.8975L45.7047 12.9198C45.7078 12.857 45.7392 12.814 45.7988 12.7899L46.8342 12.3835C46.8635 12.372 46.8928 12.372 46.9221 12.3846C46.9514 12.3971 46.9723 12.4181 46.9828 12.4485L49.3475 18.4947C49.359 18.524 49.358 18.5533 49.3454 18.5827C49.3329 18.612 49.312 18.6319 49.2816 18.6434L48.2368 19.053C48.2064 19.0645 48.1782 19.0645 48.1489 19.0519C48.1196 19.0394 48.0998 19.0184 48.0883 18.988L46.5769 15.1238C46.5675 15.0997 46.555 15.0892 46.5393 15.0924C46.5236 15.0955 46.5163 15.1102 46.5205 15.1364L46.3657 16.7956C46.3625 16.8585 46.3531 16.8941 46.3343 16.9014C46.3228 16.9056 46.2914 16.8867 46.2402 16.8459L45.0029 15.7114C44.9841 15.6978 44.9684 15.6936 44.9569 15.6989C44.9454 15.7031 44.9433 15.7177 44.9527 15.7418L46.4703 19.6239C46.4818 19.6532 46.4818 19.6825 46.4692 19.7119C46.4567 19.7401 46.4358 19.7611 46.4054 19.7726L45.3606 20.1822C45.3313 20.1937 45.302 20.1937 45.2717 20.1811H45.2727Z" fill="#0071E3"/>
<path d="M55.0732 16.973L54.7176 16.1088C54.7103 16.0774 54.6883 16.0658 54.6507 16.0742L53.4824 16.3424C53.4448 16.3518 53.4291 16.3675 53.4353 16.3927L53.474 17.3396C53.4835 17.4098 53.451 17.4538 53.3757 17.4706L52.2817 17.722C52.2001 17.7398 52.1604 17.7073 52.1604 17.6214L52.0861 10.976C52.083 10.9048 52.1154 10.8608 52.1845 10.8451L53.4458 10.5549C53.5148 10.5403 53.5629 10.5643 53.5912 10.6303L56.4046 16.6472L56.4224 16.6828C56.435 16.7383 56.4078 16.775 56.3387 16.7907L55.2165 17.0484C55.1422 17.0652 55.0931 17.04 55.0711 16.973H55.0732ZM53.4458 15.276L54.2501 15.0917C54.2752 15.0864 54.2836 15.0676 54.2773 15.0361L53.3318 12.7107C53.3213 12.6929 53.3098 12.6866 53.2973 12.6887C53.2847 12.6918 53.2774 12.7034 53.2764 12.7233L53.3893 15.2394C53.3893 15.2729 53.4092 15.2844 53.4468 15.276H53.4458Z" fill="#0071E3"/>
<path d="M59.3262 16.3067C59.3022 16.2868 59.2886 16.2596 59.2854 16.2281L58.7269 9.75769C58.7248 9.72626 58.7321 9.69798 58.7531 9.67284C58.7729 9.64875 58.7991 9.63513 58.8315 9.63303L60.5614 9.48324C61.1408 9.43296 61.6209 9.5618 61.9995 9.86977C62.3792 10.1777 62.5936 10.6125 62.6417 11.1729L62.899 14.1593C62.9471 14.7218 62.8111 15.1859 62.49 15.5546C62.1689 15.9233 61.7182 16.1328 61.1387 16.182L59.4088 16.3318C59.3764 16.3339 59.3492 16.3255 59.3241 16.3056L59.3262 16.3067ZM60.5907 15.0644L61.0205 15.0172C61.1921 14.9963 61.3249 14.9104 61.4211 14.7606C61.5173 14.6118 61.5592 14.4212 61.5456 14.1907L61.3029 11.3771C61.282 11.1341 61.2119 10.9477 61.0917 10.8167C60.9714 10.6858 60.8187 10.6282 60.6336 10.6439L60.2131 10.6795C60.1807 10.6826 60.1671 10.6994 60.1692 10.7319L60.5394 15.0204C60.5426 15.0518 60.5593 15.0664 60.5917 15.0644H60.5907Z" fill="#0071E3"/>
<path d="M69.85 10.5369C69.827 10.5578 69.7987 10.5673 69.7673 10.5673L67.7645 10.4761C67.732 10.4751 67.7153 10.4908 67.7143 10.5222L67.6463 12.038C67.6452 12.0704 67.6599 12.0872 67.6923 12.0882L68.8428 12.1406C68.8741 12.1417 68.9013 12.1542 68.9223 12.1773C68.9432 12.2014 68.9536 12.2286 68.9515 12.2611L68.9097 13.1913C68.9087 13.2237 68.8951 13.2499 68.8721 13.2709C68.848 13.2929 68.8208 13.3023 68.7894 13.3013L67.64 13.2489C67.6076 13.2478 67.5908 13.2625 67.5898 13.295L67.5218 14.8212C67.5208 14.8526 67.5354 14.8704 67.5678 14.8715L69.5697 14.9626C69.6021 14.9636 69.6282 14.9762 69.6502 14.9993C69.6711 15.0223 69.6816 15.0506 69.6795 15.082L69.6376 16.0132C69.6366 16.0447 69.624 16.0719 69.6 16.0929C69.577 16.1138 69.5487 16.1243 69.5174 16.1232L66.2312 15.9745C66.1988 15.9745 66.1726 15.9609 66.1506 15.9378C66.1297 15.9148 66.1193 15.8865 66.1214 15.8551L66.4132 9.36787C66.4142 9.33645 66.4268 9.30921 66.4508 9.28826C66.4738 9.26731 66.501 9.25684 66.5334 9.25788L69.8196 9.40663C69.8521 9.40768 69.8782 9.42129 69.9002 9.44434C69.9221 9.46739 69.9315 9.49567 69.9295 9.52709L69.8876 10.4583C69.8866 10.4898 69.874 10.517 69.85 10.5379V10.5369Z" fill="#0071E3"/>
<path d="M76.8214 17.2465C76.8047 17.2193 76.8005 17.19 76.8089 17.1596L78.3557 10.8536C78.3631 10.8232 78.3808 10.7981 78.408 10.7824C78.4352 10.7656 78.4645 10.7614 78.4948 10.7698L79.5847 11.038C79.616 11.0453 79.6391 11.0631 79.6558 11.0904C79.6725 11.1176 79.6767 11.1459 79.6694 11.1773L78.1225 17.4833C78.1141 17.5147 78.0974 17.5388 78.0702 17.5545C78.043 17.5702 78.0137 17.5744 77.9834 17.5671L76.8936 17.2989C76.8622 17.2916 76.8382 17.2738 76.8225 17.2465H76.8214Z" fill="#0071E3"/>
<path d="M81.1829 18.4341C81.1693 18.4058 81.1683 18.3765 81.1798 18.3461L83.4609 12.2674C83.4724 12.237 83.4923 12.215 83.5215 12.2025C83.5498 12.1889 83.5791 12.1878 83.6094 12.1993L84.741 12.6246C84.8007 12.6477 84.8279 12.6927 84.8237 12.7587L84.7201 16.558C84.7201 16.5779 84.7264 16.5894 84.7431 16.5915C84.7588 16.5947 84.7703 16.5873 84.7777 16.5685L86.0296 13.2322C86.0411 13.2028 86.061 13.1808 86.0902 13.1683C86.1185 13.1547 86.1478 13.1536 86.1781 13.1651L87.2104 13.5538C87.2397 13.5653 87.2616 13.5841 87.2752 13.6145C87.2888 13.6428 87.2899 13.6721 87.2784 13.7025L84.9973 19.7812C84.9858 19.8116 84.9659 19.8325 84.9366 19.8461C84.9084 19.8587 84.8791 19.8597 84.8488 19.8482L83.7088 19.4198C83.6491 19.3967 83.6219 19.3527 83.6261 19.2857L83.7328 15.478C83.7328 15.4581 83.7265 15.4445 83.7119 15.4393C83.6972 15.433 83.6868 15.4393 83.6795 15.4571L82.4296 18.8143C82.4181 18.8447 82.3983 18.8667 82.369 18.8793C82.3397 18.8929 82.3104 18.8939 82.2811 18.8824L81.2488 18.4938C81.2185 18.4823 81.1976 18.4624 81.185 18.433L81.1829 18.4341Z" fill="#0071E3"/>
<path d="M92.608 21.2817C92.6018 21.2502 92.607 21.2209 92.6237 21.1947L93.1278 20.4122C93.1456 20.385 93.1697 20.3682 93.2 20.3619C93.2314 20.3557 93.2596 20.3609 93.2868 20.3777L95.3744 21.7258C95.4006 21.7426 95.4173 21.7677 95.4246 21.7981C95.4309 21.8295 95.4257 21.8578 95.4089 21.885L94.9048 22.6686C94.887 22.6947 94.863 22.7125 94.8326 22.7178C94.8013 22.7241 94.773 22.7188 94.7458 22.7021L92.6572 21.355C92.631 21.3372 92.6133 21.3131 92.607 21.2827L92.608 21.2817Z" fill="#0071E3"/>
<mask id="mask0_492_3244" style="mask-type:luminance" maskUnits="userSpaceOnUse" x="19" y="20" width="93" height="92">
<path d="M65.4984 111.716C90.7321 111.716 111.188 91.2283 111.188 65.9556C111.188 40.6829 90.7321 20.1953 65.4984 20.1953C40.2646 20.1953 19.8086 40.6829 19.8086 65.9556C19.8086 91.2283 40.2646 111.716 65.4984 111.716Z" fill="white"/>
</mask>
<g mask="url(#mask0_492_3244)">
<path d="M125.254 18.7461H5.74609V48.9719H125.254V18.7461Z" fill="url(#paint0_linear_492_3244)"/>
<path d="M125.254 82.0312H5.74609V112.257H125.254V82.0312Z" fill="url(#paint1_linear_492_3244)"/>
<path d="M125.254 42.8789H5.74609V88.9744H125.254V42.8789Z" fill="white"/>
</g>
<path d="M58.5196 131.001C58.3093 131.001 58.097 130.988 57.8847 130.963C56.2542 130.773 54.8171 129.866 53.9417 128.473C52.6218 126.374 49.823 125.71 47.7019 126.992C46.2973 127.842 44.6061 128.007 43.0634 127.445C41.5207 126.882 40.3315 125.668 39.8002 124.112C38.999 121.764 36.4293 120.47 34.0698 121.229C32.5072 121.733 30.8233 121.501 29.4511 120.598C28.0799 119.694 27.2024 118.237 27.0435 116.601C26.805 114.132 24.5992 112.283 22.1309 112.473C20.4962 112.603 18.9096 111.989 17.7831 110.793C16.6557 109.596 16.138 107.977 16.3607 106.347C16.6965 103.888 14.9791 101.578 12.5307 101.195C10.9085 100.942 9.507 99.9792 8.68702 98.5556C7.86599 97.1321 7.73421 95.4351 8.32619 93.9016C9.21938 91.5876 8.07936 88.9416 5.78676 88.0041C4.26708 87.3829 3.12497 86.1228 2.65432 84.5473C2.18367 82.9719 2.44619 81.2917 3.37494 79.9352C4.77643 77.8894 4.27754 75.0527 2.26106 73.6103C0.925459 72.655 0.104434 71.1644 0.0092582 69.5229C-0.0859179 67.8815 0.55626 66.3071 1.77263 65.203C3.60817 63.5365 3.77551 60.66 2.14601 58.7913C1.06561 57.5531 0.610646 55.9138 0.895128 54.2943C1.18066 52.6749 2.16798 51.2911 3.60608 50.4971C5.77526 49.2998 6.60047 46.5396 5.4458 44.3451C4.68021 42.8901 4.61327 41.19 5.26382 39.6795C5.91436 38.1701 7.19453 37.0513 8.77592 36.6114C11.1626 35.9473 12.6007 33.4521 11.9826 31.0491C11.5726 29.4569 11.9 27.7882 12.88 26.4684C13.86 25.1496 15.3629 24.3566 17.004 24.2927C19.4796 24.1974 21.4532 22.1024 21.4051 19.6219C21.3726 17.9773 22.0755 16.4291 23.3326 15.3721C24.5908 14.3152 26.2371 13.8931 27.8467 14.2084C30.2774 14.6892 32.6808 13.1043 33.2048 10.6793C33.552 9.07245 34.5927 7.72745 36.059 6.98896C37.5264 6.25151 39.225 6.21904 40.7185 6.89992C42.9734 7.92648 45.676 6.94182 46.7449 4.7033C47.4519 3.22003 48.775 2.15158 50.3721 1.77133C51.9691 1.39318 53.63 1.75248 54.9269 2.76018C56.8838 4.28011 59.7422 3.94595 61.2964 2.01435C62.3266 0.734301 63.8588 0 65.5009 0C67.1429 0 68.6752 0.734301 69.7054 2.01435C71.2606 3.94595 74.118 4.28116 76.0749 2.76018C77.3718 1.75248 79.0316 1.39214 80.6297 1.77133C82.2278 2.15053 83.5498 3.21899 84.2579 4.7033C85.3258 6.94182 88.0284 7.92648 90.2833 6.89992C91.7779 6.21799 93.4754 6.25151 94.9438 6.98896C96.4112 7.72745 97.4508 9.07245 97.798 10.6793C98.322 13.1043 100.727 14.6871 103.156 14.2084C104.767 13.8899 106.412 14.3152 107.669 15.3721C108.926 16.4291 109.63 17.9783 109.597 19.6219C109.549 22.1024 111.522 24.1984 113.998 24.2927C115.639 24.3556 117.142 25.1485 118.122 26.4684C119.102 27.7872 119.429 29.4569 119.019 31.0491C118.4 33.4521 119.839 35.9473 122.226 36.6114C123.807 37.0513 125.087 38.1701 125.738 39.6795C126.389 41.189 126.323 42.8901 125.556 44.3441C124.401 46.5386 125.225 49.2988 127.396 50.4961C128.834 51.2901 129.821 52.6738 130.107 54.2933C130.392 55.9127 129.936 57.5521 128.856 58.7902C127.226 60.659 127.394 63.5354 129.228 65.202C130.444 66.3061 131.087 67.8805 130.991 69.5219C130.896 71.1633 130.075 72.6529 128.739 73.6093C126.723 75.0517 126.223 77.8883 127.625 79.9341C128.554 81.2896 128.816 82.9708 128.345 84.5463C127.875 86.1217 126.733 87.3808 125.213 88.002C122.919 88.9395 121.78 91.5855 122.674 93.8995C123.265 95.433 123.134 97.13 122.313 98.5535C121.492 99.9771 120.091 100.94 118.469 101.193C116.022 101.576 114.303 103.887 114.639 106.345C114.862 107.974 114.343 109.594 113.217 110.79C112.09 111.987 110.505 112.601 108.869 112.471C106.396 112.283 104.196 114.13 103.956 116.599C103.798 118.235 102.921 119.692 101.549 120.596C100.177 121.499 98.4935 121.73 96.931 121.227C94.5725 120.468 92.0017 121.761 91.2005 124.11C90.6692 125.665 89.48 126.88 87.9374 127.443C86.3947 128.005 84.7035 127.84 83.2988 126.99C81.1778 125.707 78.379 126.371 77.059 128.471C76.1836 129.862 74.7466 130.771 73.116 130.961C71.4886 131.154 69.8779 130.601 68.7066 129.449C66.939 127.711 64.0628 127.711 62.2942 129.449C61.2755 130.45 59.9263 130.998 58.5196 130.998V131.001ZM50.0468 125.517C51.8489 125.517 53.6175 126.413 54.6372 128.036C55.3788 129.215 56.5972 129.984 57.9788 130.146C59.3636 130.31 60.7243 129.841 61.7169 128.864C63.8034 126.813 67.1973 126.813 69.2818 128.864C70.2754 129.84 71.6361 130.307 73.0198 130.146C74.4014 129.984 75.6199 129.215 76.3614 128.036C77.9188 125.558 81.2206 124.775 83.7224 126.288C84.9137 127.008 86.3466 127.148 87.6539 126.672C88.9623 126.195 89.9695 125.165 90.4203 123.847C91.3658 121.077 94.3989 119.551 97.1809 120.446C98.5061 120.872 99.9327 120.677 101.096 119.911C102.259 119.145 103.002 117.91 103.136 116.523C103.418 113.61 106.01 111.424 108.932 111.653C110.318 111.763 111.662 111.242 112.617 110.228C113.572 109.215 114.011 107.841 113.823 106.46C113.427 103.561 115.453 100.834 118.34 100.382C119.716 100.168 120.903 99.3517 121.598 98.145C122.294 96.9383 122.406 95.5 121.904 94.2001C120.851 91.4703 122.194 88.3487 124.9 87.2426C126.189 86.7157 127.156 85.6483 127.556 84.3127C127.955 82.9771 127.732 81.5525 126.945 80.4034C125.291 77.9899 125.881 74.6432 128.259 72.942C129.391 72.1312 130.088 70.869 130.168 69.4779C130.249 68.0868 129.705 66.7523 128.674 65.8158C126.509 63.8497 126.312 60.4557 128.235 58.2518C129.15 57.2022 129.537 55.8122 129.295 54.4399C129.053 53.0677 128.216 51.8945 126.997 51.222C124.438 49.8089 123.464 46.5522 124.828 43.9638C125.476 42.7309 125.533 41.2895 124.982 40.0095C124.431 38.7294 123.346 37.7814 122.005 37.4085C119.19 36.625 117.493 33.6804 118.222 30.8469C118.569 29.4978 118.292 28.0826 117.462 26.9638C116.631 25.8462 115.356 25.1737 113.966 25.1202C111.046 25.0082 108.717 22.536 108.775 19.6093C108.802 18.2151 108.207 16.9026 107.14 16.0069C106.074 15.1113 104.681 14.7531 103.314 15.0202C100.446 15.5827 97.6108 13.7171 96.9937 10.8563C96.6998 9.49459 95.8171 8.35386 94.5735 7.7285C93.33 7.10314 91.8898 7.07485 90.6232 7.65203C87.9614 8.86399 84.7735 7.70126 83.5143 5.0605C82.9139 3.80245 81.7938 2.8974 80.4394 2.57582C79.0849 2.25423 77.6782 2.5601 76.579 3.41382C74.2696 5.2082 70.8987 4.81329 69.0653 2.53392C68.192 1.4487 66.893 0.826482 65.5019 0.826482C64.1109 0.826482 62.8109 1.4487 61.9375 2.53392C60.1041 4.81329 56.7332 5.2082 54.4239 3.41382C53.3246 2.55906 51.9158 2.25423 50.5624 2.57582C49.208 2.8974 48.0878 3.80245 47.4885 5.0605C46.2282 7.70231 43.0393 8.86294 40.3796 7.65203C39.113 7.07485 37.6729 7.10314 36.4303 7.7285C35.1868 8.35386 34.3051 9.49354 34.0101 10.8563C33.392 13.7171 30.5597 15.5858 27.6898 15.0202C26.3228 14.752 24.9297 15.1103 23.864 16.0069C22.7982 16.9026 22.202 18.2161 22.2292 19.6093C22.2867 22.536 19.9586 25.0082 17.0374 25.1202C15.6464 25.1737 14.3725 25.8462 13.542 26.9638C12.7116 28.0815 12.4334 29.4967 12.7817 30.8469C13.5117 33.6815 11.8142 36.625 8.9987 37.4085C7.65786 37.7814 6.57327 38.7294 6.02209 40.0095C5.4709 41.2895 5.52634 42.7309 6.17583 43.9638C7.53863 46.5532 6.56595 49.8089 4.00666 51.222C2.78819 51.8945 1.95043 53.0677 1.70883 54.441C1.46723 55.8132 1.85316 57.2032 2.76937 58.2528C4.69171 60.4578 4.49404 63.8507 2.32905 65.8169C1.29884 66.7533 0.752887 68.0879 0.834467 69.479C0.915 70.8711 1.61156 72.1333 2.74426 72.9431C5.12262 74.6442 5.71146 77.991 4.0579 80.4044C3.27035 81.5536 3.04757 82.9782 3.4471 84.3137C3.84663 85.6493 4.81408 86.7167 6.10262 87.2436C8.80834 88.3498 10.1523 91.4703 9.0991 94.2001C8.59707 95.5 8.70898 96.9383 9.4045 98.145C10.1 99.3517 11.2882 100.168 12.6635 100.382C15.5512 100.834 17.5781 103.561 17.1807 106.46C16.9914 107.841 17.4317 109.214 18.3866 110.228C19.3415 111.242 20.6844 111.758 22.0723 111.653C24.982 111.425 27.5852 113.609 27.8676 116.523C28.0015 117.91 28.7451 119.145 29.9082 119.911C31.0712 120.677 32.4978 120.872 33.8229 120.446C36.606 119.55 39.6381 121.077 40.5836 123.847C41.0333 125.165 42.0415 126.195 43.35 126.672C44.6584 127.149 46.0912 127.009 47.2825 126.288C48.1454 125.767 49.1045 125.517 50.0531 125.517H50.0468Z" fill="#0071E3"/>
<path d="M69.8884 106.825C68.9638 106.825 68.078 106.466 67.4086 105.808C66.3554 104.774 64.6443 104.773 63.5921 105.808C62.8234 106.564 61.766 106.925 60.6961 106.801C59.6251 106.675 58.6806 106.079 58.1064 105.166C57.3199 103.916 55.6559 103.521 54.3925 104.284C53.4689 104.842 52.3593 104.95 51.3458 104.581C50.3323 104.213 49.551 103.414 49.2028 102.392C48.7258 100.994 47.1957 100.226 45.7921 100.676C44.7661 101.007 43.6595 100.855 42.759 100.261C41.8575 99.6674 41.2812 98.711 41.1776 97.6363C41.0354 96.1667 39.7197 95.0668 38.2533 95.1788C37.1761 95.2658 36.1375 94.8604 35.397 94.0748C34.6565 93.2892 34.3166 92.2249 34.463 91.1554C34.6628 89.692 33.6399 88.3166 32.183 88.0883C31.1172 87.9217 30.1968 87.2901 29.6582 86.3547C29.1185 85.4192 29.0327 84.3047 29.4208 83.297C29.9521 81.9195 29.2743 80.3451 27.9095 79.7868C26.9106 79.3793 26.1607 78.5518 25.8511 77.5169C25.5416 76.4819 25.7141 75.3779 26.3249 74.4875C27.1596 73.2703 26.8625 71.5817 25.6618 70.7227C24.7843 70.0942 24.2457 69.1159 24.1819 68.038C24.1191 66.9601 24.5417 65.9252 25.3397 65.2003C26.4316 64.2083 26.532 62.4967 25.5614 61.3842C24.8523 60.5714 24.5532 59.4945 24.7404 58.4303C24.9276 57.367 25.5771 56.4578 26.5216 55.9361C27.8122 55.2228 28.3038 53.5803 27.6166 52.2741C27.1135 51.3187 27.0696 50.2021 27.4974 49.2101C27.9241 48.2181 28.765 47.4838 29.8046 47.1937C31.2249 46.7977 32.0815 45.3134 31.7134 43.8836C31.4446 42.8381 31.659 41.7414 32.3032 40.8751C32.9475 40.0088 33.9348 39.4882 35.0121 39.4463C36.4858 39.3898 37.6603 38.1432 37.631 36.6662C37.6101 35.5863 38.0713 34.5681 38.8976 33.8746C39.7238 33.1801 40.8032 32.9026 41.8627 33.11C43.3081 33.3938 44.741 32.4532 45.0516 31.0097C45.2796 29.9538 45.9626 29.0708 46.9269 28.5858C47.8902 28.1018 49.0051 28.0798 49.9882 28.5271C51.3301 29.1378 52.9397 28.5523 53.5746 27.2198C54.04 26.2457 54.9081 25.5438 55.9571 25.2945C57.0062 25.0452 58.097 25.283 58.9494 25.944C60.1145 26.848 61.8141 26.6489 62.7408 25.4998C63.4175 24.6587 64.4236 24.1758 65.503 24.1758C66.5823 24.1758 67.5874 24.6587 68.2641 25.4998C69.1908 26.65 70.8904 26.849 72.0555 25.944C72.9079 25.2819 73.9977 25.0452 75.0467 25.2945C76.0958 25.5438 76.9649 26.2457 77.4293 27.2209C78.0641 28.5523 79.6727 29.1389 81.0156 28.5282C81.9977 28.0809 83.1126 28.1029 84.077 28.5868C85.0402 29.0718 85.7242 29.9549 85.9522 31.0108C86.2639 32.4553 87.6926 33.3949 89.1412 33.111C90.1975 32.9025 91.279 33.1812 92.1063 33.8757C92.9325 34.5702 93.3938 35.5873 93.3728 36.6673C93.3446 38.1443 94.5191 39.3908 95.9928 39.4474C97.0701 39.4893 98.0584 40.0099 98.7017 40.8762C99.3459 41.7424 99.5603 42.8392 99.2915 43.8846C98.9234 45.3144 99.7789 46.7998 101.2 47.1947C102.239 47.4838 103.08 48.2192 103.508 49.2101C103.934 50.2021 103.891 51.3187 103.388 52.2741C102.701 53.5803 103.192 55.2238 104.483 55.9361C105.428 56.4578 106.077 57.367 106.265 58.4303C106.452 59.4945 106.152 60.5703 105.443 61.3842C104.474 62.4967 104.573 64.2083 105.665 65.2003C106.464 65.9252 106.886 66.9601 106.823 68.038C106.76 69.1159 106.222 70.0953 105.344 70.7227C104.144 71.5806 103.846 73.2692 104.681 74.4875C105.291 75.3779 105.463 76.4819 105.155 77.5169C104.845 78.5518 104.095 79.3783 103.096 79.7868C101.732 80.3451 101.054 81.9195 101.585 83.297C101.974 84.3047 101.887 85.4192 101.348 86.3547C100.809 87.2901 99.8887 87.9217 98.823 88.0883C97.3661 88.3156 96.3442 89.691 96.544 91.1543C96.6894 92.2238 96.3494 93.2881 95.609 94.0748C94.8695 94.8604 93.8257 95.2637 92.7537 95.1778C91.2852 95.0647 89.9716 96.1656 89.8294 97.6353C89.7258 98.71 89.1495 99.6674 88.248 100.26C87.3475 100.854 86.2409 101.006 85.2149 100.675C83.8103 100.224 82.2801 100.994 81.8042 102.391C81.456 103.412 80.6747 104.21 79.6612 104.58C78.6477 104.95 77.537 104.841 76.6135 104.283C75.3511 103.52 73.685 103.914 72.8995 105.165C72.3243 106.079 71.3809 106.675 70.3099 106.8C70.1708 106.816 70.0317 106.824 69.8936 106.824L69.8884 106.825ZM55.7877 103.072C56.9706 103.072 58.1326 103.66 58.803 104.726C59.2444 105.428 59.9692 105.885 60.7923 105.982C61.6123 106.08 62.4249 105.801 63.0169 105.219C64.387 103.872 66.6158 103.872 67.9859 105.219C68.5769 105.801 69.3843 106.079 70.2105 105.982C71.0336 105.885 71.7585 105.428 72.1998 104.726C73.2227 103.1 75.3919 102.584 77.035 103.579C77.7441 104.007 78.5975 104.091 79.3757 103.807C80.1538 103.523 80.7531 102.91 81.0209 102.125C81.6421 100.305 83.6356 99.3039 85.4617 99.8916C86.2503 100.144 87.0996 100.029 87.7909 99.5731C88.4833 99.1175 88.9257 98.3821 89.0062 97.5567C89.1914 95.6429 90.9004 94.2057 92.8133 94.3576C93.6385 94.4236 94.4386 94.1125 95.0065 93.5102C95.5755 92.9068 95.837 92.0887 95.7251 91.2675C95.4646 89.3631 96.796 87.5719 98.6922 87.2754C99.5112 87.1476 100.217 86.6626 100.631 85.944C101.046 85.2255 101.112 84.3696 100.813 83.5955C100.121 81.8022 101.004 79.7522 102.782 79.0263C103.548 78.7131 104.125 78.0773 104.362 77.2822C104.599 76.4872 104.467 75.6397 103.998 74.9557C102.911 73.3708 103.298 71.1721 104.861 70.0544C105.536 69.5726 105.95 68.8205 105.998 67.9919C106.046 67.1633 105.722 66.3693 105.108 65.812C103.686 64.5205 103.557 62.2914 104.819 60.8437C105.364 60.2184 105.594 59.3919 105.451 58.5748C105.308 57.7578 104.809 57.0591 104.083 56.6589C102.402 55.7298 101.763 53.5918 102.658 51.8907C103.044 51.1564 103.078 50.2985 102.749 49.5369C102.421 48.7754 101.776 48.2108 100.978 47.9898C99.1284 47.4744 98.0135 45.5407 98.4925 43.6793C98.6996 42.8759 98.5343 42.0337 98.0396 41.3685C97.5449 40.7023 96.7866 40.3032 95.9593 40.2707C94.0412 40.1974 92.511 38.5727 92.5487 36.6505C92.5644 35.8209 92.2109 35.0395 91.576 34.5063C90.9422 33.9731 90.1128 33.7594 89.2991 33.9186C87.4165 34.2915 85.5538 33.0639 85.1469 31.1836C84.9722 30.3728 84.4472 29.694 83.7067 29.3222C82.9662 28.9493 82.1096 28.9336 81.3555 29.2761C79.6079 30.0732 77.514 29.3096 76.6856 27.5739C76.329 26.8249 75.6617 26.2865 74.8553 26.0948C74.049 25.9021 73.2112 26.0854 72.5575 26.5934C71.042 27.7719 68.8268 27.5131 67.622 26.0152C67.1021 25.3699 66.3282 24.9991 65.5009 24.9991C64.6736 24.9991 63.8996 25.3699 63.3798 26.0152C62.1749 27.5121 59.9608 27.7719 58.4443 26.5934C57.7906 26.0854 56.9528 25.9021 56.1464 26.0948C55.34 26.2865 54.6738 26.8249 54.3161 27.5739C53.4888 29.3086 51.3949 30.0732 49.6462 29.2761C48.8932 28.9336 48.0366 28.9493 47.2961 29.3211C46.5556 29.694 46.0306 30.3718 45.8559 31.1825C45.4501 33.0628 43.5853 34.2894 41.7037 33.9176C40.89 33.7573 40.0606 33.9721 39.4268 34.5052C38.792 35.0384 38.4374 35.8199 38.4541 36.6495C38.4918 38.5716 36.9627 40.1953 35.0445 40.2697C34.2172 40.3021 33.4579 40.7012 32.9642 41.3674C32.4695 42.0326 32.3043 42.8748 32.5114 43.6782C32.9914 45.5397 31.8765 47.4734 30.0263 47.9887C29.2283 48.2108 28.582 48.7754 28.2546 49.5369C27.9262 50.2985 27.9597 51.1564 28.3456 51.8896C29.2409 53.5897 28.6018 55.7298 26.9211 56.6579C26.1963 57.058 25.6974 57.7567 25.5531 58.5727C25.4087 59.3898 25.6388 60.2173 26.1837 60.8416C27.4461 62.2893 27.3175 64.5184 25.8951 65.8099C25.2811 66.3672 24.9569 67.1612 25.005 67.9898C25.0531 68.8173 25.4673 69.5694 26.1419 70.0513C27.7045 71.169 28.0914 73.3677 27.0048 74.9526C26.5362 75.6366 26.4034 76.4851 26.6408 77.2791C26.8782 78.0741 27.4545 78.71 28.2211 79.0221C29.9991 79.7491 30.8819 81.7991 30.1895 83.5924C29.8904 84.3665 29.9573 85.2223 30.3715 85.9409C30.7857 86.6595 31.4927 87.1445 32.3106 87.2723C34.2078 87.5687 35.5382 89.36 35.2778 91.2643C35.1659 92.0866 35.4273 92.9037 35.9952 93.507C36.5632 94.1104 37.3601 94.4205 38.1885 94.3555C40.1077 94.2078 41.8094 95.6408 41.9945 97.5546C42.075 98.38 42.5174 99.1154 43.2098 99.571C43.9011 100.027 44.7494 100.142 45.54 99.8895C47.3693 99.3018 49.3596 100.304 49.9809 102.123C50.2486 102.908 50.849 103.521 51.6271 103.805C52.4053 104.089 53.2587 104.005 53.9678 103.577C54.5347 103.234 55.1643 103.071 55.7877 103.071V103.072Z" fill="white"/>
<path d="M14.0696 80.1946C13.9682 80.093 13.918 79.9704 13.918 79.8248V50.3888C13.918 50.2443 13.9682 50.1207 14.0696 50.0191C14.1711 49.9175 14.2934 49.8672 14.4399 49.8672H19.5271C19.6714 49.8672 19.7948 49.9185 19.8963 50.0191C19.9977 50.1207 20.049 50.2443 20.049 50.3888V79.8248C20.049 79.9704 19.9977 80.093 19.8963 80.1946C19.7948 80.2962 19.6714 80.3475 19.5271 80.3475H14.4399C14.2945 80.3475 14.1711 80.2972 14.0696 80.1946Z" fill="#0071E3"/>
<path d="M29.766 80.1946C29.6645 80.093 29.6133 79.9704 29.6133 79.8248V50.3888C29.6133 50.2443 29.6635 50.1207 29.766 50.0191C29.8685 49.9175 29.9898 49.8672 30.1352 49.8672H35.6136C35.9033 49.8672 36.0915 50.0128 36.1783 50.3019L41.7875 66.5875C41.8157 66.6744 41.8669 66.7111 41.9391 66.6964C42.0113 66.6817 42.0479 66.6304 42.0479 66.5435V50.3888C42.0479 50.2443 42.0981 50.1207 42.2006 50.0191C42.302 49.9175 42.4244 49.8672 42.5698 49.8672H47.5702C47.7145 49.8672 47.8379 49.9185 47.9404 50.0191C48.0419 50.1207 48.0921 50.2443 48.0921 50.3888V79.8248C48.0921 79.9704 48.0408 80.093 47.9404 80.1946C47.8379 80.2962 47.7156 80.3475 47.5702 80.3475H42.0489C41.7592 80.3475 41.571 80.2029 41.4841 79.9117L35.875 63.5822C35.8457 63.4952 35.7945 63.4523 35.7234 63.4523C35.6523 63.4523 35.6146 63.4952 35.6146 63.5822L35.6575 79.8248C35.6575 79.9704 35.6062 80.093 35.5058 80.1946C35.4033 80.2962 35.281 80.3475 35.1356 80.3475H30.1352C29.9898 80.3475 29.8674 80.2972 29.766 80.1946Z" fill="#0071E3"/>
<path d="M57.7181 80.1946C57.6166 80.093 57.5664 79.9704 57.5664 79.8248V50.3888C57.5664 50.2443 57.6166 50.1207 57.7181 50.0191C57.8195 49.9175 57.9419 49.8672 58.0883 49.8672H65.9576C68.5953 49.8672 70.7112 50.6361 72.3051 52.1748C73.8991 53.7136 74.6971 55.7605 74.6971 58.3143V71.9004C74.6971 74.4553 73.8991 76.5021 72.3051 78.0398C70.7112 79.5786 68.5943 80.3475 65.9576 80.3475H58.0883C57.9429 80.3475 57.8195 80.2972 57.7181 80.1946ZM63.9139 75.0786L65.8708 75.0356C66.6531 75.0073 67.2911 74.6732 67.7837 74.0342C68.2763 73.3963 68.5368 72.5541 68.5661 71.5087V58.706C68.5661 57.603 68.3192 56.7325 67.8266 56.0936C67.334 55.4556 66.6678 55.1351 65.8269 55.1351H63.9139C63.7685 55.1351 63.6964 55.2074 63.6964 55.353V74.8607C63.6964 75.0063 63.7685 75.0786 63.9139 75.0786Z" fill="#0071E3"/>
<path d="M84.0696 80.1946C83.9682 80.093 83.918 79.9704 83.918 79.8248V50.3888C83.918 50.2443 83.9682 50.1207 84.0696 50.0191C84.1711 49.9175 84.2934 49.8672 84.4399 49.8672H89.5271C89.6714 49.8672 89.7948 49.9185 89.8963 50.0191C89.9977 50.1207 90.049 50.2443 90.049 50.3888V79.8248C90.049 79.9704 89.9977 80.093 89.8963 80.1946C89.7948 80.2962 89.6714 80.3475 89.5271 80.3475H84.4399C84.2945 80.3475 84.1711 80.2972 84.0696 80.1946Z" fill="#0071E3"/>
<path d="M112.175 79.867L111.479 75.6864C111.479 75.5418 111.392 75.4685 111.218 75.4685H105.783C105.609 75.4685 105.523 75.5272 105.523 75.6424L104.74 79.8659C104.711 80.1854 104.523 80.3446 104.176 80.3446H99.0883C98.7118 80.3446 98.5664 80.1561 98.6533 79.778L105.045 50.342C105.102 50.0225 105.29 49.8633 105.611 49.8633H111.48C111.799 49.8633 111.986 50.0225 112.045 50.342L118.392 79.778L118.436 79.9518C118.436 80.2127 118.276 80.3436 117.958 80.3436H112.741C112.394 80.3436 112.205 80.1844 112.177 79.8649L112.175 79.867ZM106.696 70.7223H110.435C110.55 70.7223 110.609 70.65 110.609 70.5044L108.783 59.2699C108.753 59.1829 108.711 59.1389 108.653 59.1389C108.595 59.1389 108.552 59.1819 108.522 59.2699L106.479 70.5044C106.449 70.65 106.523 70.7223 106.696 70.7223Z" fill="#0071E3"/>
</g>
<defs>
<linearGradient id="paint0_linear_492_3244" x1="-86.6793" y1="33.8585" x2="149.239" y2="33.8585" gradientUnits="userSpaceOnUse">
<stop offset="0.38" stop-color="#FFD800"/>
<stop offset="0.46" stop-color="#FFCF00"/>
<stop offset="0.59" stop-color="#FFB900"/>
<stop offset="0.74" stop-color="#FF9400"/>
<stop offset="0.92" stop-color="#FF6200"/>
<stop offset="1" stop-color="#FF4800"/>
</linearGradient>
<linearGradient id="paint1_linear_492_3244" x1="-41.7928" y1="97.1436" x2="144.936" y2="97.1436" gradientUnits="userSpaceOnUse">
<stop offset="0.29" stop-color="#51B700"/>
<stop offset="0.42" stop-color="#4DB100"/>
<stop offset="0.57" stop-color="#45A000"/>
<stop offset="0.75" stop-color="#378600"/>
<stop offset="0.95" stop-color="#236000"/>
<stop offset="1" stop-color="#1D5500"/>
</linearGradient>
<clipPath id="clip0_492_3244">
<rect width="131" height="131" fill="white"/>
</clipPath>
</defs>
</svg>
