<svg width="56" height="56" viewBox="0 0 56 56" fill="none" xmlns="http://www.w3.org/2000/svg">
<rect width="56" height="56" rx="8" fill="#0071E3"/>
<path fill-rule="evenodd" clip-rule="evenodd" d="M19.1285 18.5455C19.1285 18.232 19.2531 17.9314 19.4749 17.7098C19.6968 17.4881 19.9976 17.3636 20.3113 17.3636H35.6887C36.0024 17.3636 36.3032 17.4881 36.5251 17.7098C36.7469 17.9314 36.8715 18.232 36.8715 18.5455V30.3636H19.1285V18.5455ZM20.3113 15C19.3702 15 18.4676 15.3735 17.8021 16.0384C17.1366 16.7033 16.7627 17.6051 16.7627 18.5455V31.5455L14.1131 38.6045C14.0124 38.8726 13.9782 39.1612 14.0135 39.4455C14.0488 39.7297 14.1525 40.0012 14.3157 40.2367C14.479 40.4721 14.6969 40.6646 14.9508 40.7975C15.2048 40.9304 15.4872 40.9999 15.7739 41H40.225C40.5117 41.0001 40.7943 40.9308 41.0484 40.7979C41.3025 40.6651 41.5206 40.4726 41.6839 40.2371C41.8473 40.0017 41.9511 39.7301 41.9865 39.4457C42.0218 39.1614 41.9876 38.8727 41.8869 38.6045L39.2373 31.5455V18.5455C39.2373 17.6051 38.8634 16.7033 38.1979 16.0384C37.5324 15.3735 36.6298 15 35.6887 15H20.3113ZM25.3385 36.8636C25.3385 36.6286 25.432 36.4031 25.5984 36.2369C25.7648 36.0707 25.9904 35.9773 26.2257 35.9773H29.7743C30.0096 35.9773 30.2352 36.0707 30.4016 36.2369C30.568 36.4031 30.6615 36.6286 30.6615 36.8636C30.6615 37.0987 30.568 37.3242 30.4016 37.4904C30.2352 37.6566 30.0096 37.75 29.7743 37.75H26.2257C25.9904 37.75 25.7648 37.6566 25.5984 37.4904C25.432 37.3242 25.3385 37.0987 25.3385 36.8636ZM30.9572 22.0909C30.9572 22.8745 30.6456 23.626 30.091 24.1801C29.5365 24.7342 28.7843 25.0455 28 25.0455C27.2157 25.0455 26.4635 24.7342 25.909 24.1801C25.3544 23.626 25.0428 22.8745 25.0428 22.0909C25.0428 21.3073 25.3544 20.5558 25.909 20.0017C26.4635 19.4476 27.2157 19.1364 28 19.1364C28.7843 19.1364 29.5365 19.4476 30.091 20.0017C30.6456 20.5558 30.9572 21.3073 30.9572 22.0909ZM23.6293 27.7305C24.8761 26.7538 26.4156 26.2243 28 26.2273C29.6489 26.2273 31.1654 26.7886 32.3707 27.7305C32.7717 28.0437 32.5209 28.6287 32.0123 28.6287H23.9877C23.4791 28.6287 23.2283 28.0437 23.6293 27.7305Z" fill="white"/>
</svg>
