<svg width="258" height="54" viewBox="0 0 258 54" fill="none" xmlns="http://www.w3.org/2000/svg">
<path d="M59.6907 29.9142L69.57 44.2915C69.9606 44.8601 69.5517 45.6315 68.8584 45.6315H63.1536L55.2884 34.0608L51.4898 37.6314V45.6306H45.5234V9.64648H50.6291C51.1047 9.64648 51.4907 10.0304 51.4907 10.5034V30.2272L64.6153 18.0087L70.042 18.0751C70.814 18.0842 71.1844 19.0221 70.6256 19.5525L59.6907 29.9133V29.9142Z" fill="white"/>
<path d="M74.1543 45.6306V9.64648H79.26C79.7356 9.64648 80.1216 10.0304 80.1216 10.5034V44.7737C80.1216 45.2467 79.7356 45.6306 79.26 45.6306H74.1543Z" fill="white"/>
<path d="M109.351 31.8558C109.351 39.432 103.508 45.5954 96.3267 45.5954C89.1456 45.5954 83.3027 39.4329 83.3027 31.8558C83.3027 24.2788 89.1447 18.1172 96.3267 18.1172C103.509 18.1172 109.351 24.2797 109.351 31.8558ZM103.33 31.8549C103.33 27.582 100.188 24.1041 96.3276 24.1041C92.4668 24.1041 89.3249 27.582 89.3249 31.8549C89.3249 36.1279 92.4659 39.6058 96.3276 39.6058C100.189 39.6058 103.33 36.1297 103.33 31.8549Z" fill="white"/>
<path d="M137.069 18.1504C137.545 18.1504 137.931 18.5343 137.931 19.0073V31.9263C137.931 39.5025 132.088 45.6659 124.907 45.6659C117.726 45.6659 111.883 39.5034 111.883 31.9263V18.1977H117.042C117.518 18.1977 117.904 18.5816 117.904 19.0547V31.9273C117.904 36.2011 121.046 39.6781 124.907 39.6781C128.768 39.6781 131.909 36.2002 131.909 31.9273V18.1513H137.069V18.1504Z" fill="white"/>
<path d="M151.548 40.5353V45.667H149.155C144.869 45.667 141.395 42.211 141.395 37.948V12.3848H146.554C147.03 12.3848 147.416 12.7687 147.416 13.2417V19.6407H150.51C150.986 19.6407 151.372 20.0246 151.372 20.4977V25.6294H147.417V37.948C147.417 38.9041 148.196 39.6792 149.157 39.6792H150.688C151.163 39.6792 151.549 40.0631 151.549 40.5362L151.548 40.5353Z" fill="white"/>
<path d="M183.073 35.2078H188.22C188.793 35.2078 189.209 35.7555 189.048 36.3031C187.397 41.8852 182.446 45.9471 176.611 45.9471C169.426 45.9471 163.586 39.7892 163.586 32.2139C163.586 24.6386 169.426 18.4707 176.611 18.4707C182.446 18.4707 187.397 22.5417 189.048 28.1247C189.209 28.6724 188.793 29.22 188.22 29.22H183.073C182.009 26.4253 179.51 24.4594 176.611 24.4594C172.747 24.4594 169.606 27.9427 169.606 32.2139C169.606 36.4851 172.747 39.9593 176.611 39.9593C179.51 39.9593 182.009 37.9934 183.073 35.2087V35.2078Z" fill="white"/>
<path d="M192.424 45.6306V9.64648H197.53C198.005 9.64648 198.391 10.0304 198.391 10.5034V45.6306H192.425H192.424Z" fill="white"/>
<path d="M227.327 18.1504C227.803 18.1504 228.189 18.5343 228.189 19.0073V31.9263C228.189 39.5025 222.346 45.6659 215.165 45.6659C207.984 45.6659 202.141 39.5034 202.141 31.9263V18.1977H207.3C207.776 18.1977 208.162 18.5816 208.162 19.0547V31.9273C208.162 36.2011 211.304 39.6781 215.165 39.6781C219.025 39.6781 222.167 36.2002 222.167 31.9273V18.1513H227.327V18.1504Z" fill="white"/>
<path d="M257.298 32.2041C257.298 39.7794 251.458 45.9473 244.273 45.9473C241.955 45.9473 239.767 45.2987 237.871 44.1706V45.1486H231.91V9.64844H237.009C237.485 9.64844 237.871 10.0323 237.871 10.5054V18.8203C237.871 19.4443 238.52 19.8592 239.091 19.599C240.684 18.8721 242.437 18.4719 244.273 18.4719C251.458 18.4719 257.298 24.6298 257.298 32.205V32.2041ZM251.277 32.2032C251.277 29.7406 250.283 27.5509 248.74 26.1326C248.702 26.0953 248.66 26.0635 248.619 26.028C248.503 25.9261 248.388 25.8242 248.266 25.7324C248.113 25.6132 247.956 25.5058 247.795 25.4021C247.784 25.3949 247.774 25.3876 247.763 25.3803C247.011 24.9 246.173 24.5907 245.282 24.4906C245.267 24.4888 245.253 24.4879 245.24 24.486C245.08 24.4697 244.919 24.4597 244.756 24.4578C244.694 24.456 244.635 24.4469 244.575 24.4469C244.491 24.4469 244.412 24.4578 244.33 24.4606C244.31 24.4615 244.292 24.4597 244.273 24.4606C244.259 24.4615 244.248 24.4651 244.234 24.466C243.719 24.496 243.22 24.5897 242.743 24.7462C240.459 25.4358 239.151 27.2052 238.479 28.9883C238.23 29.6223 238.053 30.301 237.958 31.0115C237.949 31.0797 237.94 31.1461 237.931 31.2116C237.92 31.3162 237.909 31.4218 237.9 31.5282C237.883 31.7447 237.871 31.954 237.871 32.1459C237.871 32.155 237.872 32.1659 237.872 32.175C237.872 32.185 237.871 32.1941 237.871 32.2041C237.871 34.806 238.981 37.103 240.679 38.5113C241.526 39.2681 242.587 39.7949 243.876 39.9204C243.887 39.9213 243.897 39.9222 243.908 39.9232C244.029 39.9341 244.146 39.955 244.271 39.9595C244.329 39.9614 244.383 39.9541 244.44 39.9541C244.485 39.955 244.528 39.9623 244.572 39.9623C244.71 39.9623 244.845 39.9486 244.983 39.9377H244.987C248.488 39.6884 251.263 36.3388 251.274 32.2278C251.274 32.2196 251.275 32.2114 251.275 32.2032H251.277Z" fill="white"/>
<path d="M33.4873 25.7344V45.5645C27.9865 45.5591 23.5293 41.1224 23.5293 35.6495C23.5293 30.1766 27.9865 25.7407 33.4873 25.7344Z" fill="#0071E3"/>
<path d="M12.0758 36.4114L30.7926 51.7648C31.7 52.5089 31.1704 53.9745 29.995 53.9745H11.1511L0.454962 45.2002C0.0333008 44.8545 -0.112133 44.2787 0.0900083 43.7738C1.11992 41.1956 1.68336 38.3855 1.68336 35.4416C1.68336 32.4977 1.11992 29.6976 0.0927522 27.1231C-0.108475 26.6182 0.0369575 26.0423 0.458619 25.6966L31.4356 0.287119C32.2534 -0.383348 33.4873 0.195237 33.4873 1.24961V16.926L12.0767 34.4882C11.4685 34.9867 11.4685 35.9137 12.0767 36.4123L12.0758 36.4114Z" fill="#0071E3"/>
</svg>
