<svg width="198" height="198" viewBox="0 0 198 198" fill="none" xmlns="http://www.w3.org/2000/svg">
<g filter="url(#filter0_d_4991_1970)">
<rect x="6" y="6" width="186" height="186" rx="25" fill="white"/>
<path d="M162.126 104.203C160.117 101.1 156.709 99.2536 152.995 99.2536C150.905 99.2536 148.856 99.8621 147.091 100.998C142.505 103.98 140.923 109.843 143.154 114.671L130.635 123.17C128.018 119.478 124.467 116.476 120.307 114.569L130.757 84.8712C132.948 85.5 135.261 85.8246 137.635 85.8246C143.398 85.8246 148.755 83.938 153.056 80.7127C153.158 80.6315 153.239 80.5707 153.32 80.4895C159.488 75.763 163.486 68.3385 163.486 59.9404C163.486 45.7 151.879 34.0967 137.635 34.0967C126.902 34.0967 117.67 40.6489 113.754 49.9802L106.753 47.0591C107.179 44.7465 106.835 42.3731 105.719 40.2432C104.42 37.6669 102.168 35.7804 99.4285 34.8878C98.3531 34.5227 97.2169 34.3604 96.1009 34.3604C94.4168 34.3604 92.7124 34.7661 91.1703 35.5369C88.5934 36.8555 86.7064 39.0869 85.8136 41.8457C84.9209 44.6045 85.1644 47.5054 86.4832 50.0816C87.8021 52.6579 90.0341 54.5647 92.7936 55.4573C93.869 55.8021 94.9849 55.9847 96.1009 55.9847C97.8053 55.9847 99.4894 55.5587 101.031 54.7878C103.081 53.733 104.704 52.0899 105.739 50.0816L112.719 52.9824C112.069 55.1936 111.745 57.5264 111.745 59.9404C111.745 62.9832 112.272 65.884 113.226 68.582L89.1616 79.0695C84.9006 70.6511 76.1554 64.8697 66.0913 64.8697C62.784 64.8697 59.5781 65.4986 56.6563 66.6548L50.7314 54.5039C52.6996 53.3273 54.2214 51.5219 55.1142 49.3311C56.2302 46.6331 56.2099 43.6714 55.0939 40.9735C53.4301 36.8961 49.4532 34.259 45.0298 34.259C43.5892 34.259 42.1689 34.543 40.8297 35.111C35.2498 37.4032 32.6121 43.8337 34.9455 49.3919C36.0614 52.0899 38.1717 54.1996 40.8703 55.295C42.1892 55.8427 43.6095 56.1267 45.0298 56.1267C45.9632 56.1267 46.8966 56.005 47.8096 55.7615L53.775 67.9734C45.7197 72.3753 40.221 80.9155 40.221 90.6931C40.221 99.0507 44.2182 106.516 50.4068 111.242C50.488 111.323 50.5894 111.405 50.6909 111.465C54.9924 114.671 60.3288 116.557 66.0913 116.557C71.8335 116.557 77.1699 114.671 81.4715 111.465C81.5932 111.405 81.6947 111.323 81.7961 111.222C82.1411 110.958 82.4657 110.695 82.7701 110.411L90.7848 120.249C86.3818 124.894 83.6629 131.163 83.6629 138.06C83.6629 139.703 83.8252 141.305 84.1295 142.888L74.3293 145.038C72.7872 140.798 68.7291 137.857 64.1029 137.857C63.3927 137.857 62.6825 137.918 61.9724 138.06C59.1317 138.628 56.6766 140.271 55.0533 142.705C53.4504 145.119 52.8619 148.02 53.4301 150.839C54.4649 155.931 58.9288 159.603 64.1029 159.603C64.8333 159.603 65.5232 159.522 66.2334 159.38C69.074 158.812 71.5495 157.169 73.1524 154.755C74.4713 152.787 75.1003 150.474 74.9583 148.142L84.9209 145.971C86.5441 151.042 89.7094 155.424 93.8284 158.568C93.8284 158.568 93.8284 158.568 93.8487 158.589C93.9704 158.67 94.0922 158.771 94.2139 158.852C98.5155 162.037 103.811 163.903 109.533 163.903C115.275 163.903 120.612 162.017 124.913 158.812C125.035 158.751 125.137 158.67 125.238 158.568C131.406 153.842 135.383 146.417 135.383 138.039C135.383 133.637 134.288 129.479 132.319 125.848L144.899 117.308C146.949 119.62 149.871 120.959 153.036 120.959C155.126 120.959 157.175 120.33 158.94 119.194C161.375 117.632 163.039 115.178 163.648 112.338C164.277 109.518 163.729 106.617 162.126 104.203ZM116.655 143.902C118.664 142.015 119.902 139.338 119.902 136.376C119.902 130.676 115.235 126.01 109.533 126.01C103.811 126.01 99.1648 130.676 99.1648 136.376C99.1648 139.338 100.402 141.995 102.411 143.902C97.3995 145.586 94.4777 149.054 93.6458 154.187C90.8051 151.407 88.6949 147.878 87.6398 143.942C87.6398 143.882 87.6195 143.821 87.6195 143.78C87.5992 143.679 87.5789 143.598 87.5383 143.516C87.518 143.496 87.518 143.476 87.518 143.456C87.0919 141.731 86.8688 139.926 86.8688 138.06C86.8688 125.564 97.0343 115.381 109.553 115.381C112.455 115.381 115.235 115.928 117.791 116.922L117.812 116.942H117.832C122.458 118.768 126.334 122.075 128.911 126.254C128.931 126.274 128.951 126.294 128.951 126.314C131.021 129.722 132.218 133.759 132.218 138.06C132.218 144.368 129.621 150.069 125.441 154.207C124.629 149.054 121.667 145.586 116.655 143.902ZM56.5954 70.1237C59.4969 68.7848 62.7028 68.0342 66.1116 68.0342C75.4452 68.0342 83.46 73.6939 86.9499 81.7472V81.7878C86.9499 81.8081 86.9702 81.8081 86.9702 81.8284C88.1471 84.5669 88.7963 87.5691 88.7963 90.7134C88.7963 97.0222 86.1992 102.722 82.0193 106.861C81.2077 101.708 78.2656 98.2596 73.2336 96.5556C75.2423 94.6893 76.48 92.0117 76.48 89.05C76.48 83.3295 71.8132 78.6841 66.1116 78.6841C60.3897 78.6841 55.7432 83.3295 55.7432 89.05C55.7432 92.0117 56.9809 94.6691 58.9897 96.5759C53.9779 98.2596 51.0561 101.708 50.2242 106.84C46.0444 102.743 43.4472 97.0425 43.4472 90.7134C43.4269 81.6052 48.8444 73.7345 56.5954 70.1237ZM137.635 37.2815C150.114 37.2815 160.3 47.4445 160.3 59.9606C160.3 66.2491 157.703 71.9696 153.543 76.0876C152.711 70.9351 149.769 67.5068 144.757 65.8231C146.766 63.9366 148.004 61.2589 148.004 58.2972C148.004 52.5767 143.337 47.9314 137.635 47.9314C131.914 47.9314 127.267 52.5767 127.267 58.2972C127.267 61.2589 128.505 63.9163 130.514 65.8231C125.502 67.5068 122.58 70.9554 121.748 76.0876C119.638 74.0387 117.933 71.5639 116.757 68.8051V68.7848C115.62 66.0666 114.971 63.1049 114.971 59.9606C114.971 57.425 115.397 54.9907 116.148 52.7187C116.188 52.6173 116.209 52.5159 116.249 52.4144C119.354 43.6106 127.774 37.2815 137.635 37.2815ZM85.1035 108.22C89.3645 103.615 91.9617 97.4684 91.9617 90.7134C91.9617 87.6503 91.4341 84.7292 90.4602 82.0109C90.4602 82.0109 90.4602 82.0109 90.4602 81.9906L114.504 71.5031C116.27 75.0327 118.847 78.1161 121.971 80.4692C122.032 80.5504 122.134 80.6112 122.215 80.6924C123.919 81.9501 125.766 83.0252 127.754 83.8366L117.325 113.413C114.849 112.622 112.232 112.216 109.533 112.216C103.324 112.216 97.6227 114.427 93.1385 118.078L85.1035 108.22Z" fill="black"/>
</g>
<defs>
<filter id="filter0_d_4991_1970" x="0" y="0" width="198" height="198" filterUnits="userSpaceOnUse" color-interpolation-filters="sRGB">
<feFlood flood-opacity="0" result="BackgroundImageFix"/>
<feColorMatrix in="SourceAlpha" type="matrix" values="0 0 0 0 0 0 0 0 0 0 0 0 0 0 0 0 0 0 127 0" result="hardAlpha"/>
<feOffset/>
<feGaussianBlur stdDeviation="3"/>
<feComposite in2="hardAlpha" operator="out"/>
<feColorMatrix type="matrix" values="0 0 0 0 0 0 0 0 0 0 0 0 0 0 0 0 0 0 0.25 0"/>
<feBlend mode="normal" in2="BackgroundImageFix" result="effect1_dropShadow_4991_1970"/>
<feBlend mode="normal" in="SourceGraphic" in2="effect1_dropShadow_4991_1970" result="shape"/>
</filter>
</defs>
</svg>
