<svg width="56" height="56" viewBox="0 0 56 56" fill="none" xmlns="http://www.w3.org/2000/svg">
<rect width="56" height="56" rx="8" fill="#0071E3"/>
<path d="M41.333 30.301L28.7119 38.5051C28.3806 38.7205 27.9534 38.7203 27.6221 38.5051L15 30.301V40.3714C15.0002 40.7563 15.267 40.9163 15.417 40.9163H40.917C41.0671 40.916 41.3329 40.756 41.333 40.3714V30.301ZM43.333 40.3714C43.3328 41.693 42.3321 42.9161 40.917 42.9163H15.417C14.0018 42.9163 13.0002 41.6931 13 40.3714V28.4583L13.0088 28.3225C13.0516 28.0098 13.2414 27.7324 13.5234 27.5794C13.8456 27.4047 14.2376 27.4198 14.5449 27.6194L28.166 36.4739L41.7881 27.6194L41.9072 27.554C42.1927 27.4194 42.5284 27.4263 42.8105 27.5794C43.1327 27.7543 43.333 28.0916 43.333 28.4583V40.3714Z" fill="white"/>
<path d="M20.5156 22.6003C20.9703 22.287 21.5928 22.4016 21.9062 22.8562C22.2196 23.3109 22.1051 23.9334 21.6504 24.2468L14.5673 29.1286C14.1126 29.4421 13.4901 29.3275 13.1767 28.8728C12.8633 28.418 12.9778 27.7956 13.4326 27.4822L20.5156 22.6003ZM34.4267 22.8562C34.7206 22.4298 35.2861 22.3025 35.7304 22.5466L35.8173 22.6003L42.9004 27.4822L42.9824 27.5447C43.3682 27.873 43.4499 28.4466 43.1562 28.8728C42.8623 29.2991 42.2968 29.4266 41.8525 29.1824L41.7656 29.1286L34.6826 24.2468L34.6015 24.1843C34.2154 23.856 34.1329 23.2825 34.4267 22.8562Z" fill="white"/>
<path d="M34.25 16H22.083V32.2939L22.0957 32.3965C22.1042 32.4299 22.1172 32.4626 22.1338 32.4932C22.1669 32.554 22.2144 32.6058 22.2725 32.6436L27.9395 36.3271L27.9922 36.3555C28.0465 36.3805 28.1057 36.3945 28.166 36.3945L28.2266 36.3896C28.2858 36.381 28.343 36.36 28.3936 36.3271L34.0605 32.6436L34.1387 32.5771C34.1621 32.5518 34.1826 32.5237 34.1992 32.4932C34.2323 32.4321 34.25 32.3634 34.25 32.2939V16ZM36.2451 32.4443C36.2233 32.7947 36.125 33.1367 35.957 33.4463C35.7889 33.756 35.5554 34.025 35.2734 34.2344L35.1504 34.3203L29.4834 38.0039C29.1403 38.2269 28.747 38.3583 28.3408 38.3877L28.166 38.3945C27.757 38.3945 27.3555 38.2904 26.999 38.0938L26.8496 38.0039L21.1826 34.3203C20.845 34.1009 20.568 33.8002 20.376 33.4463C20.208 33.1366 20.1097 32.7948 20.0879 32.4443L20.083 32.2939V15L20.0879 14.8975C20.1392 14.3933 20.5653 14 21.083 14H35.25L35.3516 14.0049C35.856 14.0559 36.25 14.4821 36.25 15V32.2939L36.2451 32.4443Z" fill="white"/>
<path d="M31 23.9167L31.1016 23.9216C31.606 23.9727 32 24.3989 32 24.9167C32 25.4346 31.606 25.8608 31.1016 25.9119L31 25.9167H25.333C24.7807 25.9167 24.333 25.469 24.333 24.9167C24.333 24.3645 24.7807 23.9167 25.333 23.9167H31ZM28.166 19.6667L28.2686 19.6716C28.7728 19.7228 29.166 20.149 29.166 20.6667C29.166 21.1845 28.7728 21.6107 28.2686 21.6619L28.166 21.6667H25.333C24.7807 21.6667 24.333 21.219 24.333 20.6667C24.333 20.1145 24.7807 19.6667 25.333 19.6667H28.166Z" fill="white"/>
</svg>
