<svg width="201" height="201" viewBox="0 0 201 201" fill="none" xmlns="http://www.w3.org/2000/svg">
<g filter="url(#filter0_d_4991_2051)">
<rect x="6" y="6" width="189" height="189" rx="15" fill="white"/>
<path d="M33 33V80.0769H80.0769V33H33ZM90.5385 33V43.4615H101V33H90.5385ZM101 43.4615V53.9231H90.5385V74.8462H101V64.3846H111.462V43.4615H101ZM101 74.8462V90.5385H53.9231V101H43.4615V111.462H64.3846V101H74.8462V111.462H101V101H111.462V111.462H127.154V101H137.615V90.5385H111.462V74.8462H101ZM137.615 101V111.462H169V101H158.538V90.5385H148.077V101H137.615ZM43.4615 101V90.5385H33V101H43.4615ZM121.923 33V80.0769H169V33H121.923ZM43.4615 43.4615H69.6154V69.6154H43.4615V43.4615ZM132.385 43.4615H158.538V69.6154H132.385V43.4615ZM48.6923 48.6923V64.3846H64.3846V48.6923H48.6923ZM137.615 48.6923V64.3846H153.308V48.6923H137.615ZM90.5385 116.692V127.154H101V116.692H90.5385ZM101 127.154V137.615H90.5385V158.538H101V148.077H121.923V137.615H132.385V127.154H142.846V137.615H132.385V148.077H121.923V169H132.385V158.538H142.846V148.077H148.077V158.538H142.846V169H153.308V158.538H158.538V148.077H169V127.154H158.538V116.692H121.923V127.154H101ZM158.538 158.538V169H169V158.538H158.538ZM101 158.538V169H111.462V158.538H101ZM33 121.923V169H80.0769V121.923H33ZM43.4615 132.385H69.6154V158.538H43.4615V132.385ZM48.6923 137.615V153.308H64.3846V137.615H48.6923Z" fill="black"/>
</g>
<defs>
<filter id="filter0_d_4991_2051" x="0" y="0" width="201" height="201" filterUnits="userSpaceOnUse" color-interpolation-filters="sRGB">
<feFlood flood-opacity="0" result="BackgroundImageFix"/>
<feColorMatrix in="SourceAlpha" type="matrix" values="0 0 0 0 0 0 0 0 0 0 0 0 0 0 0 0 0 0 127 0" result="hardAlpha"/>
<feOffset/>
<feGaussianBlur stdDeviation="3"/>
<feComposite in2="hardAlpha" operator="out"/>
<feColorMatrix type="matrix" values="0 0 0 0 0 0 0 0 0 0 0 0 0 0 0 0 0 0 0.25 0"/>
<feBlend mode="normal" in2="BackgroundImageFix" result="effect1_dropShadow_4991_2051"/>
<feBlend mode="normal" in="SourceGraphic" in2="effect1_dropShadow_4991_2051" result="shape"/>
</filter>
</defs>
</svg>
