<svg width="56" height="56" viewBox="0 0 56 56" fill="none" xmlns="http://www.w3.org/2000/svg">
<rect width="56" height="56" rx="8" fill="#0071E3"/>
<path d="M32.4734 26.6547H39.8879C41.9738 26.6547 43 25.6118 43 23.4614V16.1773C43 14.0262 41.9738 13 39.8879 13H32.4734C30.4036 13 29.3607 14.0262 29.3607 16.1773V23.4614C29.3607 25.6118 30.4036 26.6547 32.4734 26.6547ZM16.1121 26.6547H23.5432C25.6124 26.6547 26.6553 25.6118 26.6553 23.4614V16.1773C26.6553 14.0262 25.6124 13 23.5432 13H16.1121C14.0429 13 13 14.0262 13 16.1773V23.4614C13 25.6118 14.0429 26.6547 16.1121 26.6547ZM16.1448 24.3576C15.5746 24.3576 15.2972 24.0642 15.2972 23.4607V16.178C15.2972 15.5912 15.5746 15.2978 16.1455 15.2978H23.4946C24.0647 15.2978 24.3581 15.5912 24.3581 16.178V23.4621C24.3581 24.0649 24.0647 24.3583 23.4946 24.3583L16.1448 24.3576ZM32.5054 24.3576C31.9353 24.3576 31.6586 24.0642 31.6586 23.4607V16.178C31.6586 15.5912 31.9353 15.2978 32.5054 15.2978H39.8712C40.4256 15.2978 40.7028 15.5912 40.7028 16.178V23.4621C40.7028 24.0649 40.4254 24.3583 39.8712 24.3583L32.5054 24.3576ZM18.426 21.5384H21.2127C21.4574 21.5384 21.5547 21.441 21.5547 21.1636V18.4591C21.5547 18.1977 21.4574 18.1003 21.2127 18.1003H18.426C18.1819 18.1003 18.1166 18.1977 18.1166 18.4584V21.1636C18.1166 21.4403 18.1819 21.5384 18.426 21.5384ZM34.8847 21.5391H37.6554C37.8994 21.5391 37.9975 21.4417 37.9975 21.1643V18.4598C37.9975 18.1984 37.9001 18.101 37.6554 18.101H34.8847C34.6406 18.101 34.5593 18.1984 34.5593 18.4591V21.1643C34.5593 21.441 34.6406 21.5391 34.8847 21.5391ZM16.1121 43H23.5432C25.6124 43 26.6553 41.9738 26.6553 39.8227V32.5226C26.6553 30.3882 25.6124 29.3453 23.5432 29.3453H16.1121C14.0429 29.3453 13 30.3882 13 32.5226V39.8227C13 41.9738 14.0429 43 16.1121 43ZM30.4523 33.5655H33.2389C33.4837 33.5655 33.581 33.4681 33.581 33.19V30.4855C33.581 30.2248 33.4837 30.1275 33.2389 30.1275H30.4523C30.2082 30.1275 30.1429 30.2248 30.1429 30.4855V33.19C30.1429 33.4681 30.2082 33.5655 30.4523 33.5655ZM39.1057 33.5655H41.8917C42.1365 33.5655 42.2345 33.4681 42.2345 33.19V30.4855C42.2345 30.2248 42.1365 30.1275 41.8917 30.1275H39.1057C38.861 30.1275 38.7789 30.2248 38.7789 30.4855V33.19C38.7789 33.4681 38.861 33.5655 39.1057 33.5655ZM16.1448 40.7015C15.5746 40.7015 15.2972 40.4081 15.2972 39.8213V32.5372C15.2972 31.9344 15.5746 31.641 16.1455 31.641H23.4946C24.0647 31.641 24.3581 31.9344 24.3581 32.5379V39.8213C24.3581 40.4081 24.0647 40.7015 23.4946 40.7015H16.1448ZM18.426 37.8983H21.2127C21.4574 37.8983 21.5547 37.8009 21.5547 37.5075V34.819C21.5547 34.5583 21.4574 34.4603 21.2127 34.4603H18.426C18.1819 34.4603 18.1166 34.5576 18.1166 34.819V37.5075C18.1166 37.8009 18.1819 37.8983 18.426 37.8983ZM34.82 37.8983H37.606C37.8507 37.8983 37.9481 37.8009 37.9481 37.5075V34.819C37.9481 34.5583 37.8507 34.4603 37.606 34.4603H34.8193C34.5753 34.4603 34.5099 34.5576 34.5099 34.819V37.5075C34.5099 37.8009 34.5753 37.8983 34.82 37.8983ZM30.4523 42.2165H33.2389C33.4837 42.2165 33.581 42.1191 33.581 41.8417V39.1372C33.581 38.8758 33.4837 38.7785 33.2389 38.7785H30.4523C30.2082 38.7785 30.1429 38.8758 30.1429 39.1372V41.8417C30.1429 42.1191 30.2082 42.2165 30.4523 42.2165ZM39.1057 42.2172H41.8917C42.1365 42.2172 42.2345 42.1198 42.2345 41.8424V39.1379C42.2345 38.8765 42.1365 38.7791 41.8917 38.7791H39.1057C38.861 38.7791 38.7789 38.8765 38.7789 39.1379V41.8424C38.7789 42.1198 38.861 42.2172 39.1057 42.2172Z" fill="white"/>
</svg>
