<svg width="56" height="56" viewBox="0 0 56 56" fill="none" xmlns="http://www.w3.org/2000/svg">
<rect width="56" height="56" rx="8" fill="#0071E3"/>
<path d="M40.2727 33.6V16.8H15.7273V33.6H40.2727ZM40.2727 14C40.996 14 41.6897 14.295 42.2012 14.8201C42.7127 15.3452 43 16.0574 43 16.8V33.6C43 34.3426 42.7127 35.0548 42.2012 35.5799C41.6897 36.105 40.996 36.4 40.2727 36.4H30.7273V39.2H33.4545V42H22.5455V39.2H25.2727V36.4H15.7273C15.004 36.4 14.3103 36.105 13.7988 35.5799C13.2873 35.0548 13 34.3426 13 33.6V16.8C13 15.246 14.2136 14 15.7273 14H40.2727ZM18.4545 19.6H30.7273V26.6H18.4545V19.6ZM32.0909 19.6H37.5455V22.4H32.0909V19.6ZM37.5455 23.8V30.8H32.0909V23.8H37.5455ZM18.4545 28H23.9091V30.8H18.4545V28ZM25.2727 28H30.7273V30.8H25.2727V28Z" fill="white"/>
</svg>
