<svg width="56" height="56" viewBox="0 0 56 56" fill="none" xmlns="http://www.w3.org/2000/svg">
<rect width="56" height="56" rx="8" fill="#0071E3"/>
<path fill-rule="evenodd" clip-rule="evenodd" d="M39.6037 28.8433C39.5823 28.8433 39.5617 28.8518 39.5466 28.8669C39.5315 28.8821 39.523 28.9026 39.523 28.924V29.0046H39.6843V28.924C39.6843 28.9026 39.6758 28.8821 39.6607 28.8669C39.6456 28.8518 39.6251 28.8433 39.6037 28.8433ZM38.634 27.9544C38.8912 27.6972 39.24 27.5527 39.6037 27.5527C39.9673 27.5527 40.3161 27.6972 40.5733 27.9544C40.8304 28.2115 40.9749 28.5603 40.9749 28.924V30.2952H38.2324V28.924C38.2324 28.5603 38.3769 28.2115 38.634 27.9544Z" fill="white"/>
<path fill-rule="evenodd" clip-rule="evenodd" d="M36.5803 29.5314C37.382 28.7297 38.4693 28.2793 39.6032 28.2793C40.737 28.2793 41.8243 28.7297 42.6261 29.5314C43.4278 30.3331 43.8782 31.4205 43.8782 32.5543V37.5553H35.3281V32.5543C35.3281 31.4205 35.7785 30.3331 36.5803 29.5314ZM39.6032 30.2958C39.0042 30.2958 38.4297 30.5338 38.0062 30.9573C37.5826 31.3809 37.3446 31.9553 37.3446 32.5543V35.5388H41.8617V32.5543C41.8617 31.9553 41.6237 31.3809 41.2002 30.9573C40.7766 30.5338 40.2021 30.2958 39.6032 30.2958Z" fill="white"/>
<path fill-rule="evenodd" clip-rule="evenodd" d="M34.1547 35.8169C34.3789 35.5927 34.6628 35.5371 34.8833 35.5371H44.3206C44.5411 35.5371 44.8249 35.5927 45.0491 35.8169C45.2733 36.041 45.3289 36.3249 45.3289 36.5454C45.3289 36.7658 45.2733 37.0497 45.0491 37.2739C44.8249 37.4981 44.5411 37.5536 44.3206 37.5536H40.9732V37.6343C40.9732 37.998 40.8287 38.3467 40.5715 38.6039C40.3144 38.8611 39.9656 39.0055 39.6019 39.0055C39.2383 39.0055 38.8895 38.8611 38.6323 38.6039C38.3752 38.3467 38.2307 37.998 38.2307 37.6343V37.5536H34.8833C34.6628 37.5536 34.3789 37.4981 34.1547 37.2739C33.9306 37.0497 33.875 36.7658 33.875 36.5454C33.875 36.3249 33.9306 36.041 34.1547 35.8169Z" fill="white"/>
<path fill-rule="evenodd" clip-rule="evenodd" d="M10 20.4529C10 16.8891 12.8891 14 16.4529 14H34.5209C38.0848 14 40.9738 16.8891 40.9738 20.4529V25.6152C40.9738 26.3279 40.396 26.9058 39.6832 26.9058C38.9705 26.9058 38.3927 26.3279 38.3927 25.6152V20.4529C38.3927 18.3146 36.6592 16.5812 34.5209 16.5812H16.4529C14.3146 16.5812 12.5812 18.3146 12.5812 20.4529V30.7775C12.5812 32.9158 14.3146 34.6492 16.4529 34.6492H31.9398C32.6525 34.6492 33.2304 35.227 33.2304 35.9398C33.2304 36.6525 32.6525 37.2304 31.9398 37.2304H16.4529C12.8891 37.2304 10 34.3413 10 30.7775V20.4529Z" fill="white"/>
<path fill-rule="evenodd" clip-rule="evenodd" d="M21.614 41.1037V35.9414H29.3574V41.1037H21.614Z" fill="white"/>
<path fill-rule="evenodd" clip-rule="evenodd" d="M17.0977 41.7488C17.0977 41.3924 17.3866 41.1035 17.7429 41.1035H33.2299C33.5862 41.1035 33.8751 41.3924 33.8751 41.7488C33.8751 42.1052 33.5862 42.3941 33.2299 42.3941H17.7429C17.3866 42.3941 17.0977 42.1052 17.0977 41.7488Z" fill="white"/>
<path fill-rule="evenodd" clip-rule="evenodd" d="M15.8086 19.8094C15.8086 19.453 16.0975 19.1641 16.4539 19.1641H34.5219C34.8783 19.1641 35.1672 19.453 35.1672 19.8094C35.1672 20.1657 34.8783 20.4546 34.5219 20.4546H16.4539C16.0975 20.4546 15.8086 20.1657 15.8086 19.8094Z" fill="white"/>
<path fill-rule="evenodd" clip-rule="evenodd" d="M15.8086 23.6804C15.8086 23.3241 16.0975 23.0352 16.4539 23.0352H34.5219C34.8783 23.0352 35.1672 23.3241 35.1672 23.6804C35.1672 24.0368 34.8783 24.3257 34.5219 24.3257H16.4539C16.0975 24.3257 15.8086 24.0368 15.8086 23.6804Z" fill="white"/>
<path fill-rule="evenodd" clip-rule="evenodd" d="M15.8086 27.5515C15.8086 27.1952 16.0975 26.9062 16.4539 26.9062H34.5219C34.8783 26.9062 35.1672 27.1952 35.1672 27.5515C35.1672 27.9079 34.8783 28.1968 34.5219 28.1968H16.4539C16.0975 28.1968 15.8086 27.9079 15.8086 27.5515Z" fill="white"/>
<path fill-rule="evenodd" clip-rule="evenodd" d="M15.8086 31.4226C15.8086 31.0662 16.0975 30.7773 16.4539 30.7773H29.3596C29.716 30.7773 30.0049 31.0662 30.0049 31.4226C30.0049 31.779 29.716 32.0679 29.3596 32.0679H16.4539C16.0975 32.0679 15.8086 31.779 15.8086 31.4226Z" fill="white"/>
</svg>
