<svg width="56" height="56" viewBox="0 0 56 56" fill="none" xmlns="http://www.w3.org/2000/svg">
<rect width="56" height="56" rx="8" fill="#0071E3"/>
<g clip-path="url(#clip0_805_6350)">
<path d="M38.5 15.75H17.5C17.0359 15.75 16.5908 15.9344 16.2626 16.2626C15.9344 16.5908 15.75 17.0359 15.75 17.5V29.75C15.75 30.2141 15.9344 30.6592 16.2626 30.9874C16.5908 31.3156 17.0359 31.5 17.5 31.5H26.25V38.5H21.875C21.6429 38.5 21.4204 38.4078 21.2563 38.2437C21.0922 38.0796 21 37.8571 21 37.625C21 37.3929 21.0922 37.1704 21.2563 37.0063C21.4204 36.8422 21.6429 36.75 21.875 36.75H24.5V33.25H17.5C15.575 33.25 14 31.6838 14 29.75V17.5C14 15.575 15.5662 14 17.5 14H38.5C40.425 14 42 15.5662 42 17.5H40.25C40.25 17.0359 40.0656 16.5908 39.7374 16.2626C39.4092 15.9344 38.9641 15.75 38.5 15.75Z" fill="white"/>
<path d="M34.125 24.5C33.8929 24.5 33.6704 24.5922 33.5063 24.7563C33.3422 24.9204 33.25 25.1429 33.25 25.375C33.25 25.6071 33.3422 25.8296 33.5063 25.9937C33.6704 26.1578 33.8929 26.25 34.125 26.25H37.625C37.8571 26.25 38.0796 26.1578 38.2437 25.9937C38.4078 25.8296 38.5 25.6071 38.5 25.375C38.5 25.1429 38.4078 24.9204 38.2437 24.7563C38.0796 24.5922 37.8571 24.5 37.625 24.5H34.125ZM34.125 28C33.8929 28 33.6704 28.0922 33.5063 28.2563C33.3422 28.4204 33.25 28.6429 33.25 28.875C33.25 29.1071 33.3422 29.3296 33.5063 29.4937C33.6704 29.6578 33.8929 29.75 34.125 29.75H37.625C37.8571 29.75 38.0796 29.6578 38.2437 29.4937C38.4078 29.3296 38.5 29.1071 38.5 28.875C38.5 28.6429 38.4078 28.4204 38.2437 28.2563C38.0796 28.0922 37.8571 28 37.625 28H34.125Z" fill="white"/>
<path d="M18.8537 18C18.6273 18 18.4101 18.0878 18.25 18.2441C18.0899 18.4004 18 18.6123 18 18.8333C18 19.0543 18.0899 19.2663 18.25 19.4226C18.4101 19.5789 18.6273 19.6667 18.8537 19.6667H27.1463C27.3727 19.6667 27.5899 19.5789 27.75 19.4226C27.9101 19.2663 28 19.0543 28 18.8333C28 18.6123 27.9101 18.4004 27.75 18.2441C27.5899 18.0878 27.3727 18 27.1463 18H18.8537ZM18.8537 21.3333C18.6273 21.3333 18.4101 21.4211 18.25 21.5774C18.0899 21.7337 18 21.9457 18 22.1667C18 22.3877 18.0899 22.5996 18.25 22.7559C18.4101 22.9122 18.6273 23 18.8537 23H27.1463C27.3727 23 27.5899 22.9122 27.75 22.7559C27.9101 22.5996 28 22.3877 28 22.1667C28 21.9457 27.9101 21.7337 27.75 21.5774C27.5899 21.4211 27.3727 21.3333 27.1463 21.3333H18.8537Z" fill="white"/>
<path d="M18.8537 25C18.6273 25 18.4101 25.0878 18.25 25.2441C18.0899 25.4004 18 25.6123 18 25.8333C18 26.0543 18.0899 26.2663 18.25 26.4226C18.4101 26.5789 18.6273 26.6667 18.8537 26.6667H27.1463C27.3727 26.6667 27.5899 26.5789 27.75 26.4226C27.9101 26.2663 28 26.0543 28 25.8333C28 25.6123 27.9101 25.4004 27.75 25.2441C27.5899 25.0878 27.3727 25 27.1463 25H18.8537ZM18.8537 28.3333C18.6273 28.3333 18.4101 28.4211 18.25 28.5774C18.0899 28.7337 18 28.9457 18 29.1667C18 29.3877 18.0899 29.5996 18.25 29.7559C18.4101 29.9122 18.6273 30 18.8537 30H27.1463C27.3727 30 27.5899 29.9122 27.75 29.7559C27.9101 29.5996 28 29.3877 28 29.1667C28 28.9457 27.9101 28.7337 27.75 28.5774C27.5899 28.4211 27.3727 28.3333 27.1463 28.3333H18.8537Z" fill="white"/>
<path d="M34.125 32C33.8929 32 33.6704 32.0922 33.5063 32.2563C33.3422 32.4204 33.25 32.6429 33.25 32.875C33.25 33.1071 33.3422 33.3296 33.5063 33.4937C33.6704 33.6578 33.8929 33.75 34.125 33.75H37.625C37.8571 33.75 38.0796 33.6578 38.2437 33.4937C38.4078 33.3296 38.5 33.1071 38.5 32.875C38.5 32.6429 38.4078 32.4204 38.2437 32.2563C38.0796 32.0922 37.8571 32 37.625 32H34.125ZM34.125 35.5C33.8929 35.5 33.6704 35.5922 33.5063 35.7563C33.3422 35.9204 33.25 36.1429 33.25 36.375C33.25 36.6071 33.3422 36.8296 33.5063 36.9937C33.6704 37.1578 33.8929 37.25 34.125 37.25H37.625C37.8571 37.25 38.0796 37.1578 38.2437 36.9937C38.4078 36.8296 38.5 36.6071 38.5 36.375C38.5 36.1429 38.4078 35.9204 38.2437 35.7563C38.0796 35.5922 37.8571 35.5 37.625 35.5H34.125Z" fill="white"/>
<path fill-rule="evenodd" clip-rule="evenodd" d="M29.75 25.2002C29.75 23.7302 29.75 22.9952 30.0353 22.4352C30.2873 21.9417 30.688 21.5392 31.1833 21.2872C31.745 21.002 32.48 21.002 33.9483 21.002H37.7983C39.2682 21.002 40.0033 21.002 40.5632 21.2872C41.0568 21.5392 41.4593 21.94 41.7113 22.4352C41.9983 22.997 41.9982 23.732 41.9982 25.2002V37.8002C41.9982 39.2702 41.9983 40.0052 41.7113 40.5652C41.4595 41.0596 41.0576 41.4615 40.5632 41.7132C40.0015 42.0002 39.2665 42.0002 37.7983 42.0002H33.9483C32.4783 42.0002 31.7433 42.0002 31.1833 41.7132C30.6889 41.4615 30.287 41.0596 30.0353 40.5652C29.75 40.0035 29.75 39.2685 29.75 37.8002V25.2002ZM33.95 22.7502H37.8C38.563 22.7502 39.032 22.7502 39.382 22.78C39.5094 22.7891 39.6359 22.809 39.76 22.8395L39.774 22.8447C39.9382 22.9285 40.0717 23.062 40.1555 23.2262V23.2315L40.1608 23.2402L40.1765 23.2962C40.1905 23.3557 40.2062 23.4537 40.2202 23.6182C40.2483 23.9682 40.25 24.4355 40.25 25.2002V37.8002C40.25 38.5632 40.25 39.0322 40.2202 39.3822C40.2111 39.5097 40.1912 39.6361 40.1608 39.7602L40.1572 39.7672L40.1555 39.7725C40.0717 39.9366 39.9382 40.0701 39.774 40.154L39.767 40.1575L39.76 40.161L39.704 40.1767C39.5983 40.2012 39.4905 40.2159 39.382 40.2205C39.032 40.2485 38.5648 40.2502 37.8 40.2502H33.95C33.187 40.2502 32.718 40.2502 32.368 40.2205C32.2406 40.2113 32.1141 40.1914 31.99 40.161L31.983 40.1575L31.9777 40.154C31.8136 40.0701 31.6801 39.9366 31.5963 39.7725L31.5892 39.7602L31.5735 39.7042C31.549 39.5985 31.5343 39.4907 31.5298 39.3822C31.5018 39.0322 31.5 38.565 31.5 37.8002V25.2002C31.5 24.4355 31.5 23.9682 31.5298 23.6182C31.5389 23.4908 31.5588 23.3643 31.5892 23.2402L31.5928 23.2315L31.5963 23.2262C31.6801 23.062 31.8136 22.9285 31.9777 22.8447L31.99 22.8395L32.046 22.8237C32.1517 22.7992 32.2595 22.7845 32.368 22.78C32.718 22.752 33.1852 22.7502 33.95 22.7502Z" fill="white"/>
</g>
<defs>
<clipPath id="clip0_805_6350">
<rect width="28" height="28" fill="white" transform="translate(14 14)"/>
</clipPath>
</defs>
</svg>
