<svg width="74" height="75" viewBox="0 0 74 75" fill="none" xmlns="http://www.w3.org/2000/svg">
<path fill-rule="evenodd" clip-rule="evenodd" d="M73.8215 24.1071V66.9643C73.8215 69.0964 72.9583 71.1402 71.4194 72.6455C69.8805 74.1536 67.7947 75 65.6191 75H21.873C19.6974 75 17.6117 74.1536 16.0727 72.6455C14.5338 71.1402 13.6707 69.0964 13.6707 66.9643V47.8607C15.0026 48.0937 16.3736 48.2143 17.7719 48.2143C30.5988 48.2143 41.012 38.0116 41.012 25.4464C41.012 12.8813 30.5988 2.67857 17.7719 2.67857C17.0649 2.67857 16.3657 2.71071 15.6783 2.76963C17.182 1.0741 19.4006 0 21.873 0H49.2143V16.0714C49.2143 18.2036 50.0775 20.2473 51.6165 21.7527C53.1554 23.2607 55.2411 24.1071 57.4167 24.1071H73.8215ZM30.0754 61.6071V58.9286C30.0754 57.45 28.849 56.25 27.3413 56.25C25.8336 56.25 24.6072 57.45 24.6072 58.9286V61.6071C24.6072 63.0857 25.8336 64.2857 27.3413 64.2857C28.849 64.2857 30.0754 63.0857 30.0754 61.6071ZM41.012 61.6071V50.8929C41.012 49.4143 39.7855 48.2143 38.2778 48.2143C36.7702 48.2143 35.5437 49.4143 35.5437 50.8929V61.6071C35.5437 63.0857 36.7702 64.2857 38.2778 64.2857C39.7855 64.2857 41.012 63.0857 41.012 61.6071ZM51.9485 61.6071V53.5714C51.9485 52.0929 50.722 50.8929 49.2143 50.8929C47.7066 50.8929 46.4802 52.0929 46.4802 53.5714V61.6071C46.4802 63.0857 47.7066 64.2857 49.2143 64.2857C50.722 64.2857 51.9485 63.0857 51.9485 61.6071ZM62.885 61.6071V42.8571C62.885 41.3786 61.6585 40.1786 60.1509 40.1786C58.6432 40.1786 57.4167 41.3786 57.4167 42.8571V61.6071C57.4167 63.0857 58.6432 64.2857 60.1509 64.2857C61.6585 64.2857 62.885 63.0857 62.885 61.6071ZM54.6826 0.0508853C56.6473 0.270528 58.4791 1.18126 59.8228 2.63036L71.6889 15.4152C72.5756 16.3741 73.2083 17.5179 73.5442 18.75H57.4167C56.6902 18.75 55.995 18.4688 55.4833 17.9652C54.9717 17.4643 54.6826 16.7812 54.6826 16.0714V0.0508853ZM35.3327 28.125C34.0165 36.4634 26.65 42.8571 17.7719 42.8571C7.96414 42.8571 0 35.0545 0 25.4464C0 16.7491 6.52673 9.53037 15.0377 8.24197V22.7679C15.0377 25.7277 17.4867 28.125 20.506 28.125H35.3327ZM20.506 8.24197C28.1264 9.39644 34.1571 15.3027 35.3327 22.7679H20.506V8.24197Z" fill="#0071E3"/>
</svg>
