<svg width="56" height="56" viewBox="0 0 56 56" fill="none" xmlns="http://www.w3.org/2000/svg">
<rect width="56" height="56" rx="8" fill="#0071E3"/>
<path fill-rule="evenodd" clip-rule="evenodd" d="M31.7143 20.5333C31.7143 21.5235 31.323 22.4731 30.6264 23.1732C29.9298 23.8733 28.9851 24.2667 28 24.2667C27.0149 24.2667 26.0702 23.8733 25.3736 23.1732C24.677 22.4731 24.2857 21.5235 24.2857 20.5333C24.2857 19.5432 24.677 18.5936 25.3736 17.8935C26.0702 17.1933 27.0149 16.8 28 16.8C28.9851 16.8 29.9298 17.1933 30.6264 17.8935C31.323 18.5936 31.7143 19.5432 31.7143 20.5333ZM34.5 20.5333C34.5 22.2661 33.8152 23.9279 32.5962 25.1531C31.3772 26.3783 29.7239 27.0667 28 27.0667C26.2761 27.0667 24.6228 26.3783 23.4038 25.1531C22.1848 23.9279 21.5 22.2661 21.5 20.5333C21.5 18.8006 22.1848 17.1388 23.4038 15.9136C24.6228 14.6883 26.2761 14 28 14C29.7239 14 31.3772 14.6883 32.5962 15.9136C33.8152 17.1388 34.5 18.8006 34.5 20.5333ZM17.7857 35.4667C17.7857 35.0859 18.1943 33.9565 20.2371 32.7432C22.1277 31.6213 24.88 30.8 28 30.8C31.12 30.8 33.8723 31.6213 35.7629 32.7432C37.8057 33.9565 38.2143 35.0859 38.2143 35.4667C38.2143 35.9617 38.0186 36.4365 37.6703 36.7866C37.3221 37.1367 36.8497 37.3333 36.3571 37.3333H35.8929C35.5234 37.3333 35.1692 37.4808 34.908 37.7434C34.6467 38.0059 34.5 38.362 34.5 38.7333C34.5 39.1046 34.6467 39.4607 34.908 39.7233C35.1692 39.9858 35.5234 40.1333 35.8929 40.1333H36.3571C37.5885 40.1333 38.7694 39.6417 39.6401 38.7665C40.5108 37.8913 41 36.7043 41 35.4667C41 31.7333 35.15 28 28 28C20.85 28 15 31.7333 15 35.4667C15 36.7043 15.4892 37.8913 16.3599 38.7665C17.2306 39.6417 18.4115 40.1333 19.6429 40.1333H20.1071C20.4766 40.1333 20.8308 39.9858 21.092 39.7233C21.3533 39.4607 21.5 39.1046 21.5 38.7333C21.5 38.362 21.3533 38.0059 21.092 37.7434C20.8308 37.4808 20.4766 37.3333 20.1071 37.3333H19.6429C19.1503 37.3333 18.6779 37.1367 18.3297 36.7866C17.9814 36.4365 17.7857 35.9617 17.7857 35.4667ZM23.9793 33.7493C23.652 33.596 23.2783 33.5764 22.937 33.6947C22.5957 33.813 22.3133 34.0598 22.1496 34.3832C21.9858 34.7066 21.9534 35.0814 22.0591 35.4283C22.1649 35.7753 22.4005 36.0675 22.7164 36.2432L22.7536 36.2656C22.7957 36.2905 22.8638 36.3365 22.9579 36.4037C23.1399 36.5419 23.398 36.7677 23.6636 37.1C24.022 37.5517 24.4139 38.2275 24.6144 39.2H23.8214C23.452 39.2 23.0977 39.3475 22.8365 39.6101C22.5753 39.8726 22.4286 40.2287 22.4286 40.6C22.4286 40.9713 22.5753 41.3274 22.8365 41.5899C23.0977 41.8525 23.452 42 23.8214 42H32.1786C32.548 42 32.9023 41.8525 33.1635 41.5899C33.4247 41.3274 33.5714 40.9713 33.5714 40.6C33.5714 40.2287 33.4247 39.8726 33.1635 39.6101C32.9023 39.3475 32.548 39.2 32.1786 39.2H31.3856C31.5861 38.2293 31.978 37.5517 32.3383 37.1C32.602 36.7677 32.8601 36.5419 33.044 36.4037C33.119 36.3442 33.1985 36.2905 33.2817 36.2432C33.6096 36.0741 33.8574 35.7812 33.9708 35.4288C34.0843 35.0764 34.0542 34.6932 33.8872 34.363C33.7201 34.0329 33.4297 33.7827 33.0795 33.6673C32.7293 33.552 32.3479 33.5808 32.0189 33.7475L32.6429 35C32.4374 34.5818 32.2294 34.1631 32.0189 33.7475L32.0133 33.7493L32.0059 33.7549L31.9873 33.7643L31.8016 33.8725C31.6542 33.9629 31.511 34.06 31.3726 34.1637C30.9206 34.5063 30.5137 34.9053 30.1617 35.3509C29.4616 36.2301 28.8004 37.4901 28.559 39.2H27.4429C27.2014 37.4901 26.5403 36.232 25.8401 35.3509C25.4882 34.9053 25.0813 34.5063 24.6293 34.1637C24.4333 34.0172 24.228 33.8837 24.0146 33.7643L23.996 33.7549L23.9886 33.7512L23.9849 33.7493C23.983 33.7493 23.9811 33.7493 23.359 35L23.9793 33.7493Z" fill="white"/>
</svg>
