<svg width="171" height="75" viewBox="0 0 171 75" fill="none" xmlns="http://www.w3.org/2000/svg">
<g clip-path="url(#clip0_7_771)">
<path d="M1.68641 0H27.711V13.7621H1.68641C0.75551 13.7621 0 13.0117 0 12.0871V1.67504C0 0.750419 0.75551 0 1.68641 0Z" fill="#0071E3"/>
<path d="M29.1641 0H69.0459C69.9768 0 70.7323 0.750419 70.7323 1.67504V12.0871C70.7323 13.0117 69.9768 13.7621 69.0459 13.7621H29.1641V0Z" fill="#0071E3"/>
<path d="M43.0195 59.8603V15.1719H29.164L29.164 59.8603H43.0195Z" fill="#0071E3"/>
<path d="M69.5054 46.0965H60.8997C59.478 46.0965 58.3262 44.9524 58.3262 43.5404V15.1719H44.4707V57.3042C44.4707 58.7163 45.6225 59.8603 47.0442 59.8603H68.8629C69.9287 59.8603 70.7921 59.0027 70.7921 57.9441V47.3762C70.7921 46.671 70.2154 46.0982 69.5054 46.0982V46.0965Z" fill="#0071E3"/>
<path d="M111.629 0H86.1526C78.5384 0 72.3594 6.10218 72.2987 13.6516H72.2953V13.7621V58.6181C72.2953 60.0302 71.1435 61.1742 69.7219 61.1742H29.1621V67.0151C29.1621 71.3903 32.7322 74.9363 37.1371 74.9363H72.3341C79.9685 74.9146 86.1509 68.7621 86.1509 61.1742V15.9816C86.1509 14.7554 87.1509 13.7621 88.3854 13.7621H111.627C112.862 13.7621 113.862 12.7688 113.862 11.5427V2.21943C113.862 0.9933 112.862 0 111.627 0H111.629Z" fill="#0071E3"/>
<path d="M159.908 15.2051H91.2732C89.4105 15.2051 87.9004 16.705 87.9004 18.5552V71.6506C87.9004 73.5008 89.4105 75.0007 91.2732 75.0007H159.908C161.771 75.0007 163.281 73.5008 163.281 71.6506V18.5552C163.281 16.705 161.771 15.2051 159.908 15.2051Z" fill="#0071E3"/>
<path d="M162.04 59.5391L153.08 74.9997H171L162.04 59.5391Z" fill="#0071E3"/>
</g>
<defs>
<clipPath id="clip0_7_771">
<rect width="171" height="75" fill="white"/>
</clipPath>
</defs>
</svg>
